M48
;GenerationSoftware,Autodesk,EAGLE,9.6.2*%
;CreationDate,2022-04-24T18:45:38Z*%
FMAT,2
ICI,OFF
METRIC,TZ,000.000
T4C0.350
T3C0.813
T2C0.900
T1C1.016
%
G90
M71
T1
X46990Y21463
X2540Y31750
X2540Y29210
X2540Y26670
X2540Y24130
X2540Y21590
X2540Y19050
X2540Y16510
X2540Y13970
X46990Y24003
X46990Y18923
X46990Y16383
X46990Y13843
X46990Y36830
X46990Y34290
X34417Y2159
X46990Y31750
X46990Y29210
X46990Y26670
X39370Y7874
X39370Y10160
X2540Y34290
X2540Y36830
X2540Y8890
X2540Y6350
X2540Y3810
X15621Y2286
X15621Y4826
X12573Y4826
X12573Y2286
X12573Y7366
X12573Y9906
X42037Y2159
X39497Y2159
X36957Y2159
X31877Y2159
X29337Y2159
X20066Y46736
X22606Y46736
X25146Y46736
X27686Y46736
X30226Y46736
X45085Y2032
X45085Y4572
X45085Y7112
X45085Y9652
X48006Y46990
X42926Y46990
X2286Y45974
X7366Y45974
T2
X23368Y1779
X20868Y1779
X23368Y5079
X20868Y5079
X25868Y5079
X25868Y1779
T3
X29210Y19050
X29210Y21590
X29210Y24130
X29210Y26670
X29210Y29210
X21590Y21590
X29210Y34290
X29210Y36830
X29210Y39370
X29210Y41910
X29210Y31750
X35052Y35814
X32512Y41910
X32512Y39370
X31750Y21717
X34290Y21717
X16129Y11430
X18669Y11430
X39370Y48260
X39370Y45720
X11049Y48006
X11049Y45466
X35052Y43434
X12954Y34925
X12954Y42545
X37592Y43434
X37592Y35814
X9525Y42545
X9525Y34925
X21590Y41910
X21590Y39370
X21590Y36830
X21590Y34290
X21590Y31750
X21590Y29210
X21590Y26670
X21590Y24130
X21590Y19050
X21590Y16510
X21590Y13970
X21590Y11430
X21590Y8890
X29210Y8890
X29210Y11430
X29210Y13970
X29210Y16510
T4
X7620Y11430
X7620Y6350
X5080Y13970
X13970Y24130
X41910Y6350
X13970Y8890
X24130Y26670
X26670Y21590
X36830Y13970
X35560Y10160
X35560Y16510
X17780Y39370
X17780Y16510
X37084Y7874
X15240Y16510
X43914Y19050
X39370Y35560
X12700Y40640
X7620Y31750
X7620Y19050
M30