G04 EAGLE Gerber RS-274X export*
G75*
%MOMM*%
%FSLAX34Y34*%
%LPD*%
%INBottom Copper*%
%IPPOS*%
%AMOC8*
5,1,8,0,0,1.08239X$1,22.5*%
G01*
%ADD10P,1.539592X8X292.500000*%
%ADD11P,1.539592X8X22.500000*%
%ADD12P,1.539592X8X112.500000*%
%ADD13C,1.422400*%
%ADD14C,1.879600*%
%ADD15C,1.509600*%
%ADD16C,0.858000*%
%ADD17C,0.609600*%
%ADD18C,0.406400*%

G36*
X495194Y4068D02*
X495194Y4068D01*
X495213Y4066D01*
X495315Y4088D01*
X495417Y4104D01*
X495434Y4114D01*
X495454Y4118D01*
X495543Y4171D01*
X495634Y4220D01*
X495648Y4234D01*
X495665Y4244D01*
X495732Y4323D01*
X495804Y4398D01*
X495812Y4416D01*
X495825Y4431D01*
X495864Y4527D01*
X495907Y4621D01*
X495909Y4641D01*
X495917Y4659D01*
X495935Y4826D01*
X495935Y495174D01*
X495932Y495194D01*
X495934Y495213D01*
X495912Y495315D01*
X495896Y495417D01*
X495886Y495434D01*
X495882Y495454D01*
X495829Y495543D01*
X495780Y495634D01*
X495766Y495648D01*
X495756Y495665D01*
X495677Y495732D01*
X495602Y495804D01*
X495584Y495812D01*
X495569Y495825D01*
X495473Y495864D01*
X495379Y495907D01*
X495359Y495909D01*
X495341Y495917D01*
X495174Y495935D01*
X4826Y495935D01*
X4806Y495932D01*
X4787Y495934D01*
X4685Y495912D01*
X4583Y495896D01*
X4566Y495886D01*
X4546Y495882D01*
X4457Y495829D01*
X4366Y495780D01*
X4352Y495766D01*
X4335Y495756D01*
X4268Y495677D01*
X4196Y495602D01*
X4188Y495584D01*
X4175Y495569D01*
X4136Y495473D01*
X4093Y495379D01*
X4091Y495359D01*
X4083Y495341D01*
X4065Y495174D01*
X4065Y4826D01*
X4068Y4806D01*
X4066Y4787D01*
X4088Y4685D01*
X4104Y4583D01*
X4114Y4566D01*
X4118Y4546D01*
X4171Y4457D01*
X4220Y4366D01*
X4234Y4352D01*
X4244Y4335D01*
X4323Y4268D01*
X4398Y4196D01*
X4416Y4188D01*
X4431Y4175D01*
X4527Y4136D01*
X4621Y4093D01*
X4641Y4091D01*
X4659Y4083D01*
X4826Y4065D01*
X495174Y4065D01*
X495194Y4068D01*
G37*
%LPC*%
G36*
X290692Y8127D02*
X290692Y8127D01*
X285744Y10177D01*
X281957Y13964D01*
X279907Y18912D01*
X279907Y24268D01*
X281957Y29216D01*
X285744Y33003D01*
X290692Y35053D01*
X294847Y35053D01*
X294918Y35064D01*
X294990Y35066D01*
X295039Y35084D01*
X295090Y35092D01*
X295153Y35126D01*
X295221Y35151D01*
X295261Y35183D01*
X295308Y35208D01*
X295357Y35260D01*
X295413Y35304D01*
X295441Y35348D01*
X295477Y35386D01*
X295507Y35451D01*
X295546Y35511D01*
X295559Y35562D01*
X295581Y35609D01*
X295588Y35680D01*
X295606Y35750D01*
X295602Y35802D01*
X295608Y35853D01*
X295592Y35924D01*
X295587Y35995D01*
X295566Y36043D01*
X295555Y36094D01*
X295519Y36155D01*
X295490Y36221D01*
X295446Y36277D01*
X295429Y36305D01*
X295411Y36320D01*
X295386Y36352D01*
X237954Y93784D01*
X236131Y95606D01*
X235203Y97847D01*
X235203Y110699D01*
X235188Y110795D01*
X235178Y110892D01*
X235168Y110916D01*
X235164Y110942D01*
X235118Y111028D01*
X235078Y111117D01*
X235061Y111136D01*
X235048Y111159D01*
X234978Y111226D01*
X234912Y111298D01*
X234889Y111311D01*
X234870Y111329D01*
X234782Y111370D01*
X234696Y111417D01*
X234671Y111421D01*
X234647Y111432D01*
X234550Y111443D01*
X234454Y111460D01*
X234428Y111456D01*
X234403Y111459D01*
X234307Y111439D01*
X234211Y111424D01*
X234188Y111413D01*
X234162Y111407D01*
X234079Y111357D01*
X233992Y111313D01*
X233973Y111294D01*
X233951Y111281D01*
X233888Y111207D01*
X233820Y111137D01*
X233804Y111109D01*
X233791Y111094D01*
X233779Y111063D01*
X233739Y110990D01*
X232487Y107969D01*
X229343Y104825D01*
X225235Y103123D01*
X206565Y103123D01*
X202457Y104825D01*
X199313Y107969D01*
X197807Y111604D01*
X197756Y111687D01*
X197710Y111772D01*
X197692Y111790D01*
X197678Y111813D01*
X197602Y111875D01*
X197532Y111942D01*
X197508Y111953D01*
X197488Y111969D01*
X197397Y112004D01*
X197309Y112045D01*
X197283Y112048D01*
X197259Y112058D01*
X197161Y112062D01*
X197065Y112073D01*
X197039Y112067D01*
X197013Y112068D01*
X196919Y112041D01*
X196824Y112020D01*
X196802Y112007D01*
X196777Y112000D01*
X196697Y111944D01*
X196613Y111894D01*
X196596Y111874D01*
X196575Y111859D01*
X196516Y111781D01*
X196453Y111707D01*
X196443Y111683D01*
X196428Y111662D01*
X196398Y111569D01*
X196361Y111479D01*
X196358Y111447D01*
X196352Y111428D01*
X196352Y111395D01*
X196343Y111312D01*
X196343Y110302D01*
X190688Y104647D01*
X188213Y104647D01*
X188213Y113538D01*
X188210Y113558D01*
X188212Y113577D01*
X188190Y113679D01*
X188173Y113781D01*
X188164Y113798D01*
X188160Y113818D01*
X188107Y113907D01*
X188058Y113998D01*
X188044Y114012D01*
X188034Y114029D01*
X187955Y114096D01*
X187880Y114167D01*
X187862Y114176D01*
X187847Y114189D01*
X187751Y114227D01*
X187657Y114271D01*
X187637Y114273D01*
X187619Y114281D01*
X187452Y114299D01*
X186689Y114299D01*
X186689Y114301D01*
X187452Y114301D01*
X187472Y114304D01*
X187491Y114302D01*
X187593Y114324D01*
X187695Y114341D01*
X187712Y114350D01*
X187732Y114354D01*
X187821Y114407D01*
X187912Y114456D01*
X187926Y114470D01*
X187943Y114480D01*
X188010Y114559D01*
X188081Y114634D01*
X188090Y114652D01*
X188103Y114667D01*
X188142Y114763D01*
X188185Y114857D01*
X188187Y114877D01*
X188195Y114895D01*
X188213Y115062D01*
X188213Y123953D01*
X190688Y123953D01*
X196343Y118298D01*
X196343Y117288D01*
X196358Y117192D01*
X196368Y117095D01*
X196378Y117071D01*
X196382Y117045D01*
X196428Y116959D01*
X196468Y116870D01*
X196485Y116851D01*
X196497Y116828D01*
X196568Y116761D01*
X196634Y116689D01*
X196657Y116676D01*
X196676Y116658D01*
X196764Y116617D01*
X196849Y116570D01*
X196875Y116566D01*
X196899Y116555D01*
X196996Y116544D01*
X197092Y116527D01*
X197117Y116530D01*
X197143Y116527D01*
X197238Y116548D01*
X197335Y116562D01*
X197358Y116574D01*
X197384Y116580D01*
X197467Y116630D01*
X197554Y116674D01*
X197572Y116693D01*
X197595Y116706D01*
X197658Y116780D01*
X197726Y116849D01*
X197742Y116878D01*
X197755Y116893D01*
X197767Y116923D01*
X197807Y116996D01*
X199313Y120631D01*
X202457Y123775D01*
X206565Y125477D01*
X225235Y125477D01*
X229343Y123775D01*
X232487Y120631D01*
X233739Y117610D01*
X233790Y117527D01*
X233836Y117441D01*
X233854Y117423D01*
X233868Y117401D01*
X233944Y117338D01*
X234014Y117271D01*
X234038Y117260D01*
X234058Y117244D01*
X234149Y117209D01*
X234237Y117168D01*
X234263Y117165D01*
X234287Y117156D01*
X234385Y117151D01*
X234481Y117141D01*
X234507Y117146D01*
X234533Y117145D01*
X234627Y117172D01*
X234722Y117193D01*
X234744Y117206D01*
X234769Y117214D01*
X234849Y117269D01*
X234933Y117319D01*
X234950Y117339D01*
X234971Y117354D01*
X235030Y117432D01*
X235093Y117506D01*
X235103Y117530D01*
X235118Y117551D01*
X235148Y117644D01*
X235185Y117734D01*
X235188Y117767D01*
X235194Y117785D01*
X235194Y117818D01*
X235203Y117901D01*
X235203Y136099D01*
X235188Y136195D01*
X235178Y136292D01*
X235168Y136316D01*
X235164Y136342D01*
X235118Y136428D01*
X235078Y136517D01*
X235061Y136536D01*
X235048Y136559D01*
X234978Y136626D01*
X234912Y136698D01*
X234889Y136711D01*
X234870Y136729D01*
X234782Y136770D01*
X234696Y136817D01*
X234671Y136821D01*
X234647Y136832D01*
X234550Y136843D01*
X234454Y136860D01*
X234428Y136856D01*
X234403Y136859D01*
X234307Y136839D01*
X234211Y136824D01*
X234188Y136813D01*
X234162Y136807D01*
X234079Y136757D01*
X233992Y136713D01*
X233973Y136694D01*
X233951Y136681D01*
X233888Y136607D01*
X233820Y136537D01*
X233804Y136509D01*
X233791Y136494D01*
X233779Y136463D01*
X233739Y136390D01*
X232487Y133369D01*
X229343Y130225D01*
X225235Y128523D01*
X206565Y128523D01*
X202457Y130225D01*
X199313Y133369D01*
X197611Y137477D01*
X197611Y141923D01*
X199313Y146031D01*
X202457Y149175D01*
X206565Y150877D01*
X225235Y150877D01*
X229343Y149175D01*
X232487Y146031D01*
X233739Y143010D01*
X233790Y142927D01*
X233836Y142841D01*
X233854Y142823D01*
X233868Y142801D01*
X233944Y142738D01*
X234014Y142671D01*
X234038Y142660D01*
X234058Y142644D01*
X234149Y142609D01*
X234237Y142568D01*
X234263Y142565D01*
X234287Y142556D01*
X234385Y142551D01*
X234481Y142541D01*
X234507Y142546D01*
X234533Y142545D01*
X234627Y142572D01*
X234722Y142593D01*
X234744Y142606D01*
X234769Y142614D01*
X234849Y142669D01*
X234933Y142719D01*
X234950Y142739D01*
X234971Y142754D01*
X235030Y142832D01*
X235093Y142906D01*
X235103Y142930D01*
X235118Y142951D01*
X235148Y143044D01*
X235185Y143134D01*
X235188Y143167D01*
X235194Y143185D01*
X235194Y143218D01*
X235203Y143301D01*
X235203Y161499D01*
X235188Y161595D01*
X235178Y161692D01*
X235168Y161716D01*
X235164Y161742D01*
X235118Y161828D01*
X235078Y161917D01*
X235061Y161936D01*
X235048Y161959D01*
X234978Y162026D01*
X234912Y162098D01*
X234889Y162111D01*
X234870Y162129D01*
X234782Y162170D01*
X234696Y162217D01*
X234671Y162221D01*
X234647Y162232D01*
X234550Y162243D01*
X234454Y162260D01*
X234428Y162256D01*
X234403Y162259D01*
X234307Y162239D01*
X234211Y162224D01*
X234188Y162213D01*
X234162Y162207D01*
X234079Y162157D01*
X233992Y162113D01*
X233973Y162094D01*
X233951Y162081D01*
X233888Y162007D01*
X233820Y161937D01*
X233804Y161909D01*
X233791Y161894D01*
X233779Y161863D01*
X233739Y161790D01*
X232487Y158769D01*
X229343Y155625D01*
X225235Y153923D01*
X206565Y153923D01*
X202457Y155625D01*
X199313Y158769D01*
X197611Y162877D01*
X197611Y167323D01*
X199313Y171431D01*
X202457Y174575D01*
X206565Y176277D01*
X225235Y176277D01*
X229343Y174575D01*
X232487Y171431D01*
X233739Y168410D01*
X233790Y168327D01*
X233836Y168241D01*
X233854Y168223D01*
X233868Y168201D01*
X233944Y168138D01*
X234014Y168071D01*
X234038Y168060D01*
X234058Y168044D01*
X234149Y168009D01*
X234237Y167968D01*
X234263Y167965D01*
X234287Y167956D01*
X234385Y167951D01*
X234481Y167941D01*
X234507Y167946D01*
X234533Y167945D01*
X234627Y167972D01*
X234722Y167993D01*
X234744Y168006D01*
X234769Y168014D01*
X234849Y168069D01*
X234933Y168119D01*
X234950Y168139D01*
X234971Y168154D01*
X235030Y168232D01*
X235093Y168306D01*
X235103Y168330D01*
X235118Y168351D01*
X235148Y168444D01*
X235185Y168534D01*
X235188Y168567D01*
X235194Y168585D01*
X235194Y168618D01*
X235203Y168701D01*
X235203Y186899D01*
X235188Y186995D01*
X235178Y187092D01*
X235168Y187116D01*
X235164Y187142D01*
X235118Y187228D01*
X235078Y187317D01*
X235061Y187336D01*
X235048Y187359D01*
X234978Y187426D01*
X234912Y187498D01*
X234889Y187511D01*
X234870Y187529D01*
X234782Y187570D01*
X234696Y187617D01*
X234671Y187621D01*
X234647Y187632D01*
X234550Y187643D01*
X234454Y187660D01*
X234428Y187656D01*
X234403Y187659D01*
X234307Y187639D01*
X234211Y187624D01*
X234188Y187613D01*
X234162Y187607D01*
X234079Y187557D01*
X233992Y187513D01*
X233973Y187494D01*
X233951Y187481D01*
X233888Y187407D01*
X233820Y187337D01*
X233804Y187309D01*
X233791Y187294D01*
X233779Y187263D01*
X233739Y187190D01*
X232487Y184169D01*
X229343Y181025D01*
X225235Y179323D01*
X206565Y179323D01*
X202457Y181025D01*
X199313Y184169D01*
X197611Y188277D01*
X197611Y192723D01*
X199313Y196831D01*
X202457Y199975D01*
X206565Y201677D01*
X225235Y201677D01*
X229343Y199975D01*
X232487Y196831D01*
X233739Y193810D01*
X233790Y193727D01*
X233836Y193641D01*
X233854Y193623D01*
X233868Y193601D01*
X233944Y193538D01*
X234014Y193471D01*
X234038Y193460D01*
X234058Y193444D01*
X234149Y193409D01*
X234237Y193368D01*
X234263Y193365D01*
X234287Y193356D01*
X234385Y193351D01*
X234481Y193341D01*
X234507Y193346D01*
X234533Y193345D01*
X234627Y193372D01*
X234722Y193393D01*
X234744Y193406D01*
X234769Y193414D01*
X234849Y193469D01*
X234933Y193519D01*
X234950Y193539D01*
X234971Y193554D01*
X235030Y193632D01*
X235093Y193706D01*
X235103Y193730D01*
X235118Y193751D01*
X235148Y193844D01*
X235185Y193934D01*
X235188Y193967D01*
X235194Y193985D01*
X235194Y194018D01*
X235203Y194101D01*
X235203Y212299D01*
X235188Y212395D01*
X235178Y212492D01*
X235168Y212516D01*
X235164Y212542D01*
X235118Y212628D01*
X235078Y212717D01*
X235061Y212736D01*
X235048Y212759D01*
X234978Y212826D01*
X234912Y212898D01*
X234889Y212911D01*
X234870Y212929D01*
X234782Y212970D01*
X234696Y213017D01*
X234671Y213021D01*
X234647Y213032D01*
X234550Y213043D01*
X234454Y213060D01*
X234428Y213056D01*
X234403Y213059D01*
X234307Y213039D01*
X234211Y213024D01*
X234188Y213013D01*
X234162Y213007D01*
X234079Y212957D01*
X233992Y212913D01*
X233973Y212894D01*
X233951Y212881D01*
X233888Y212807D01*
X233820Y212737D01*
X233804Y212709D01*
X233791Y212694D01*
X233779Y212663D01*
X233739Y212590D01*
X232487Y209569D01*
X229343Y206425D01*
X225235Y204723D01*
X206565Y204723D01*
X202457Y206425D01*
X199313Y209569D01*
X197611Y213677D01*
X197611Y218123D01*
X199313Y222231D01*
X202457Y225375D01*
X206565Y227077D01*
X225235Y227077D01*
X229343Y225375D01*
X232487Y222231D01*
X233739Y219210D01*
X233790Y219127D01*
X233836Y219041D01*
X233854Y219023D01*
X233868Y219001D01*
X233944Y218938D01*
X234014Y218871D01*
X234038Y218860D01*
X234058Y218844D01*
X234149Y218809D01*
X234237Y218768D01*
X234263Y218765D01*
X234287Y218756D01*
X234385Y218751D01*
X234481Y218741D01*
X234507Y218746D01*
X234533Y218745D01*
X234627Y218772D01*
X234722Y218793D01*
X234744Y218806D01*
X234769Y218814D01*
X234849Y218869D01*
X234933Y218919D01*
X234950Y218939D01*
X234971Y218954D01*
X235030Y219032D01*
X235093Y219106D01*
X235103Y219130D01*
X235118Y219151D01*
X235148Y219244D01*
X235185Y219334D01*
X235188Y219367D01*
X235194Y219385D01*
X235194Y219418D01*
X235203Y219501D01*
X235203Y260666D01*
X235189Y260756D01*
X235181Y260847D01*
X235169Y260877D01*
X235164Y260909D01*
X235121Y260989D01*
X235085Y261073D01*
X235059Y261105D01*
X235048Y261126D01*
X235025Y261148D01*
X234980Y261204D01*
X234268Y261917D01*
X234230Y261944D01*
X234199Y261978D01*
X234154Y262003D01*
X234136Y262018D01*
X234116Y262026D01*
X234068Y262060D01*
X234024Y262074D01*
X233984Y262096D01*
X233908Y262110D01*
X233907Y262110D01*
X233833Y262133D01*
X233787Y262132D01*
X233742Y262140D01*
X233665Y262128D01*
X233587Y262126D01*
X233544Y262111D01*
X233498Y262104D01*
X233429Y262069D01*
X233356Y262042D01*
X233320Y262013D01*
X233279Y261993D01*
X233225Y261937D01*
X233164Y261888D01*
X233139Y261850D01*
X233107Y261817D01*
X233041Y261697D01*
X233031Y261681D01*
X233030Y261677D01*
X233026Y261670D01*
X232487Y260369D01*
X229343Y257225D01*
X225235Y255523D01*
X206565Y255523D01*
X202457Y257225D01*
X199313Y260369D01*
X197611Y264477D01*
X197611Y268923D01*
X199313Y273031D01*
X202457Y276175D01*
X206565Y277877D01*
X225235Y277877D01*
X229343Y276175D01*
X232487Y273031D01*
X233026Y271730D01*
X233050Y271691D01*
X233066Y271648D01*
X233113Y271589D01*
X233146Y271534D01*
X233149Y271531D01*
X233156Y271521D01*
X233191Y271492D01*
X233220Y271456D01*
X233285Y271414D01*
X233325Y271381D01*
X233333Y271374D01*
X233334Y271374D01*
X233345Y271364D01*
X233388Y271348D01*
X233427Y271323D01*
X233502Y271304D01*
X233575Y271276D01*
X233621Y271274D01*
X233665Y271263D01*
X233706Y271266D01*
X233728Y271263D01*
X233733Y271263D01*
X233761Y271268D01*
X233821Y271266D01*
X233865Y271278D01*
X233910Y271282D01*
X233951Y271299D01*
X233976Y271303D01*
X234006Y271319D01*
X234057Y271334D01*
X234095Y271360D01*
X234137Y271378D01*
X234175Y271409D01*
X234193Y271418D01*
X234212Y271439D01*
X234243Y271464D01*
X234259Y271474D01*
X234262Y271478D01*
X234268Y271483D01*
X236567Y273783D01*
X239638Y275055D01*
X242962Y275055D01*
X246033Y273783D01*
X248383Y271433D01*
X249655Y268362D01*
X249655Y265038D01*
X248383Y261967D01*
X247620Y261204D01*
X247567Y261130D01*
X247507Y261061D01*
X247495Y261031D01*
X247476Y261005D01*
X247449Y260918D01*
X247415Y260833D01*
X247411Y260792D01*
X247404Y260769D01*
X247405Y260737D01*
X247397Y260666D01*
X247397Y101901D01*
X247411Y101811D01*
X247419Y101720D01*
X247431Y101690D01*
X247436Y101658D01*
X247479Y101577D01*
X247515Y101493D01*
X247541Y101461D01*
X247552Y101441D01*
X247575Y101418D01*
X247620Y101362D01*
X314203Y34779D01*
X314298Y34711D01*
X314392Y34641D01*
X314398Y34639D01*
X314403Y34635D01*
X314514Y34601D01*
X314626Y34565D01*
X314632Y34565D01*
X314638Y34563D01*
X314755Y34566D01*
X314872Y34567D01*
X314879Y34569D01*
X314884Y34569D01*
X314901Y34576D01*
X315033Y34614D01*
X316092Y35053D01*
X321448Y35053D01*
X326396Y33003D01*
X330183Y29216D01*
X330767Y27807D01*
X330804Y27746D01*
X330834Y27681D01*
X330869Y27642D01*
X330896Y27598D01*
X330952Y27552D01*
X331000Y27500D01*
X331046Y27475D01*
X331086Y27441D01*
X331153Y27416D01*
X331216Y27381D01*
X331267Y27372D01*
X331315Y27353D01*
X331387Y27350D01*
X331458Y27337D01*
X331509Y27345D01*
X331561Y27343D01*
X331630Y27363D01*
X331701Y27373D01*
X331747Y27397D01*
X331797Y27411D01*
X331856Y27452D01*
X331920Y27485D01*
X331957Y27522D01*
X331999Y27552D01*
X332042Y27609D01*
X332092Y27660D01*
X332127Y27723D01*
X332146Y27749D01*
X332153Y27771D01*
X332173Y27807D01*
X332757Y29216D01*
X336544Y33003D01*
X337603Y33442D01*
X337703Y33504D01*
X337803Y33563D01*
X337807Y33568D01*
X337812Y33572D01*
X337887Y33662D01*
X337963Y33750D01*
X337965Y33756D01*
X337969Y33761D01*
X338011Y33869D01*
X338055Y33979D01*
X338056Y33986D01*
X338057Y33991D01*
X338058Y34009D01*
X338073Y34145D01*
X338073Y72089D01*
X338059Y72179D01*
X338051Y72270D01*
X338039Y72300D01*
X338034Y72332D01*
X337991Y72413D01*
X337955Y72497D01*
X337929Y72529D01*
X337918Y72549D01*
X337895Y72572D01*
X337850Y72628D01*
X315198Y95280D01*
X315124Y95333D01*
X315054Y95393D01*
X315024Y95405D01*
X314998Y95424D01*
X314911Y95451D01*
X314826Y95485D01*
X314785Y95489D01*
X314763Y95496D01*
X314731Y95495D01*
X314659Y95503D01*
X309714Y95503D01*
X309668Y95496D01*
X309623Y95498D01*
X309548Y95476D01*
X309471Y95464D01*
X309430Y95442D01*
X309386Y95429D01*
X309322Y95385D01*
X309254Y95348D01*
X309222Y95315D01*
X309184Y95289D01*
X309138Y95226D01*
X309084Y95170D01*
X309065Y95128D01*
X309038Y95092D01*
X309013Y95018D01*
X308981Y94947D01*
X308976Y94901D01*
X308961Y94858D01*
X308962Y94780D01*
X308954Y94703D01*
X308963Y94658D01*
X308964Y94612D01*
X309002Y94480D01*
X309006Y94462D01*
X309008Y94458D01*
X309010Y94451D01*
X310389Y91123D01*
X310389Y86677D01*
X308687Y82569D01*
X305543Y79425D01*
X301435Y77723D01*
X282765Y77723D01*
X278657Y79425D01*
X275513Y82569D01*
X273811Y86677D01*
X273811Y91123D01*
X275513Y95231D01*
X275792Y95510D01*
X275803Y95526D01*
X275819Y95538D01*
X275875Y95626D01*
X275935Y95710D01*
X275941Y95729D01*
X275952Y95745D01*
X275977Y95846D01*
X276007Y95945D01*
X276007Y95965D01*
X276012Y95984D01*
X276004Y96087D01*
X276001Y96191D01*
X275994Y96209D01*
X275993Y96229D01*
X275952Y96324D01*
X275917Y96422D01*
X275904Y96437D01*
X275896Y96455D01*
X275792Y96586D01*
X274124Y98254D01*
X261531Y110846D01*
X260603Y113087D01*
X260603Y209866D01*
X260589Y209956D01*
X260581Y210047D01*
X260569Y210077D01*
X260564Y210109D01*
X260521Y210189D01*
X260485Y210273D01*
X260459Y210305D01*
X260448Y210326D01*
X260425Y210348D01*
X260380Y210404D01*
X259617Y211167D01*
X258345Y214238D01*
X258345Y217562D01*
X259617Y220633D01*
X261967Y222983D01*
X265038Y224255D01*
X268362Y224255D01*
X271433Y222983D01*
X273732Y220683D01*
X273770Y220656D01*
X273801Y220622D01*
X273869Y220585D01*
X273932Y220540D01*
X273976Y220526D01*
X274016Y220504D01*
X274093Y220490D01*
X274167Y220467D01*
X274213Y220468D01*
X274258Y220460D01*
X274335Y220472D01*
X274413Y220474D01*
X274456Y220489D01*
X274502Y220496D01*
X274571Y220531D01*
X274644Y220558D01*
X274680Y220587D01*
X274721Y220607D01*
X274775Y220663D01*
X274836Y220712D01*
X274861Y220750D01*
X274893Y220783D01*
X274959Y220903D01*
X274969Y220919D01*
X274970Y220923D01*
X274974Y220930D01*
X275513Y222231D01*
X278657Y225375D01*
X282765Y227077D01*
X301435Y227077D01*
X305543Y225375D01*
X307183Y223736D01*
X307199Y223724D01*
X307211Y223708D01*
X307299Y223652D01*
X307382Y223592D01*
X307401Y223586D01*
X307418Y223575D01*
X307519Y223550D01*
X307618Y223520D01*
X307637Y223520D01*
X307657Y223515D01*
X307760Y223523D01*
X307863Y223526D01*
X307882Y223533D01*
X307902Y223534D01*
X307997Y223575D01*
X308094Y223610D01*
X308110Y223623D01*
X308128Y223631D01*
X308259Y223736D01*
X312870Y228347D01*
X322130Y228347D01*
X328677Y221800D01*
X328677Y212540D01*
X322130Y205993D01*
X312870Y205993D01*
X309529Y209334D01*
X309513Y209346D01*
X309501Y209362D01*
X309413Y209418D01*
X309330Y209478D01*
X309311Y209484D01*
X309294Y209495D01*
X309193Y209520D01*
X309094Y209550D01*
X309075Y209550D01*
X309055Y209555D01*
X308952Y209547D01*
X308849Y209544D01*
X308830Y209537D01*
X308810Y209536D01*
X308715Y209495D01*
X308618Y209460D01*
X308602Y209447D01*
X308584Y209439D01*
X308453Y209334D01*
X305543Y206425D01*
X301435Y204723D01*
X282765Y204723D01*
X278657Y206425D01*
X275513Y209569D01*
X274974Y210870D01*
X274950Y210909D01*
X274934Y210952D01*
X274885Y211013D01*
X274844Y211079D01*
X274809Y211108D01*
X274780Y211144D01*
X274715Y211186D01*
X274655Y211236D01*
X274612Y211252D01*
X274573Y211277D01*
X274498Y211296D01*
X274425Y211324D01*
X274379Y211326D01*
X274335Y211337D01*
X274257Y211331D01*
X274179Y211334D01*
X274135Y211322D01*
X274090Y211318D01*
X274018Y211288D01*
X273943Y211266D01*
X273905Y211240D01*
X273863Y211222D01*
X273757Y211136D01*
X273741Y211126D01*
X273738Y211122D01*
X273732Y211117D01*
X273020Y210404D01*
X272967Y210330D01*
X272907Y210261D01*
X272895Y210231D01*
X272876Y210205D01*
X272849Y210117D01*
X272815Y210033D01*
X272811Y209992D01*
X272804Y209969D01*
X272805Y209937D01*
X272797Y209866D01*
X272797Y168701D01*
X272812Y168605D01*
X272822Y168508D01*
X272832Y168484D01*
X272836Y168458D01*
X272882Y168372D01*
X272922Y168283D01*
X272939Y168264D01*
X272952Y168241D01*
X273022Y168174D01*
X273088Y168102D01*
X273111Y168089D01*
X273130Y168071D01*
X273218Y168030D01*
X273304Y167983D01*
X273329Y167979D01*
X273353Y167968D01*
X273450Y167957D01*
X273546Y167940D01*
X273572Y167944D01*
X273597Y167941D01*
X273693Y167961D01*
X273789Y167976D01*
X273812Y167987D01*
X273838Y167993D01*
X273921Y168043D01*
X274008Y168087D01*
X274027Y168106D01*
X274049Y168119D01*
X274112Y168193D01*
X274180Y168263D01*
X274196Y168291D01*
X274209Y168306D01*
X274221Y168337D01*
X274261Y168410D01*
X275513Y171431D01*
X278657Y174575D01*
X282765Y176277D01*
X301435Y176277D01*
X305543Y174575D01*
X308687Y171431D01*
X310389Y167323D01*
X310389Y162877D01*
X308687Y158769D01*
X305543Y155625D01*
X301435Y153923D01*
X282765Y153923D01*
X278657Y155625D01*
X275513Y158769D01*
X274261Y161790D01*
X274210Y161873D01*
X274164Y161959D01*
X274146Y161977D01*
X274132Y161999D01*
X274056Y162062D01*
X273986Y162129D01*
X273962Y162140D01*
X273942Y162156D01*
X273851Y162191D01*
X273763Y162232D01*
X273737Y162235D01*
X273713Y162244D01*
X273615Y162249D01*
X273519Y162259D01*
X273493Y162254D01*
X273467Y162255D01*
X273373Y162228D01*
X273278Y162207D01*
X273256Y162194D01*
X273231Y162186D01*
X273151Y162131D01*
X273067Y162081D01*
X273050Y162061D01*
X273029Y162046D01*
X272970Y161968D01*
X272907Y161894D01*
X272897Y161870D01*
X272882Y161849D01*
X272852Y161756D01*
X272815Y161666D01*
X272812Y161633D01*
X272806Y161615D01*
X272806Y161582D01*
X272797Y161499D01*
X272797Y143301D01*
X272812Y143205D01*
X272822Y143108D01*
X272832Y143084D01*
X272836Y143058D01*
X272882Y142972D01*
X272922Y142883D01*
X272939Y142864D01*
X272952Y142841D01*
X273022Y142774D01*
X273088Y142702D01*
X273111Y142689D01*
X273130Y142671D01*
X273218Y142630D01*
X273304Y142583D01*
X273329Y142579D01*
X273353Y142568D01*
X273450Y142557D01*
X273546Y142540D01*
X273572Y142544D01*
X273597Y142541D01*
X273693Y142561D01*
X273789Y142576D01*
X273812Y142587D01*
X273838Y142593D01*
X273921Y142643D01*
X274008Y142687D01*
X274027Y142706D01*
X274049Y142719D01*
X274112Y142793D01*
X274180Y142863D01*
X274196Y142891D01*
X274209Y142906D01*
X274221Y142937D01*
X274261Y143010D01*
X275513Y146031D01*
X278657Y149175D01*
X282765Y150877D01*
X301435Y150877D01*
X305543Y149175D01*
X308687Y146031D01*
X310389Y141923D01*
X310389Y137477D01*
X308687Y133369D01*
X305543Y130225D01*
X301435Y128523D01*
X282765Y128523D01*
X278657Y130225D01*
X275513Y133369D01*
X274261Y136390D01*
X274210Y136473D01*
X274164Y136559D01*
X274146Y136577D01*
X274132Y136599D01*
X274056Y136662D01*
X273986Y136729D01*
X273962Y136740D01*
X273942Y136756D01*
X273851Y136791D01*
X273763Y136832D01*
X273737Y136835D01*
X273713Y136844D01*
X273615Y136849D01*
X273519Y136859D01*
X273493Y136854D01*
X273467Y136855D01*
X273373Y136828D01*
X273278Y136807D01*
X273256Y136794D01*
X273231Y136786D01*
X273151Y136731D01*
X273067Y136681D01*
X273050Y136661D01*
X273029Y136646D01*
X272970Y136568D01*
X272907Y136494D01*
X272897Y136470D01*
X272882Y136449D01*
X272852Y136356D01*
X272815Y136266D01*
X272812Y136233D01*
X272806Y136215D01*
X272806Y136182D01*
X272797Y136099D01*
X272797Y117901D01*
X272812Y117805D01*
X272822Y117708D01*
X272832Y117684D01*
X272836Y117658D01*
X272882Y117572D01*
X272922Y117483D01*
X272939Y117464D01*
X272952Y117441D01*
X273022Y117374D01*
X273088Y117302D01*
X273111Y117289D01*
X273130Y117271D01*
X273218Y117230D01*
X273304Y117183D01*
X273329Y117179D01*
X273353Y117168D01*
X273450Y117157D01*
X273546Y117140D01*
X273572Y117144D01*
X273597Y117141D01*
X273693Y117161D01*
X273789Y117176D01*
X273812Y117187D01*
X273838Y117193D01*
X273921Y117243D01*
X274008Y117287D01*
X274027Y117306D01*
X274049Y117319D01*
X274112Y117393D01*
X274180Y117463D01*
X274196Y117491D01*
X274209Y117506D01*
X274221Y117537D01*
X274261Y117610D01*
X275513Y120631D01*
X278657Y123775D01*
X282765Y125477D01*
X301435Y125477D01*
X305543Y123775D01*
X308687Y120631D01*
X310389Y116523D01*
X310389Y112077D01*
X309010Y108749D01*
X309000Y108705D01*
X308981Y108663D01*
X308972Y108586D01*
X308954Y108510D01*
X308959Y108464D01*
X308954Y108419D01*
X308970Y108342D01*
X308977Y108265D01*
X308996Y108223D01*
X309006Y108178D01*
X309046Y108111D01*
X309077Y108040D01*
X309108Y108006D01*
X309132Y107967D01*
X309191Y107916D01*
X309244Y107859D01*
X309284Y107837D01*
X309319Y107807D01*
X309391Y107778D01*
X309459Y107741D01*
X309504Y107732D01*
X309547Y107715D01*
X309683Y107700D01*
X309701Y107697D01*
X309706Y107698D01*
X309714Y107697D01*
X318713Y107697D01*
X320954Y106769D01*
X349339Y78384D01*
X350267Y76143D01*
X350267Y34145D01*
X350286Y34031D01*
X350303Y33914D01*
X350305Y33909D01*
X350306Y33902D01*
X350361Y33800D01*
X350414Y33695D01*
X350419Y33691D01*
X350422Y33685D01*
X350506Y33605D01*
X350590Y33523D01*
X350596Y33519D01*
X350600Y33516D01*
X350617Y33508D01*
X350737Y33442D01*
X351796Y33003D01*
X355583Y29216D01*
X356167Y27807D01*
X356204Y27746D01*
X356234Y27681D01*
X356269Y27642D01*
X356296Y27598D01*
X356352Y27552D01*
X356400Y27500D01*
X356446Y27475D01*
X356486Y27441D01*
X356553Y27416D01*
X356616Y27381D01*
X356667Y27372D01*
X356715Y27353D01*
X356787Y27350D01*
X356858Y27337D01*
X356909Y27345D01*
X356961Y27343D01*
X357030Y27363D01*
X357101Y27373D01*
X357147Y27397D01*
X357197Y27411D01*
X357256Y27452D01*
X357320Y27485D01*
X357357Y27522D01*
X357399Y27552D01*
X357442Y27609D01*
X357492Y27660D01*
X357527Y27723D01*
X357546Y27749D01*
X357553Y27771D01*
X357573Y27807D01*
X358157Y29216D01*
X361944Y33003D01*
X366892Y35053D01*
X372248Y35053D01*
X377196Y33003D01*
X380983Y29216D01*
X381567Y27807D01*
X381604Y27746D01*
X381634Y27681D01*
X381669Y27642D01*
X381696Y27598D01*
X381752Y27552D01*
X381800Y27500D01*
X381846Y27475D01*
X381886Y27441D01*
X381953Y27416D01*
X382016Y27381D01*
X382067Y27372D01*
X382115Y27353D01*
X382187Y27350D01*
X382258Y27337D01*
X382309Y27345D01*
X382361Y27343D01*
X382430Y27363D01*
X382501Y27373D01*
X382547Y27397D01*
X382597Y27411D01*
X382656Y27452D01*
X382720Y27485D01*
X382757Y27522D01*
X382799Y27552D01*
X382842Y27609D01*
X382892Y27660D01*
X382927Y27723D01*
X382946Y27749D01*
X382953Y27771D01*
X382973Y27807D01*
X383557Y29216D01*
X387344Y33003D01*
X392292Y35053D01*
X397648Y35053D01*
X402596Y33003D01*
X406383Y29216D01*
X407786Y25830D01*
X407839Y25744D01*
X407887Y25655D01*
X407904Y25640D01*
X407915Y25621D01*
X407993Y25557D01*
X408067Y25488D01*
X408088Y25479D01*
X408105Y25464D01*
X408199Y25428D01*
X408292Y25386D01*
X408314Y25384D01*
X408334Y25376D01*
X408435Y25372D01*
X408536Y25362D01*
X408558Y25367D01*
X408580Y25366D01*
X408677Y25394D01*
X408776Y25417D01*
X408795Y25428D01*
X408816Y25434D01*
X408899Y25492D01*
X408986Y25545D01*
X409000Y25562D01*
X409018Y25575D01*
X409079Y25656D01*
X409144Y25734D01*
X409155Y25758D01*
X409165Y25772D01*
X409175Y25803D01*
X409213Y25886D01*
X409306Y26173D01*
X410159Y27847D01*
X411264Y29368D01*
X412592Y30696D01*
X414113Y31801D01*
X415787Y32654D01*
X417574Y33235D01*
X418847Y33436D01*
X418847Y22352D01*
X418850Y22332D01*
X418848Y22313D01*
X418870Y22211D01*
X418887Y22109D01*
X418896Y22092D01*
X418900Y22072D01*
X418953Y21983D01*
X419002Y21892D01*
X419016Y21878D01*
X419026Y21861D01*
X419105Y21794D01*
X419180Y21723D01*
X419198Y21714D01*
X419213Y21701D01*
X419309Y21663D01*
X419403Y21619D01*
X419423Y21617D01*
X419441Y21609D01*
X419608Y21591D01*
X420371Y21591D01*
X420371Y21589D01*
X419608Y21589D01*
X419588Y21586D01*
X419569Y21588D01*
X419467Y21566D01*
X419365Y21549D01*
X419348Y21540D01*
X419328Y21536D01*
X419239Y21483D01*
X419148Y21434D01*
X419134Y21420D01*
X419117Y21410D01*
X419050Y21331D01*
X418979Y21256D01*
X418970Y21238D01*
X418957Y21223D01*
X418918Y21127D01*
X418875Y21033D01*
X418873Y21013D01*
X418865Y20995D01*
X418847Y20828D01*
X418847Y9744D01*
X417574Y9945D01*
X415787Y10526D01*
X414113Y11379D01*
X412592Y12484D01*
X411264Y13812D01*
X410159Y15333D01*
X409306Y17007D01*
X409213Y17294D01*
X409166Y17384D01*
X409125Y17476D01*
X409110Y17492D01*
X409100Y17512D01*
X409027Y17583D01*
X408959Y17657D01*
X408939Y17668D01*
X408923Y17683D01*
X408832Y17727D01*
X408743Y17776D01*
X408721Y17780D01*
X408701Y17789D01*
X408601Y17802D01*
X408501Y17820D01*
X408479Y17816D01*
X408457Y17819D01*
X408358Y17799D01*
X408258Y17784D01*
X408238Y17774D01*
X408216Y17769D01*
X408129Y17718D01*
X408039Y17672D01*
X408023Y17656D01*
X408004Y17645D01*
X407937Y17569D01*
X407866Y17497D01*
X407853Y17473D01*
X407842Y17460D01*
X407830Y17430D01*
X407786Y17350D01*
X406383Y13964D01*
X402596Y10177D01*
X397648Y8127D01*
X392292Y8127D01*
X387344Y10177D01*
X383557Y13964D01*
X382973Y15373D01*
X382935Y15434D01*
X382906Y15499D01*
X382871Y15538D01*
X382844Y15582D01*
X382788Y15628D01*
X382740Y15680D01*
X382694Y15705D01*
X382654Y15739D01*
X382587Y15764D01*
X382524Y15799D01*
X382473Y15808D01*
X382425Y15827D01*
X382353Y15830D01*
X382282Y15843D01*
X382231Y15835D01*
X382179Y15837D01*
X382110Y15817D01*
X382039Y15807D01*
X381993Y15783D01*
X381943Y15769D01*
X381884Y15728D01*
X381820Y15695D01*
X381783Y15658D01*
X381741Y15628D01*
X381698Y15571D01*
X381648Y15520D01*
X381613Y15457D01*
X381594Y15431D01*
X381587Y15409D01*
X381567Y15373D01*
X380983Y13964D01*
X377196Y10177D01*
X372248Y8127D01*
X366892Y8127D01*
X361944Y10177D01*
X358157Y13964D01*
X357573Y15373D01*
X357535Y15434D01*
X357506Y15499D01*
X357471Y15538D01*
X357444Y15582D01*
X357388Y15628D01*
X357340Y15680D01*
X357294Y15705D01*
X357254Y15739D01*
X357187Y15764D01*
X357124Y15799D01*
X357073Y15808D01*
X357025Y15827D01*
X356953Y15830D01*
X356882Y15843D01*
X356831Y15835D01*
X356779Y15837D01*
X356710Y15817D01*
X356639Y15807D01*
X356593Y15783D01*
X356543Y15769D01*
X356484Y15728D01*
X356420Y15695D01*
X356383Y15658D01*
X356341Y15628D01*
X356298Y15571D01*
X356248Y15520D01*
X356213Y15457D01*
X356194Y15431D01*
X356187Y15409D01*
X356167Y15373D01*
X355583Y13964D01*
X351796Y10177D01*
X346848Y8127D01*
X341492Y8127D01*
X336544Y10177D01*
X332757Y13964D01*
X332173Y15373D01*
X332135Y15434D01*
X332106Y15499D01*
X332071Y15538D01*
X332044Y15582D01*
X331988Y15628D01*
X331940Y15680D01*
X331894Y15705D01*
X331854Y15739D01*
X331787Y15764D01*
X331724Y15799D01*
X331673Y15808D01*
X331625Y15827D01*
X331553Y15830D01*
X331482Y15843D01*
X331431Y15835D01*
X331379Y15837D01*
X331310Y15817D01*
X331239Y15807D01*
X331193Y15783D01*
X331143Y15769D01*
X331084Y15728D01*
X331020Y15695D01*
X330983Y15658D01*
X330941Y15628D01*
X330898Y15571D01*
X330848Y15520D01*
X330813Y15457D01*
X330794Y15431D01*
X330787Y15409D01*
X330767Y15373D01*
X330183Y13964D01*
X326396Y10177D01*
X321448Y8127D01*
X316092Y8127D01*
X311144Y10177D01*
X307357Y13964D01*
X306773Y15373D01*
X306735Y15434D01*
X306706Y15499D01*
X306671Y15538D01*
X306644Y15582D01*
X306588Y15628D01*
X306540Y15680D01*
X306494Y15705D01*
X306454Y15739D01*
X306387Y15764D01*
X306324Y15799D01*
X306273Y15808D01*
X306225Y15827D01*
X306153Y15830D01*
X306082Y15843D01*
X306031Y15835D01*
X305979Y15837D01*
X305910Y15817D01*
X305839Y15807D01*
X305793Y15783D01*
X305743Y15769D01*
X305684Y15728D01*
X305620Y15695D01*
X305583Y15658D01*
X305541Y15628D01*
X305498Y15571D01*
X305448Y15520D01*
X305413Y15457D01*
X305394Y15431D01*
X305387Y15409D01*
X305367Y15373D01*
X304783Y13964D01*
X300996Y10177D01*
X296048Y8127D01*
X290692Y8127D01*
G37*
%LPD*%
%LPC*%
G36*
X206565Y306323D02*
X206565Y306323D01*
X202457Y308025D01*
X199313Y311169D01*
X197611Y315277D01*
X197611Y319723D01*
X199313Y323831D01*
X202457Y326975D01*
X206565Y328677D01*
X225235Y328677D01*
X229343Y326975D01*
X232499Y323820D01*
X232573Y323767D01*
X232642Y323707D01*
X232672Y323695D01*
X232698Y323676D01*
X232785Y323649D01*
X232870Y323615D01*
X232911Y323611D01*
X232933Y323604D01*
X232966Y323605D01*
X233037Y323597D01*
X238459Y323597D01*
X238549Y323611D01*
X238640Y323619D01*
X238670Y323631D01*
X238702Y323636D01*
X238783Y323679D01*
X238867Y323715D01*
X238899Y323741D01*
X238919Y323752D01*
X238942Y323775D01*
X238998Y323820D01*
X260380Y345202D01*
X260433Y345276D01*
X260493Y345346D01*
X260505Y345376D01*
X260524Y345402D01*
X260551Y345489D01*
X260585Y345574D01*
X260589Y345615D01*
X260596Y345637D01*
X260595Y345669D01*
X260603Y345741D01*
X260603Y433013D01*
X261531Y435254D01*
X278876Y452598D01*
X278917Y452656D01*
X278967Y452708D01*
X278989Y452755D01*
X279019Y452797D01*
X279040Y452866D01*
X279071Y452931D01*
X279076Y452983D01*
X279092Y453033D01*
X279090Y453104D01*
X279098Y453175D01*
X279087Y453226D01*
X279085Y453278D01*
X279061Y453346D01*
X279045Y453416D01*
X279019Y453461D01*
X279001Y453509D01*
X278956Y453565D01*
X278919Y453627D01*
X278880Y453661D01*
X278847Y453701D01*
X278787Y453740D01*
X278732Y453787D01*
X278684Y453806D01*
X278640Y453834D01*
X278571Y453852D01*
X278504Y453879D01*
X278433Y453887D01*
X278402Y453895D01*
X278378Y453893D01*
X278337Y453897D01*
X274182Y453897D01*
X273123Y454336D01*
X273009Y454363D01*
X272896Y454391D01*
X272889Y454391D01*
X272883Y454392D01*
X272767Y454381D01*
X272650Y454372D01*
X272645Y454370D01*
X272638Y454369D01*
X272531Y454321D01*
X272424Y454276D01*
X272418Y454271D01*
X272414Y454269D01*
X272400Y454256D01*
X272293Y454171D01*
X247620Y429498D01*
X247567Y429424D01*
X247507Y429354D01*
X247495Y429324D01*
X247476Y429298D01*
X247449Y429211D01*
X247415Y429126D01*
X247411Y429085D01*
X247404Y429063D01*
X247405Y429031D01*
X247397Y428959D01*
X247397Y354387D01*
X246469Y352146D01*
X233723Y339401D01*
X233685Y339348D01*
X233639Y339301D01*
X233599Y339228D01*
X233579Y339201D01*
X233574Y339183D01*
X233558Y339154D01*
X232487Y336569D01*
X229343Y333425D01*
X225235Y331723D01*
X206565Y331723D01*
X202457Y333425D01*
X199313Y336569D01*
X197611Y340677D01*
X197611Y345123D01*
X199313Y349231D01*
X202457Y352375D01*
X206565Y354077D01*
X225235Y354077D01*
X228951Y352538D01*
X229064Y352511D01*
X229178Y352482D01*
X229184Y352483D01*
X229190Y352481D01*
X229307Y352492D01*
X229423Y352502D01*
X229429Y352504D01*
X229435Y352505D01*
X229543Y352552D01*
X229650Y352598D01*
X229655Y352602D01*
X229660Y352605D01*
X229674Y352617D01*
X229781Y352703D01*
X234980Y357902D01*
X235033Y357976D01*
X235093Y358046D01*
X235105Y358076D01*
X235124Y358102D01*
X235151Y358189D01*
X235185Y358274D01*
X235189Y358315D01*
X235196Y358337D01*
X235195Y358369D01*
X235203Y358441D01*
X235203Y364699D01*
X235188Y364795D01*
X235178Y364892D01*
X235168Y364916D01*
X235164Y364942D01*
X235118Y365028D01*
X235078Y365117D01*
X235061Y365136D01*
X235048Y365159D01*
X234978Y365226D01*
X234912Y365298D01*
X234889Y365311D01*
X234870Y365329D01*
X234782Y365370D01*
X234696Y365417D01*
X234671Y365421D01*
X234647Y365432D01*
X234550Y365443D01*
X234454Y365460D01*
X234428Y365456D01*
X234403Y365459D01*
X234307Y365439D01*
X234211Y365424D01*
X234188Y365413D01*
X234162Y365407D01*
X234079Y365357D01*
X233992Y365313D01*
X233973Y365294D01*
X233951Y365281D01*
X233888Y365207D01*
X233820Y365137D01*
X233804Y365109D01*
X233791Y365094D01*
X233779Y365063D01*
X233739Y364990D01*
X232487Y361969D01*
X229343Y358825D01*
X225235Y357123D01*
X206565Y357123D01*
X202457Y358825D01*
X199313Y361969D01*
X197611Y366077D01*
X197611Y370523D01*
X199313Y374631D01*
X202457Y377775D01*
X206565Y379477D01*
X225235Y379477D01*
X229343Y377775D01*
X232487Y374631D01*
X233739Y371610D01*
X233790Y371527D01*
X233836Y371441D01*
X233854Y371423D01*
X233868Y371401D01*
X233944Y371338D01*
X234014Y371271D01*
X234038Y371260D01*
X234058Y371244D01*
X234149Y371209D01*
X234237Y371168D01*
X234263Y371165D01*
X234287Y371156D01*
X234385Y371151D01*
X234481Y371141D01*
X234507Y371146D01*
X234533Y371145D01*
X234627Y371172D01*
X234722Y371193D01*
X234744Y371206D01*
X234769Y371214D01*
X234849Y371269D01*
X234933Y371319D01*
X234950Y371339D01*
X234971Y371354D01*
X235030Y371432D01*
X235093Y371506D01*
X235103Y371530D01*
X235118Y371551D01*
X235148Y371644D01*
X235185Y371734D01*
X235188Y371767D01*
X235194Y371785D01*
X235194Y371818D01*
X235203Y371901D01*
X235203Y390099D01*
X235188Y390195D01*
X235178Y390292D01*
X235168Y390316D01*
X235164Y390342D01*
X235118Y390428D01*
X235078Y390517D01*
X235061Y390536D01*
X235048Y390559D01*
X234978Y390626D01*
X234912Y390698D01*
X234889Y390711D01*
X234870Y390729D01*
X234782Y390770D01*
X234696Y390817D01*
X234671Y390821D01*
X234647Y390832D01*
X234550Y390843D01*
X234454Y390860D01*
X234428Y390856D01*
X234403Y390859D01*
X234307Y390839D01*
X234211Y390824D01*
X234188Y390813D01*
X234162Y390807D01*
X234079Y390757D01*
X233992Y390713D01*
X233973Y390694D01*
X233951Y390681D01*
X233888Y390607D01*
X233820Y390537D01*
X233804Y390509D01*
X233791Y390494D01*
X233779Y390463D01*
X233739Y390390D01*
X232487Y387369D01*
X229343Y384225D01*
X225235Y382523D01*
X206565Y382523D01*
X202457Y384225D01*
X199313Y387369D01*
X197611Y391477D01*
X197611Y395923D01*
X199313Y400031D01*
X202457Y403175D01*
X206565Y404877D01*
X225235Y404877D01*
X229343Y403175D01*
X232487Y400031D01*
X233739Y397010D01*
X233790Y396927D01*
X233836Y396841D01*
X233854Y396823D01*
X233868Y396801D01*
X233944Y396738D01*
X234014Y396671D01*
X234038Y396660D01*
X234058Y396644D01*
X234149Y396609D01*
X234237Y396568D01*
X234263Y396565D01*
X234287Y396556D01*
X234385Y396551D01*
X234481Y396541D01*
X234507Y396546D01*
X234533Y396545D01*
X234627Y396572D01*
X234722Y396593D01*
X234744Y396606D01*
X234769Y396614D01*
X234849Y396669D01*
X234933Y396719D01*
X234950Y396739D01*
X234971Y396754D01*
X235030Y396832D01*
X235093Y396906D01*
X235103Y396930D01*
X235118Y396951D01*
X235148Y397044D01*
X235185Y397134D01*
X235188Y397167D01*
X235194Y397185D01*
X235194Y397218D01*
X235203Y397301D01*
X235203Y415499D01*
X235188Y415595D01*
X235178Y415692D01*
X235168Y415716D01*
X235164Y415742D01*
X235118Y415828D01*
X235078Y415917D01*
X235061Y415936D01*
X235048Y415959D01*
X234978Y416026D01*
X234912Y416098D01*
X234889Y416111D01*
X234870Y416129D01*
X234782Y416170D01*
X234696Y416217D01*
X234671Y416221D01*
X234647Y416232D01*
X234550Y416243D01*
X234454Y416260D01*
X234428Y416256D01*
X234403Y416259D01*
X234307Y416239D01*
X234211Y416224D01*
X234188Y416213D01*
X234162Y416207D01*
X234079Y416157D01*
X233992Y416113D01*
X233973Y416094D01*
X233951Y416081D01*
X233888Y416007D01*
X233820Y415937D01*
X233804Y415909D01*
X233791Y415894D01*
X233779Y415863D01*
X233739Y415790D01*
X232487Y412769D01*
X229343Y409625D01*
X225235Y407923D01*
X206565Y407923D01*
X202457Y409625D01*
X199313Y412769D01*
X197611Y416877D01*
X197611Y421323D01*
X199313Y425431D01*
X202457Y428575D01*
X206565Y430277D01*
X209042Y430277D01*
X209062Y430280D01*
X209081Y430278D01*
X209183Y430300D01*
X209285Y430316D01*
X209302Y430326D01*
X209322Y430330D01*
X209411Y430383D01*
X209502Y430432D01*
X209516Y430446D01*
X209533Y430456D01*
X209600Y430535D01*
X209672Y430610D01*
X209680Y430628D01*
X209693Y430643D01*
X209732Y430739D01*
X209775Y430833D01*
X209777Y430853D01*
X209785Y430871D01*
X209803Y431038D01*
X209803Y449279D01*
X209789Y449369D01*
X209781Y449460D01*
X209769Y449490D01*
X209764Y449522D01*
X209721Y449603D01*
X209685Y449687D01*
X209659Y449719D01*
X209648Y449739D01*
X209625Y449762D01*
X209580Y449818D01*
X205227Y454171D01*
X205133Y454239D01*
X205038Y454309D01*
X205032Y454311D01*
X205027Y454315D01*
X204916Y454349D01*
X204804Y454385D01*
X204798Y454385D01*
X204792Y454387D01*
X204675Y454384D01*
X204558Y454383D01*
X204551Y454381D01*
X204546Y454381D01*
X204529Y454374D01*
X204397Y454336D01*
X203338Y453897D01*
X197982Y453897D01*
X193034Y455947D01*
X189247Y459734D01*
X187197Y464682D01*
X187197Y470038D01*
X189247Y474986D01*
X193034Y478773D01*
X197982Y480823D01*
X203338Y480823D01*
X208286Y478773D01*
X212073Y474986D01*
X212657Y473577D01*
X212695Y473516D01*
X212724Y473451D01*
X212759Y473412D01*
X212786Y473368D01*
X212842Y473322D01*
X212890Y473270D01*
X212936Y473245D01*
X212976Y473211D01*
X213043Y473186D01*
X213106Y473151D01*
X213157Y473142D01*
X213205Y473123D01*
X213277Y473120D01*
X213348Y473107D01*
X213399Y473115D01*
X213451Y473113D01*
X213520Y473133D01*
X213591Y473143D01*
X213637Y473167D01*
X213687Y473181D01*
X213746Y473222D01*
X213810Y473255D01*
X213847Y473292D01*
X213889Y473322D01*
X213932Y473379D01*
X213982Y473430D01*
X214017Y473493D01*
X214036Y473519D01*
X214043Y473541D01*
X214063Y473577D01*
X214647Y474986D01*
X218434Y478773D01*
X223382Y480823D01*
X228738Y480823D01*
X233686Y478773D01*
X237473Y474986D01*
X238876Y471600D01*
X238929Y471514D01*
X238977Y471425D01*
X238994Y471410D01*
X239005Y471391D01*
X239083Y471327D01*
X239157Y471258D01*
X239178Y471249D01*
X239195Y471234D01*
X239289Y471198D01*
X239382Y471156D01*
X239404Y471154D01*
X239424Y471146D01*
X239525Y471142D01*
X239626Y471132D01*
X239648Y471137D01*
X239670Y471136D01*
X239767Y471164D01*
X239866Y471187D01*
X239885Y471198D01*
X239906Y471204D01*
X239989Y471262D01*
X240076Y471315D01*
X240090Y471332D01*
X240108Y471345D01*
X240169Y471426D01*
X240234Y471504D01*
X240245Y471528D01*
X240255Y471542D01*
X240265Y471573D01*
X240303Y471656D01*
X240396Y471943D01*
X241249Y473617D01*
X242354Y475138D01*
X243682Y476466D01*
X245203Y477571D01*
X246877Y478424D01*
X248664Y479005D01*
X249937Y479206D01*
X249937Y468122D01*
X249940Y468102D01*
X249938Y468083D01*
X249960Y467981D01*
X249977Y467879D01*
X249986Y467862D01*
X249990Y467842D01*
X250043Y467753D01*
X250092Y467662D01*
X250106Y467648D01*
X250116Y467631D01*
X250195Y467564D01*
X250270Y467493D01*
X250288Y467484D01*
X250303Y467471D01*
X250399Y467433D01*
X250493Y467389D01*
X250513Y467387D01*
X250531Y467379D01*
X250698Y467361D01*
X252222Y467361D01*
X252242Y467364D01*
X252261Y467362D01*
X252363Y467384D01*
X252465Y467401D01*
X252482Y467410D01*
X252502Y467414D01*
X252591Y467467D01*
X252682Y467516D01*
X252696Y467530D01*
X252713Y467540D01*
X252780Y467619D01*
X252851Y467694D01*
X252860Y467712D01*
X252873Y467727D01*
X252912Y467823D01*
X252955Y467917D01*
X252957Y467937D01*
X252965Y467955D01*
X252983Y468122D01*
X252983Y479206D01*
X254256Y479005D01*
X256043Y478424D01*
X257717Y477571D01*
X259238Y476466D01*
X260566Y475138D01*
X261671Y473617D01*
X262524Y471943D01*
X262617Y471656D01*
X262664Y471566D01*
X262705Y471474D01*
X262720Y471458D01*
X262730Y471438D01*
X262803Y471367D01*
X262871Y471293D01*
X262891Y471282D01*
X262907Y471267D01*
X262998Y471223D01*
X263087Y471174D01*
X263109Y471170D01*
X263129Y471161D01*
X263229Y471148D01*
X263329Y471130D01*
X263351Y471134D01*
X263373Y471131D01*
X263472Y471151D01*
X263572Y471166D01*
X263592Y471176D01*
X263614Y471181D01*
X263701Y471232D01*
X263791Y471278D01*
X263807Y471294D01*
X263826Y471305D01*
X263893Y471381D01*
X263964Y471453D01*
X263977Y471477D01*
X263988Y471490D01*
X264000Y471520D01*
X264044Y471600D01*
X265447Y474986D01*
X269234Y478773D01*
X274182Y480823D01*
X279538Y480823D01*
X284486Y478773D01*
X288273Y474986D01*
X288857Y473577D01*
X288895Y473516D01*
X288924Y473451D01*
X288959Y473412D01*
X288986Y473368D01*
X289042Y473322D01*
X289090Y473270D01*
X289136Y473245D01*
X289176Y473211D01*
X289243Y473186D01*
X289306Y473151D01*
X289357Y473142D01*
X289405Y473123D01*
X289477Y473120D01*
X289548Y473107D01*
X289599Y473115D01*
X289651Y473113D01*
X289720Y473133D01*
X289791Y473143D01*
X289837Y473167D01*
X289887Y473181D01*
X289946Y473222D01*
X290010Y473255D01*
X290047Y473292D01*
X290089Y473322D01*
X290132Y473379D01*
X290182Y473430D01*
X290217Y473493D01*
X290236Y473519D01*
X290243Y473541D01*
X290263Y473577D01*
X290847Y474986D01*
X294634Y478773D01*
X299582Y480823D01*
X304938Y480823D01*
X309886Y478773D01*
X313673Y474986D01*
X315723Y470038D01*
X315723Y464682D01*
X313673Y459734D01*
X309886Y455947D01*
X304938Y453897D01*
X299582Y453897D01*
X298523Y454336D01*
X298409Y454363D01*
X298296Y454391D01*
X298289Y454391D01*
X298283Y454392D01*
X298167Y454381D01*
X298050Y454372D01*
X298045Y454370D01*
X298038Y454369D01*
X297931Y454321D01*
X297824Y454276D01*
X297818Y454271D01*
X297814Y454269D01*
X297800Y454256D01*
X297693Y454171D01*
X273020Y429498D01*
X272967Y429424D01*
X272907Y429354D01*
X272895Y429324D01*
X272876Y429298D01*
X272849Y429211D01*
X272815Y429126D01*
X272811Y429085D01*
X272804Y429063D01*
X272805Y429031D01*
X272797Y428959D01*
X272797Y422701D01*
X272812Y422605D01*
X272822Y422508D01*
X272832Y422484D01*
X272836Y422458D01*
X272882Y422372D01*
X272922Y422283D01*
X272939Y422264D01*
X272952Y422241D01*
X273022Y422174D01*
X273088Y422102D01*
X273111Y422089D01*
X273130Y422071D01*
X273218Y422030D01*
X273304Y421983D01*
X273329Y421979D01*
X273353Y421968D01*
X273450Y421957D01*
X273546Y421940D01*
X273572Y421944D01*
X273597Y421941D01*
X273693Y421961D01*
X273789Y421976D01*
X273812Y421987D01*
X273838Y421993D01*
X273921Y422043D01*
X274008Y422087D01*
X274027Y422106D01*
X274049Y422119D01*
X274112Y422193D01*
X274180Y422263D01*
X274196Y422291D01*
X274209Y422306D01*
X274221Y422337D01*
X274261Y422410D01*
X275513Y425431D01*
X278657Y428575D01*
X282765Y430277D01*
X301435Y430277D01*
X305543Y428575D01*
X308687Y425431D01*
X310389Y421323D01*
X310389Y416877D01*
X308687Y412769D01*
X305543Y409625D01*
X301435Y407923D01*
X282765Y407923D01*
X278657Y409625D01*
X275513Y412769D01*
X274261Y415790D01*
X274210Y415873D01*
X274164Y415959D01*
X274146Y415977D01*
X274132Y415999D01*
X274056Y416062D01*
X273986Y416129D01*
X273962Y416140D01*
X273942Y416156D01*
X273851Y416191D01*
X273763Y416232D01*
X273737Y416235D01*
X273713Y416244D01*
X273615Y416249D01*
X273519Y416259D01*
X273493Y416254D01*
X273467Y416255D01*
X273373Y416228D01*
X273278Y416207D01*
X273256Y416194D01*
X273231Y416186D01*
X273151Y416131D01*
X273067Y416081D01*
X273050Y416061D01*
X273029Y416046D01*
X272970Y415968D01*
X272907Y415894D01*
X272897Y415870D01*
X272882Y415849D01*
X272852Y415756D01*
X272815Y415666D01*
X272812Y415633D01*
X272806Y415615D01*
X272806Y415582D01*
X272797Y415499D01*
X272797Y371901D01*
X272812Y371805D01*
X272822Y371708D01*
X272832Y371684D01*
X272836Y371658D01*
X272882Y371572D01*
X272922Y371483D01*
X272939Y371464D01*
X272952Y371441D01*
X273022Y371374D01*
X273088Y371302D01*
X273111Y371289D01*
X273130Y371271D01*
X273218Y371230D01*
X273304Y371183D01*
X273329Y371179D01*
X273353Y371168D01*
X273450Y371157D01*
X273546Y371140D01*
X273572Y371144D01*
X273597Y371141D01*
X273693Y371161D01*
X273789Y371176D01*
X273812Y371187D01*
X273838Y371193D01*
X273921Y371243D01*
X274008Y371287D01*
X274027Y371306D01*
X274049Y371319D01*
X274112Y371393D01*
X274180Y371463D01*
X274196Y371491D01*
X274209Y371506D01*
X274221Y371537D01*
X274261Y371610D01*
X275513Y374631D01*
X278657Y377775D01*
X282765Y379477D01*
X301435Y379477D01*
X305543Y377775D01*
X308687Y374631D01*
X310389Y370523D01*
X310389Y366077D01*
X308687Y361969D01*
X305543Y358825D01*
X301435Y357123D01*
X282765Y357123D01*
X278657Y358825D01*
X275513Y361969D01*
X274261Y364990D01*
X274210Y365073D01*
X274164Y365159D01*
X274146Y365177D01*
X274132Y365199D01*
X274056Y365262D01*
X273986Y365329D01*
X273962Y365340D01*
X273942Y365356D01*
X273851Y365391D01*
X273763Y365432D01*
X273737Y365435D01*
X273713Y365444D01*
X273615Y365449D01*
X273519Y365459D01*
X273493Y365454D01*
X273467Y365455D01*
X273373Y365428D01*
X273278Y365407D01*
X273256Y365394D01*
X273231Y365386D01*
X273151Y365331D01*
X273067Y365281D01*
X273050Y365261D01*
X273029Y365246D01*
X272970Y365168D01*
X272907Y365094D01*
X272897Y365070D01*
X272882Y365049D01*
X272852Y364956D01*
X272815Y364866D01*
X272812Y364833D01*
X272806Y364815D01*
X272806Y364782D01*
X272797Y364699D01*
X272797Y346501D01*
X272812Y346405D01*
X272822Y346308D01*
X272832Y346284D01*
X272836Y346258D01*
X272882Y346172D01*
X272922Y346083D01*
X272939Y346064D01*
X272952Y346041D01*
X273022Y345974D01*
X273088Y345902D01*
X273111Y345889D01*
X273130Y345871D01*
X273218Y345830D01*
X273304Y345783D01*
X273329Y345779D01*
X273353Y345768D01*
X273450Y345757D01*
X273546Y345740D01*
X273572Y345744D01*
X273597Y345741D01*
X273693Y345761D01*
X273789Y345776D01*
X273812Y345787D01*
X273838Y345793D01*
X273921Y345843D01*
X274008Y345887D01*
X274027Y345906D01*
X274049Y345919D01*
X274112Y345993D01*
X274180Y346063D01*
X274196Y346091D01*
X274209Y346106D01*
X274221Y346137D01*
X274261Y346210D01*
X275513Y349231D01*
X278657Y352375D01*
X282765Y354077D01*
X301435Y354077D01*
X305543Y352375D01*
X308687Y349231D01*
X310389Y345123D01*
X310389Y340677D01*
X308687Y336569D01*
X305543Y333425D01*
X301435Y331723D01*
X282765Y331723D01*
X278657Y333425D01*
X275513Y336569D01*
X273798Y340709D01*
X273760Y340770D01*
X273731Y340835D01*
X273696Y340874D01*
X273668Y340918D01*
X273613Y340964D01*
X273565Y341016D01*
X273519Y341041D01*
X273479Y341075D01*
X273412Y341100D01*
X273349Y341135D01*
X273298Y341144D01*
X273249Y341163D01*
X273178Y341166D01*
X273107Y341179D01*
X273056Y341171D01*
X273004Y341173D01*
X272935Y341153D01*
X272864Y341143D01*
X272817Y341119D01*
X272767Y341105D01*
X272709Y341064D01*
X272645Y341031D01*
X272608Y340994D01*
X272565Y340964D01*
X272523Y340907D01*
X272472Y340856D01*
X272438Y340793D01*
X272419Y340767D01*
X272411Y340745D01*
X272391Y340709D01*
X271869Y339446D01*
X246576Y314154D01*
X246576Y314153D01*
X244754Y312331D01*
X242513Y311403D01*
X233037Y311403D01*
X232947Y311389D01*
X232856Y311381D01*
X232826Y311369D01*
X232794Y311364D01*
X232713Y311321D01*
X232630Y311285D01*
X232597Y311259D01*
X232577Y311248D01*
X232555Y311225D01*
X232499Y311180D01*
X229343Y308025D01*
X225235Y306323D01*
X206565Y306323D01*
G37*
%LPD*%
%LPC*%
G36*
X123052Y9397D02*
X123052Y9397D01*
X118104Y11447D01*
X114317Y15234D01*
X112267Y20182D01*
X112267Y25538D01*
X114317Y30486D01*
X118104Y34273D01*
X121490Y35676D01*
X121576Y35729D01*
X121665Y35777D01*
X121680Y35794D01*
X121699Y35805D01*
X121763Y35883D01*
X121832Y35957D01*
X121841Y35978D01*
X121856Y35995D01*
X121892Y36089D01*
X121934Y36182D01*
X121936Y36204D01*
X121944Y36224D01*
X121948Y36325D01*
X121958Y36426D01*
X121953Y36448D01*
X121954Y36470D01*
X121926Y36567D01*
X121903Y36666D01*
X121892Y36685D01*
X121886Y36706D01*
X121828Y36789D01*
X121775Y36876D01*
X121758Y36890D01*
X121745Y36908D01*
X121664Y36969D01*
X121586Y37034D01*
X121562Y37045D01*
X121548Y37055D01*
X121517Y37065D01*
X121434Y37103D01*
X121147Y37196D01*
X119473Y38049D01*
X117952Y39154D01*
X116624Y40482D01*
X115519Y42003D01*
X114666Y43677D01*
X114085Y45464D01*
X113884Y46737D01*
X124968Y46737D01*
X124988Y46740D01*
X125007Y46738D01*
X125109Y46760D01*
X125211Y46777D01*
X125228Y46786D01*
X125248Y46790D01*
X125337Y46843D01*
X125428Y46892D01*
X125442Y46906D01*
X125459Y46916D01*
X125526Y46995D01*
X125597Y47070D01*
X125606Y47088D01*
X125619Y47103D01*
X125657Y47199D01*
X125701Y47293D01*
X125703Y47313D01*
X125711Y47331D01*
X125729Y47498D01*
X125729Y49022D01*
X125726Y49042D01*
X125728Y49061D01*
X125706Y49163D01*
X125689Y49265D01*
X125680Y49282D01*
X125676Y49302D01*
X125623Y49391D01*
X125574Y49482D01*
X125560Y49496D01*
X125550Y49513D01*
X125471Y49580D01*
X125396Y49651D01*
X125378Y49660D01*
X125363Y49673D01*
X125267Y49712D01*
X125173Y49755D01*
X125153Y49757D01*
X125135Y49765D01*
X124968Y49783D01*
X113884Y49783D01*
X114085Y51056D01*
X114666Y52843D01*
X115519Y54517D01*
X116624Y56038D01*
X117952Y57366D01*
X119473Y58471D01*
X121147Y59324D01*
X121434Y59417D01*
X121524Y59464D01*
X121616Y59505D01*
X121632Y59520D01*
X121652Y59530D01*
X121723Y59603D01*
X121797Y59671D01*
X121808Y59691D01*
X121823Y59707D01*
X121867Y59798D01*
X121916Y59887D01*
X121920Y59909D01*
X121929Y59929D01*
X121942Y60029D01*
X121960Y60129D01*
X121956Y60151D01*
X121959Y60173D01*
X121939Y60272D01*
X121924Y60372D01*
X121914Y60392D01*
X121909Y60414D01*
X121858Y60501D01*
X121812Y60591D01*
X121796Y60607D01*
X121785Y60626D01*
X121709Y60693D01*
X121637Y60764D01*
X121613Y60777D01*
X121600Y60788D01*
X121570Y60800D01*
X121490Y60844D01*
X118104Y62247D01*
X114317Y66034D01*
X112267Y70982D01*
X112267Y76338D01*
X114317Y81286D01*
X118104Y85073D01*
X119513Y85657D01*
X119574Y85695D01*
X119639Y85724D01*
X119678Y85759D01*
X119722Y85786D01*
X119768Y85842D01*
X119820Y85890D01*
X119845Y85936D01*
X119879Y85976D01*
X119904Y86043D01*
X119939Y86106D01*
X119948Y86157D01*
X119967Y86205D01*
X119970Y86277D01*
X119983Y86348D01*
X119975Y86399D01*
X119977Y86451D01*
X119957Y86520D01*
X119947Y86591D01*
X119923Y86637D01*
X119909Y86687D01*
X119868Y86746D01*
X119835Y86810D01*
X119798Y86847D01*
X119768Y86889D01*
X119711Y86932D01*
X119660Y86982D01*
X119597Y87017D01*
X119571Y87036D01*
X119549Y87043D01*
X119513Y87063D01*
X118104Y87647D01*
X114317Y91434D01*
X112267Y96382D01*
X112267Y101738D01*
X114317Y106686D01*
X118104Y110473D01*
X123052Y112523D01*
X128408Y112523D01*
X132551Y110807D01*
X132595Y110796D01*
X132637Y110777D01*
X132714Y110768D01*
X132790Y110751D01*
X132836Y110755D01*
X132881Y110750D01*
X132958Y110766D01*
X133035Y110774D01*
X133077Y110792D01*
X133122Y110802D01*
X133189Y110842D01*
X133260Y110874D01*
X133294Y110905D01*
X133333Y110928D01*
X133384Y110987D01*
X133441Y111040D01*
X133463Y111080D01*
X133493Y111115D01*
X133522Y111187D01*
X133559Y111256D01*
X133568Y111301D01*
X133585Y111343D01*
X133600Y111479D01*
X133603Y111498D01*
X133602Y111503D01*
X133603Y111510D01*
X133603Y235266D01*
X133589Y235356D01*
X133581Y235447D01*
X133569Y235477D01*
X133564Y235509D01*
X133521Y235589D01*
X133485Y235673D01*
X133459Y235705D01*
X133448Y235726D01*
X133425Y235748D01*
X133380Y235804D01*
X132617Y236567D01*
X131345Y239638D01*
X131345Y242962D01*
X132617Y246033D01*
X134967Y248383D01*
X138038Y249655D01*
X141362Y249655D01*
X144433Y248383D01*
X145004Y247812D01*
X145062Y247770D01*
X145114Y247720D01*
X145161Y247698D01*
X145203Y247668D01*
X145272Y247647D01*
X145337Y247617D01*
X145389Y247611D01*
X145439Y247596D01*
X145510Y247598D01*
X145581Y247590D01*
X145632Y247601D01*
X145684Y247602D01*
X145752Y247627D01*
X145822Y247642D01*
X145867Y247669D01*
X145915Y247687D01*
X145971Y247731D01*
X146033Y247768D01*
X146067Y247808D01*
X146107Y247840D01*
X146146Y247901D01*
X146193Y247955D01*
X146212Y248003D01*
X146240Y248047D01*
X146258Y248117D01*
X146285Y248183D01*
X146293Y248254D01*
X146301Y248286D01*
X146299Y248309D01*
X146303Y248350D01*
X146303Y467059D01*
X146289Y467149D01*
X146281Y467240D01*
X146269Y467270D01*
X146264Y467302D01*
X146221Y467383D01*
X146185Y467467D01*
X146159Y467499D01*
X146148Y467519D01*
X146125Y467542D01*
X146080Y467598D01*
X139938Y473740D01*
X139864Y473793D01*
X139794Y473853D01*
X139764Y473865D01*
X139738Y473884D01*
X139651Y473911D01*
X139566Y473945D01*
X139525Y473949D01*
X139503Y473956D01*
X139471Y473955D01*
X139399Y473963D01*
X120515Y473963D01*
X120425Y473949D01*
X120334Y473941D01*
X120304Y473929D01*
X120272Y473924D01*
X120191Y473881D01*
X120108Y473845D01*
X120075Y473819D01*
X120055Y473808D01*
X120033Y473785D01*
X119977Y473740D01*
X115120Y468883D01*
X105860Y468883D01*
X99313Y475430D01*
X99313Y484690D01*
X105860Y491237D01*
X115120Y491237D01*
X119977Y486380D01*
X120051Y486327D01*
X120120Y486267D01*
X120150Y486255D01*
X120176Y486236D01*
X120263Y486209D01*
X120348Y486175D01*
X120389Y486171D01*
X120411Y486164D01*
X120444Y486165D01*
X120515Y486157D01*
X143453Y486157D01*
X145694Y485229D01*
X147516Y483406D01*
X155746Y475176D01*
X155747Y475176D01*
X157569Y473354D01*
X158497Y471113D01*
X158497Y171134D01*
X158511Y171044D01*
X158519Y170953D01*
X158531Y170923D01*
X158536Y170891D01*
X158579Y170811D01*
X158615Y170727D01*
X158641Y170694D01*
X158652Y170674D01*
X158675Y170652D01*
X158720Y170596D01*
X159483Y169833D01*
X160755Y166762D01*
X160755Y163438D01*
X159483Y160367D01*
X157133Y158017D01*
X154062Y156745D01*
X150738Y156745D01*
X147667Y158017D01*
X147096Y158588D01*
X147038Y158630D01*
X146986Y158680D01*
X146939Y158702D01*
X146897Y158732D01*
X146828Y158753D01*
X146763Y158783D01*
X146711Y158789D01*
X146661Y158804D01*
X146590Y158802D01*
X146519Y158810D01*
X146468Y158799D01*
X146416Y158798D01*
X146348Y158773D01*
X146278Y158758D01*
X146233Y158731D01*
X146185Y158713D01*
X146129Y158669D01*
X146067Y158632D01*
X146033Y158592D01*
X145993Y158560D01*
X145954Y158499D01*
X145907Y158445D01*
X145888Y158397D01*
X145860Y158353D01*
X145842Y158283D01*
X145815Y158217D01*
X145807Y158146D01*
X145799Y158114D01*
X145801Y158091D01*
X145797Y158050D01*
X145797Y94934D01*
X145811Y94844D01*
X145819Y94753D01*
X145831Y94723D01*
X145836Y94691D01*
X145879Y94611D01*
X145915Y94527D01*
X145941Y94495D01*
X145952Y94474D01*
X145975Y94452D01*
X146020Y94396D01*
X146783Y93633D01*
X148055Y90562D01*
X148055Y87238D01*
X146783Y84167D01*
X144433Y81817D01*
X141362Y80545D01*
X138589Y80545D01*
X138544Y80538D01*
X138498Y80540D01*
X138423Y80518D01*
X138347Y80506D01*
X138306Y80484D01*
X138262Y80471D01*
X138198Y80427D01*
X138129Y80390D01*
X138098Y80357D01*
X138060Y80331D01*
X138013Y80268D01*
X137960Y80212D01*
X137940Y80170D01*
X137913Y80134D01*
X137889Y80060D01*
X137856Y79989D01*
X137851Y79943D01*
X137837Y79900D01*
X137838Y79822D01*
X137829Y79745D01*
X137839Y79700D01*
X137839Y79654D01*
X137877Y79522D01*
X137881Y79504D01*
X137884Y79500D01*
X137886Y79493D01*
X139193Y76338D01*
X139193Y70982D01*
X137143Y66034D01*
X133356Y62247D01*
X129970Y60844D01*
X129884Y60791D01*
X129795Y60743D01*
X129780Y60726D01*
X129761Y60715D01*
X129697Y60637D01*
X129628Y60563D01*
X129619Y60542D01*
X129604Y60525D01*
X129568Y60431D01*
X129526Y60338D01*
X129524Y60316D01*
X129516Y60296D01*
X129512Y60195D01*
X129502Y60094D01*
X129507Y60072D01*
X129506Y60050D01*
X129534Y59953D01*
X129557Y59854D01*
X129568Y59835D01*
X129574Y59814D01*
X129632Y59731D01*
X129685Y59644D01*
X129702Y59630D01*
X129715Y59612D01*
X129796Y59551D01*
X129874Y59486D01*
X129898Y59475D01*
X129912Y59465D01*
X129943Y59455D01*
X130026Y59417D01*
X130313Y59324D01*
X131987Y58471D01*
X133508Y57366D01*
X134836Y56038D01*
X135941Y54517D01*
X136794Y52843D01*
X137375Y51056D01*
X137576Y49783D01*
X126492Y49783D01*
X126472Y49780D01*
X126453Y49782D01*
X126351Y49760D01*
X126249Y49743D01*
X126232Y49734D01*
X126212Y49730D01*
X126123Y49677D01*
X126032Y49628D01*
X126018Y49614D01*
X126001Y49604D01*
X125934Y49525D01*
X125863Y49450D01*
X125854Y49432D01*
X125841Y49417D01*
X125803Y49321D01*
X125759Y49227D01*
X125757Y49207D01*
X125749Y49189D01*
X125731Y49022D01*
X125731Y47498D01*
X125734Y47478D01*
X125732Y47459D01*
X125754Y47357D01*
X125771Y47255D01*
X125780Y47238D01*
X125784Y47218D01*
X125837Y47129D01*
X125886Y47038D01*
X125900Y47024D01*
X125910Y47007D01*
X125989Y46940D01*
X126064Y46869D01*
X126082Y46860D01*
X126097Y46847D01*
X126193Y46808D01*
X126287Y46765D01*
X126307Y46763D01*
X126325Y46755D01*
X126492Y46737D01*
X137576Y46737D01*
X137375Y45464D01*
X136794Y43677D01*
X135941Y42003D01*
X134836Y40482D01*
X133508Y39154D01*
X131987Y38049D01*
X130313Y37196D01*
X130026Y37103D01*
X129936Y37056D01*
X129844Y37015D01*
X129828Y37000D01*
X129808Y36990D01*
X129737Y36917D01*
X129663Y36849D01*
X129652Y36829D01*
X129637Y36813D01*
X129593Y36722D01*
X129544Y36633D01*
X129540Y36611D01*
X129531Y36591D01*
X129518Y36491D01*
X129500Y36391D01*
X129504Y36369D01*
X129501Y36347D01*
X129521Y36248D01*
X129536Y36148D01*
X129546Y36128D01*
X129551Y36106D01*
X129602Y36019D01*
X129648Y35929D01*
X129664Y35913D01*
X129675Y35894D01*
X129751Y35827D01*
X129823Y35756D01*
X129847Y35743D01*
X129860Y35732D01*
X129890Y35720D01*
X129970Y35676D01*
X133356Y34273D01*
X137143Y30486D01*
X139193Y25538D01*
X139193Y20182D01*
X137143Y15234D01*
X133356Y11447D01*
X128408Y9397D01*
X123052Y9397D01*
G37*
%LPD*%
%LPC*%
G36*
X417438Y55145D02*
X417438Y55145D01*
X414367Y56417D01*
X412017Y58767D01*
X410745Y61838D01*
X410745Y65162D01*
X411929Y68020D01*
X411944Y68084D01*
X411969Y68145D01*
X411978Y68228D01*
X411985Y68260D01*
X411984Y68279D01*
X411987Y68312D01*
X411987Y141115D01*
X413070Y143729D01*
X456214Y186873D01*
X456267Y186947D01*
X456327Y187017D01*
X456339Y187047D01*
X456358Y187073D01*
X456385Y187160D01*
X456419Y187245D01*
X456423Y187286D01*
X456430Y187308D01*
X456429Y187340D01*
X456437Y187411D01*
X456437Y191908D01*
X458487Y196856D01*
X462274Y200643D01*
X463683Y201227D01*
X463744Y201265D01*
X463809Y201294D01*
X463848Y201329D01*
X463892Y201356D01*
X463938Y201412D01*
X463990Y201460D01*
X464015Y201506D01*
X464049Y201546D01*
X464074Y201613D01*
X464109Y201676D01*
X464118Y201727D01*
X464137Y201775D01*
X464140Y201847D01*
X464153Y201918D01*
X464145Y201969D01*
X464147Y202021D01*
X464127Y202090D01*
X464117Y202161D01*
X464093Y202207D01*
X464079Y202257D01*
X464038Y202316D01*
X464005Y202380D01*
X463968Y202417D01*
X463938Y202459D01*
X463881Y202502D01*
X463830Y202552D01*
X463767Y202587D01*
X463741Y202606D01*
X463719Y202613D01*
X463683Y202633D01*
X462274Y203217D01*
X458487Y207004D01*
X456437Y211952D01*
X456437Y217308D01*
X458487Y222256D01*
X462274Y226043D01*
X463683Y226627D01*
X463744Y226665D01*
X463809Y226694D01*
X463848Y226729D01*
X463892Y226756D01*
X463938Y226812D01*
X463990Y226860D01*
X464015Y226906D01*
X464049Y226946D01*
X464074Y227013D01*
X464109Y227076D01*
X464118Y227127D01*
X464137Y227175D01*
X464140Y227247D01*
X464153Y227318D01*
X464145Y227369D01*
X464147Y227421D01*
X464127Y227490D01*
X464117Y227561D01*
X464093Y227607D01*
X464079Y227657D01*
X464038Y227716D01*
X464005Y227780D01*
X463968Y227817D01*
X463938Y227859D01*
X463881Y227902D01*
X463830Y227952D01*
X463767Y227987D01*
X463741Y228006D01*
X463719Y228013D01*
X463683Y228033D01*
X462274Y228617D01*
X458487Y232404D01*
X456437Y237352D01*
X456437Y242708D01*
X458487Y247656D01*
X462274Y251443D01*
X465216Y252662D01*
X465277Y252700D01*
X465342Y252729D01*
X465381Y252764D01*
X465425Y252791D01*
X465471Y252847D01*
X465523Y252895D01*
X465549Y252941D01*
X465582Y252981D01*
X465607Y253048D01*
X465642Y253111D01*
X465651Y253162D01*
X465670Y253210D01*
X465673Y253282D01*
X465686Y253353D01*
X465678Y253404D01*
X465680Y253456D01*
X465660Y253525D01*
X465650Y253596D01*
X465626Y253642D01*
X465612Y253692D01*
X465571Y253751D01*
X465538Y253815D01*
X465501Y253852D01*
X465472Y253894D01*
X465414Y253937D01*
X465363Y253987D01*
X465300Y254022D01*
X465274Y254041D01*
X465252Y254048D01*
X465216Y254068D01*
X462274Y255287D01*
X458487Y259074D01*
X456437Y264022D01*
X456437Y269378D01*
X458487Y274326D01*
X462274Y278113D01*
X463683Y278697D01*
X463744Y278735D01*
X463809Y278764D01*
X463848Y278799D01*
X463892Y278826D01*
X463938Y278882D01*
X463990Y278930D01*
X464015Y278976D01*
X464049Y279016D01*
X464074Y279083D01*
X464109Y279146D01*
X464118Y279197D01*
X464137Y279245D01*
X464140Y279317D01*
X464153Y279388D01*
X464145Y279439D01*
X464147Y279491D01*
X464127Y279560D01*
X464117Y279631D01*
X464093Y279677D01*
X464079Y279727D01*
X464038Y279786D01*
X464005Y279850D01*
X463968Y279887D01*
X463938Y279929D01*
X463881Y279972D01*
X463830Y280022D01*
X463767Y280057D01*
X463741Y280076D01*
X463719Y280083D01*
X463683Y280103D01*
X462274Y280687D01*
X458487Y284474D01*
X456437Y289422D01*
X456437Y294778D01*
X458487Y299726D01*
X462274Y303513D01*
X463683Y304097D01*
X463744Y304135D01*
X463809Y304164D01*
X463848Y304199D01*
X463892Y304226D01*
X463938Y304282D01*
X463990Y304330D01*
X464015Y304376D01*
X464049Y304416D01*
X464074Y304483D01*
X464109Y304546D01*
X464118Y304597D01*
X464137Y304645D01*
X464140Y304717D01*
X464153Y304788D01*
X464145Y304839D01*
X464147Y304891D01*
X464127Y304960D01*
X464117Y305031D01*
X464093Y305077D01*
X464079Y305127D01*
X464038Y305186D01*
X464005Y305250D01*
X463968Y305287D01*
X463938Y305329D01*
X463881Y305372D01*
X463830Y305422D01*
X463767Y305457D01*
X463741Y305476D01*
X463719Y305483D01*
X463683Y305503D01*
X462274Y306087D01*
X458487Y309874D01*
X456437Y314822D01*
X456437Y320178D01*
X458487Y325126D01*
X462274Y328913D01*
X463683Y329497D01*
X463744Y329535D01*
X463809Y329564D01*
X463848Y329599D01*
X463892Y329626D01*
X463938Y329682D01*
X463990Y329730D01*
X464015Y329776D01*
X464049Y329816D01*
X464074Y329883D01*
X464109Y329946D01*
X464118Y329997D01*
X464137Y330045D01*
X464140Y330117D01*
X464153Y330188D01*
X464145Y330239D01*
X464147Y330291D01*
X464127Y330360D01*
X464117Y330431D01*
X464093Y330477D01*
X464079Y330527D01*
X464038Y330586D01*
X464005Y330650D01*
X463968Y330687D01*
X463938Y330729D01*
X463881Y330772D01*
X463830Y330822D01*
X463767Y330857D01*
X463741Y330876D01*
X463719Y330883D01*
X463683Y330903D01*
X462274Y331487D01*
X458487Y335274D01*
X456437Y340222D01*
X456437Y345578D01*
X458487Y350526D01*
X462274Y354313D01*
X463683Y354897D01*
X463744Y354935D01*
X463809Y354964D01*
X463848Y354999D01*
X463892Y355026D01*
X463938Y355082D01*
X463990Y355130D01*
X464015Y355176D01*
X464049Y355216D01*
X464074Y355283D01*
X464109Y355346D01*
X464118Y355397D01*
X464137Y355445D01*
X464140Y355517D01*
X464153Y355588D01*
X464145Y355639D01*
X464147Y355691D01*
X464127Y355760D01*
X464117Y355831D01*
X464093Y355877D01*
X464079Y355927D01*
X464038Y355986D01*
X464005Y356050D01*
X463968Y356087D01*
X463938Y356129D01*
X463881Y356172D01*
X463830Y356222D01*
X463767Y356257D01*
X463741Y356276D01*
X463719Y356283D01*
X463683Y356303D01*
X462274Y356887D01*
X458487Y360674D01*
X456437Y365622D01*
X456437Y370978D01*
X458487Y375926D01*
X462274Y379713D01*
X467222Y381763D01*
X472578Y381763D01*
X477526Y379713D01*
X481313Y375926D01*
X483363Y370978D01*
X483363Y365622D01*
X481313Y360674D01*
X477526Y356887D01*
X476117Y356303D01*
X476056Y356266D01*
X475991Y356236D01*
X475952Y356201D01*
X475908Y356174D01*
X475862Y356118D01*
X475810Y356070D01*
X475785Y356024D01*
X475751Y355984D01*
X475726Y355917D01*
X475691Y355854D01*
X475682Y355803D01*
X475663Y355755D01*
X475660Y355683D01*
X475647Y355612D01*
X475655Y355561D01*
X475653Y355509D01*
X475673Y355440D01*
X475683Y355369D01*
X475707Y355323D01*
X475721Y355273D01*
X475762Y355214D01*
X475795Y355150D01*
X475832Y355113D01*
X475862Y355071D01*
X475919Y355028D01*
X475970Y354978D01*
X476033Y354943D01*
X476059Y354924D01*
X476081Y354917D01*
X476117Y354897D01*
X477526Y354313D01*
X481313Y350526D01*
X483363Y345578D01*
X483363Y340222D01*
X481313Y335274D01*
X477526Y331487D01*
X476117Y330903D01*
X476056Y330866D01*
X475991Y330836D01*
X475952Y330801D01*
X475908Y330774D01*
X475862Y330718D01*
X475810Y330670D01*
X475785Y330624D01*
X475751Y330584D01*
X475726Y330517D01*
X475691Y330454D01*
X475682Y330403D01*
X475663Y330355D01*
X475660Y330283D01*
X475647Y330212D01*
X475655Y330161D01*
X475653Y330109D01*
X475673Y330040D01*
X475683Y329969D01*
X475707Y329923D01*
X475721Y329873D01*
X475762Y329814D01*
X475795Y329750D01*
X475832Y329713D01*
X475862Y329671D01*
X475919Y329628D01*
X475970Y329578D01*
X476033Y329543D01*
X476059Y329524D01*
X476081Y329517D01*
X476117Y329497D01*
X477526Y328913D01*
X481313Y325126D01*
X483363Y320178D01*
X483363Y314822D01*
X481313Y309874D01*
X477526Y306087D01*
X476117Y305503D01*
X476056Y305466D01*
X475991Y305436D01*
X475952Y305401D01*
X475908Y305374D01*
X475862Y305318D01*
X475810Y305270D01*
X475785Y305224D01*
X475751Y305184D01*
X475726Y305117D01*
X475691Y305054D01*
X475682Y305003D01*
X475663Y304955D01*
X475660Y304883D01*
X475647Y304812D01*
X475655Y304761D01*
X475653Y304709D01*
X475673Y304640D01*
X475683Y304569D01*
X475707Y304523D01*
X475721Y304473D01*
X475762Y304414D01*
X475795Y304350D01*
X475832Y304313D01*
X475862Y304271D01*
X475919Y304228D01*
X475970Y304178D01*
X476033Y304143D01*
X476059Y304124D01*
X476081Y304117D01*
X476117Y304097D01*
X477526Y303513D01*
X481313Y299726D01*
X483363Y294778D01*
X483363Y289422D01*
X481313Y284474D01*
X477526Y280687D01*
X476117Y280103D01*
X476056Y280066D01*
X475991Y280036D01*
X475952Y280001D01*
X475908Y279974D01*
X475862Y279918D01*
X475810Y279870D01*
X475785Y279824D01*
X475751Y279784D01*
X475726Y279717D01*
X475691Y279654D01*
X475682Y279603D01*
X475663Y279555D01*
X475660Y279483D01*
X475647Y279412D01*
X475655Y279361D01*
X475653Y279309D01*
X475673Y279240D01*
X475683Y279169D01*
X475707Y279123D01*
X475721Y279073D01*
X475762Y279014D01*
X475795Y278950D01*
X475832Y278913D01*
X475862Y278871D01*
X475919Y278828D01*
X475970Y278778D01*
X476033Y278743D01*
X476059Y278724D01*
X476081Y278717D01*
X476117Y278697D01*
X477526Y278113D01*
X481313Y274326D01*
X483363Y269378D01*
X483363Y264022D01*
X481313Y259074D01*
X477526Y255287D01*
X474584Y254068D01*
X474523Y254030D01*
X474458Y254001D01*
X474419Y253966D01*
X474375Y253939D01*
X474329Y253883D01*
X474277Y253835D01*
X474252Y253789D01*
X474218Y253749D01*
X474193Y253682D01*
X474158Y253619D01*
X474149Y253568D01*
X474130Y253520D01*
X474127Y253448D01*
X474114Y253377D01*
X474122Y253326D01*
X474120Y253274D01*
X474140Y253205D01*
X474150Y253134D01*
X474174Y253088D01*
X474188Y253038D01*
X474229Y252979D01*
X474262Y252915D01*
X474299Y252878D01*
X474328Y252836D01*
X474386Y252793D01*
X474437Y252743D01*
X474500Y252708D01*
X474526Y252689D01*
X474548Y252682D01*
X474584Y252662D01*
X477526Y251443D01*
X481313Y247656D01*
X483363Y242708D01*
X483363Y237352D01*
X481313Y232404D01*
X477526Y228617D01*
X476117Y228033D01*
X476056Y227996D01*
X475991Y227966D01*
X475952Y227931D01*
X475908Y227904D01*
X475862Y227848D01*
X475810Y227800D01*
X475785Y227754D01*
X475751Y227714D01*
X475726Y227647D01*
X475691Y227584D01*
X475682Y227533D01*
X475663Y227485D01*
X475660Y227413D01*
X475647Y227342D01*
X475655Y227291D01*
X475653Y227239D01*
X475673Y227170D01*
X475683Y227099D01*
X475707Y227053D01*
X475721Y227003D01*
X475762Y226944D01*
X475795Y226880D01*
X475832Y226843D01*
X475862Y226801D01*
X475919Y226758D01*
X475970Y226708D01*
X476033Y226673D01*
X476059Y226654D01*
X476081Y226647D01*
X476117Y226627D01*
X477526Y226043D01*
X481313Y222256D01*
X483363Y217308D01*
X483363Y211952D01*
X481313Y207004D01*
X477526Y203217D01*
X476117Y202633D01*
X476056Y202596D01*
X475991Y202566D01*
X475952Y202531D01*
X475908Y202504D01*
X475862Y202448D01*
X475810Y202400D01*
X475785Y202354D01*
X475751Y202314D01*
X475726Y202247D01*
X475691Y202184D01*
X475682Y202133D01*
X475663Y202085D01*
X475660Y202013D01*
X475647Y201942D01*
X475655Y201891D01*
X475653Y201839D01*
X475673Y201770D01*
X475683Y201699D01*
X475707Y201653D01*
X475721Y201603D01*
X475762Y201544D01*
X475795Y201480D01*
X475832Y201443D01*
X475862Y201401D01*
X475919Y201358D01*
X475970Y201308D01*
X476033Y201273D01*
X476059Y201254D01*
X476081Y201247D01*
X476117Y201227D01*
X477526Y200643D01*
X481313Y196856D01*
X483363Y191908D01*
X483363Y186552D01*
X481313Y181604D01*
X477526Y177817D01*
X476117Y177233D01*
X476056Y177196D01*
X475991Y177166D01*
X475952Y177131D01*
X475908Y177104D01*
X475862Y177048D01*
X475810Y177000D01*
X475785Y176954D01*
X475751Y176914D01*
X475726Y176847D01*
X475691Y176784D01*
X475682Y176733D01*
X475663Y176685D01*
X475660Y176613D01*
X475647Y176542D01*
X475655Y176491D01*
X475653Y176439D01*
X475673Y176370D01*
X475683Y176299D01*
X475707Y176253D01*
X475721Y176203D01*
X475762Y176144D01*
X475795Y176080D01*
X475832Y176043D01*
X475862Y176001D01*
X475919Y175958D01*
X475970Y175908D01*
X476033Y175873D01*
X476059Y175854D01*
X476081Y175847D01*
X476117Y175827D01*
X477526Y175243D01*
X481313Y171456D01*
X483363Y166508D01*
X483363Y161152D01*
X481313Y156204D01*
X477526Y152417D01*
X474140Y151014D01*
X474054Y150961D01*
X473965Y150913D01*
X473950Y150896D01*
X473931Y150885D01*
X473867Y150807D01*
X473798Y150733D01*
X473789Y150712D01*
X473774Y150695D01*
X473738Y150601D01*
X473696Y150508D01*
X473694Y150486D01*
X473686Y150466D01*
X473682Y150365D01*
X473672Y150264D01*
X473677Y150242D01*
X473676Y150220D01*
X473704Y150123D01*
X473727Y150024D01*
X473738Y150005D01*
X473744Y149984D01*
X473802Y149901D01*
X473855Y149814D01*
X473872Y149800D01*
X473885Y149782D01*
X473966Y149721D01*
X474044Y149656D01*
X474068Y149645D01*
X474082Y149635D01*
X474113Y149625D01*
X474196Y149587D01*
X474483Y149494D01*
X476157Y148641D01*
X477678Y147536D01*
X479006Y146208D01*
X480111Y144687D01*
X480964Y143013D01*
X481545Y141226D01*
X481746Y139953D01*
X470662Y139953D01*
X470642Y139950D01*
X470623Y139952D01*
X470521Y139930D01*
X470419Y139913D01*
X470402Y139904D01*
X470382Y139900D01*
X470293Y139847D01*
X470202Y139798D01*
X470188Y139784D01*
X470171Y139774D01*
X470104Y139695D01*
X470033Y139620D01*
X470024Y139602D01*
X470011Y139587D01*
X469973Y139491D01*
X469929Y139397D01*
X469927Y139377D01*
X469919Y139359D01*
X469901Y139192D01*
X469901Y138429D01*
X469899Y138429D01*
X469899Y139192D01*
X469896Y139212D01*
X469898Y139231D01*
X469876Y139333D01*
X469859Y139435D01*
X469850Y139452D01*
X469846Y139472D01*
X469793Y139561D01*
X469744Y139652D01*
X469730Y139666D01*
X469720Y139683D01*
X469641Y139750D01*
X469566Y139821D01*
X469548Y139830D01*
X469533Y139843D01*
X469437Y139882D01*
X469343Y139925D01*
X469323Y139927D01*
X469305Y139935D01*
X469138Y139953D01*
X458054Y139953D01*
X458255Y141226D01*
X458836Y143013D01*
X459689Y144687D01*
X460794Y146208D01*
X462122Y147536D01*
X463643Y148641D01*
X465317Y149494D01*
X465604Y149587D01*
X465694Y149634D01*
X465786Y149675D01*
X465802Y149690D01*
X465822Y149700D01*
X465893Y149773D01*
X465967Y149841D01*
X465978Y149861D01*
X465993Y149877D01*
X466037Y149968D01*
X466086Y150057D01*
X466090Y150079D01*
X466099Y150099D01*
X466112Y150199D01*
X466130Y150299D01*
X466126Y150321D01*
X466129Y150343D01*
X466109Y150442D01*
X466094Y150542D01*
X466084Y150562D01*
X466079Y150584D01*
X466028Y150671D01*
X465982Y150761D01*
X465966Y150777D01*
X465955Y150796D01*
X465879Y150863D01*
X465807Y150934D01*
X465783Y150947D01*
X465770Y150958D01*
X465740Y150970D01*
X465660Y151014D01*
X462274Y152417D01*
X458487Y156204D01*
X456437Y161152D01*
X456437Y165141D01*
X456426Y165211D01*
X456424Y165283D01*
X456406Y165332D01*
X456398Y165383D01*
X456364Y165447D01*
X456339Y165514D01*
X456307Y165555D01*
X456282Y165601D01*
X456230Y165650D01*
X456186Y165706D01*
X456142Y165734D01*
X456104Y165770D01*
X456039Y165800D01*
X455979Y165839D01*
X455928Y165852D01*
X455881Y165874D01*
X455810Y165882D01*
X455740Y165899D01*
X455688Y165895D01*
X455637Y165901D01*
X455566Y165886D01*
X455495Y165880D01*
X455447Y165860D01*
X455396Y165849D01*
X455335Y165812D01*
X455269Y165784D01*
X455213Y165739D01*
X455185Y165722D01*
X455170Y165705D01*
X455138Y165679D01*
X426436Y136977D01*
X426383Y136903D01*
X426323Y136833D01*
X426311Y136803D01*
X426292Y136777D01*
X426265Y136690D01*
X426231Y136605D01*
X426227Y136564D01*
X426220Y136542D01*
X426221Y136510D01*
X426213Y136438D01*
X426213Y68312D01*
X426223Y68247D01*
X426224Y68182D01*
X426247Y68102D01*
X426252Y68069D01*
X426262Y68052D01*
X426271Y68020D01*
X427455Y65162D01*
X427455Y61838D01*
X426183Y58767D01*
X423833Y56417D01*
X420762Y55145D01*
X417438Y55145D01*
G37*
%LPD*%
%LPC*%
G36*
X49138Y131345D02*
X49138Y131345D01*
X46067Y132617D01*
X43717Y134967D01*
X42445Y138038D01*
X42445Y141362D01*
X43629Y144220D01*
X43644Y144284D01*
X43669Y144345D01*
X43678Y144428D01*
X43685Y144460D01*
X43684Y144479D01*
X43687Y144512D01*
X43687Y208026D01*
X43684Y208046D01*
X43686Y208065D01*
X43664Y208167D01*
X43648Y208269D01*
X43638Y208286D01*
X43634Y208306D01*
X43581Y208395D01*
X43532Y208486D01*
X43518Y208500D01*
X43508Y208517D01*
X43429Y208584D01*
X43354Y208656D01*
X43336Y208664D01*
X43321Y208677D01*
X43225Y208716D01*
X43131Y208759D01*
X43111Y208761D01*
X43093Y208769D01*
X42926Y208787D01*
X37534Y208787D01*
X37419Y208768D01*
X37303Y208751D01*
X37298Y208749D01*
X37292Y208748D01*
X37189Y208693D01*
X37084Y208640D01*
X37080Y208635D01*
X37074Y208632D01*
X36994Y208548D01*
X36912Y208464D01*
X36908Y208458D01*
X36905Y208454D01*
X36897Y208437D01*
X36831Y208317D01*
X36813Y208274D01*
X33026Y204487D01*
X31617Y203903D01*
X31556Y203865D01*
X31491Y203836D01*
X31452Y203801D01*
X31408Y203774D01*
X31362Y203718D01*
X31310Y203670D01*
X31285Y203624D01*
X31251Y203584D01*
X31226Y203517D01*
X31191Y203454D01*
X31182Y203403D01*
X31163Y203355D01*
X31160Y203283D01*
X31147Y203212D01*
X31155Y203161D01*
X31153Y203109D01*
X31173Y203040D01*
X31183Y202969D01*
X31207Y202923D01*
X31221Y202873D01*
X31262Y202814D01*
X31295Y202750D01*
X31332Y202713D01*
X31362Y202671D01*
X31419Y202628D01*
X31470Y202578D01*
X31533Y202543D01*
X31559Y202524D01*
X31581Y202517D01*
X31617Y202497D01*
X33026Y201913D01*
X36813Y198126D01*
X38863Y193178D01*
X38863Y187822D01*
X36813Y182874D01*
X33026Y179087D01*
X29640Y177684D01*
X29554Y177631D01*
X29465Y177583D01*
X29450Y177567D01*
X29431Y177555D01*
X29367Y177477D01*
X29298Y177403D01*
X29289Y177382D01*
X29274Y177365D01*
X29238Y177271D01*
X29196Y177179D01*
X29194Y177156D01*
X29186Y177136D01*
X29182Y177035D01*
X29172Y176934D01*
X29177Y176912D01*
X29176Y176890D01*
X29204Y176793D01*
X29227Y176694D01*
X29238Y176675D01*
X29244Y176654D01*
X29302Y176570D01*
X29355Y176484D01*
X29372Y176470D01*
X29385Y176452D01*
X29466Y176391D01*
X29544Y176326D01*
X29569Y176315D01*
X29582Y176305D01*
X29613Y176295D01*
X29696Y176257D01*
X29983Y176164D01*
X31657Y175311D01*
X33178Y174206D01*
X34506Y172878D01*
X35611Y171357D01*
X36464Y169683D01*
X37045Y167896D01*
X37246Y166623D01*
X26162Y166623D01*
X26142Y166620D01*
X26123Y166622D01*
X26021Y166600D01*
X25919Y166583D01*
X25902Y166574D01*
X25882Y166570D01*
X25793Y166517D01*
X25702Y166468D01*
X25688Y166454D01*
X25671Y166444D01*
X25604Y166365D01*
X25533Y166290D01*
X25524Y166272D01*
X25511Y166257D01*
X25473Y166161D01*
X25429Y166067D01*
X25427Y166047D01*
X25419Y166029D01*
X25401Y165862D01*
X25401Y165099D01*
X25399Y165099D01*
X25399Y165862D01*
X25396Y165882D01*
X25398Y165901D01*
X25376Y166003D01*
X25359Y166105D01*
X25350Y166122D01*
X25346Y166142D01*
X25293Y166231D01*
X25244Y166322D01*
X25230Y166336D01*
X25220Y166353D01*
X25141Y166420D01*
X25066Y166491D01*
X25048Y166500D01*
X25033Y166513D01*
X24937Y166552D01*
X24843Y166595D01*
X24823Y166597D01*
X24805Y166605D01*
X24638Y166623D01*
X13554Y166623D01*
X13755Y167896D01*
X14336Y169683D01*
X15189Y171357D01*
X16294Y172878D01*
X17622Y174206D01*
X19143Y175311D01*
X20817Y176164D01*
X21104Y176257D01*
X21194Y176304D01*
X21286Y176345D01*
X21302Y176360D01*
X21322Y176370D01*
X21393Y176443D01*
X21467Y176511D01*
X21478Y176531D01*
X21493Y176547D01*
X21537Y176638D01*
X21586Y176727D01*
X21590Y176748D01*
X21599Y176769D01*
X21612Y176869D01*
X21630Y176969D01*
X21626Y176991D01*
X21629Y177013D01*
X21608Y177112D01*
X21594Y177212D01*
X21584Y177232D01*
X21579Y177254D01*
X21528Y177341D01*
X21482Y177431D01*
X21466Y177447D01*
X21455Y177466D01*
X21379Y177532D01*
X21307Y177604D01*
X21283Y177617D01*
X21270Y177628D01*
X21240Y177640D01*
X21160Y177684D01*
X17774Y179087D01*
X13987Y182874D01*
X11937Y187822D01*
X11937Y193178D01*
X13987Y198126D01*
X17774Y201913D01*
X19183Y202497D01*
X19244Y202534D01*
X19309Y202564D01*
X19348Y202599D01*
X19392Y202626D01*
X19438Y202682D01*
X19490Y202730D01*
X19515Y202776D01*
X19549Y202816D01*
X19574Y202883D01*
X19609Y202946D01*
X19618Y202997D01*
X19637Y203045D01*
X19640Y203117D01*
X19653Y203188D01*
X19645Y203239D01*
X19647Y203291D01*
X19627Y203360D01*
X19617Y203431D01*
X19593Y203477D01*
X19579Y203527D01*
X19538Y203586D01*
X19505Y203650D01*
X19468Y203687D01*
X19438Y203729D01*
X19381Y203772D01*
X19330Y203822D01*
X19267Y203857D01*
X19241Y203876D01*
X19219Y203883D01*
X19183Y203903D01*
X17774Y204487D01*
X13987Y208274D01*
X11937Y213222D01*
X11937Y218578D01*
X13987Y223526D01*
X17774Y227313D01*
X19183Y227897D01*
X19244Y227935D01*
X19309Y227964D01*
X19348Y227999D01*
X19392Y228026D01*
X19438Y228082D01*
X19490Y228130D01*
X19515Y228176D01*
X19549Y228216D01*
X19574Y228283D01*
X19609Y228346D01*
X19618Y228397D01*
X19637Y228445D01*
X19640Y228517D01*
X19653Y228588D01*
X19645Y228639D01*
X19647Y228691D01*
X19627Y228760D01*
X19617Y228831D01*
X19593Y228877D01*
X19579Y228927D01*
X19538Y228986D01*
X19505Y229050D01*
X19468Y229087D01*
X19438Y229129D01*
X19381Y229172D01*
X19330Y229222D01*
X19267Y229257D01*
X19241Y229276D01*
X19219Y229283D01*
X19183Y229303D01*
X17774Y229887D01*
X13987Y233674D01*
X11937Y238622D01*
X11937Y243978D01*
X13987Y248926D01*
X17774Y252713D01*
X19183Y253297D01*
X19244Y253335D01*
X19309Y253364D01*
X19348Y253399D01*
X19392Y253426D01*
X19438Y253482D01*
X19490Y253530D01*
X19515Y253576D01*
X19549Y253616D01*
X19574Y253683D01*
X19609Y253746D01*
X19618Y253797D01*
X19637Y253845D01*
X19640Y253917D01*
X19653Y253988D01*
X19645Y254039D01*
X19647Y254091D01*
X19627Y254160D01*
X19617Y254231D01*
X19593Y254277D01*
X19579Y254327D01*
X19538Y254386D01*
X19505Y254450D01*
X19468Y254487D01*
X19438Y254529D01*
X19381Y254572D01*
X19330Y254622D01*
X19267Y254657D01*
X19241Y254676D01*
X19219Y254683D01*
X19183Y254703D01*
X17774Y255287D01*
X13987Y259074D01*
X11937Y264022D01*
X11937Y269378D01*
X13987Y274326D01*
X17774Y278113D01*
X19183Y278697D01*
X19244Y278735D01*
X19309Y278764D01*
X19348Y278799D01*
X19392Y278826D01*
X19438Y278882D01*
X19490Y278930D01*
X19515Y278976D01*
X19549Y279016D01*
X19574Y279083D01*
X19609Y279146D01*
X19618Y279197D01*
X19637Y279245D01*
X19640Y279317D01*
X19653Y279388D01*
X19645Y279439D01*
X19647Y279491D01*
X19627Y279560D01*
X19617Y279631D01*
X19593Y279677D01*
X19579Y279727D01*
X19538Y279786D01*
X19505Y279850D01*
X19468Y279887D01*
X19438Y279929D01*
X19381Y279972D01*
X19330Y280022D01*
X19267Y280057D01*
X19241Y280076D01*
X19219Y280083D01*
X19183Y280103D01*
X17774Y280687D01*
X13987Y284474D01*
X11937Y289422D01*
X11937Y294778D01*
X13987Y299726D01*
X17774Y303513D01*
X19183Y304097D01*
X19244Y304135D01*
X19309Y304164D01*
X19348Y304199D01*
X19392Y304226D01*
X19438Y304282D01*
X19490Y304330D01*
X19515Y304376D01*
X19549Y304416D01*
X19574Y304483D01*
X19609Y304546D01*
X19618Y304597D01*
X19637Y304645D01*
X19640Y304717D01*
X19653Y304788D01*
X19645Y304839D01*
X19647Y304891D01*
X19627Y304960D01*
X19617Y305031D01*
X19593Y305077D01*
X19579Y305127D01*
X19538Y305186D01*
X19505Y305250D01*
X19468Y305287D01*
X19438Y305329D01*
X19381Y305372D01*
X19330Y305422D01*
X19267Y305457D01*
X19241Y305476D01*
X19219Y305483D01*
X19183Y305503D01*
X17774Y306087D01*
X13987Y309874D01*
X11937Y314822D01*
X11937Y320178D01*
X13987Y325126D01*
X17774Y328913D01*
X19183Y329497D01*
X19244Y329535D01*
X19309Y329564D01*
X19348Y329599D01*
X19392Y329626D01*
X19438Y329682D01*
X19490Y329730D01*
X19515Y329776D01*
X19549Y329816D01*
X19574Y329883D01*
X19609Y329946D01*
X19618Y329997D01*
X19637Y330045D01*
X19640Y330117D01*
X19653Y330188D01*
X19645Y330239D01*
X19647Y330291D01*
X19627Y330360D01*
X19617Y330431D01*
X19593Y330477D01*
X19579Y330527D01*
X19538Y330586D01*
X19505Y330650D01*
X19468Y330687D01*
X19438Y330729D01*
X19381Y330772D01*
X19330Y330822D01*
X19267Y330857D01*
X19241Y330876D01*
X19219Y330883D01*
X19183Y330903D01*
X17774Y331487D01*
X13987Y335274D01*
X11937Y340222D01*
X11937Y345578D01*
X13987Y350526D01*
X17774Y354313D01*
X19183Y354897D01*
X19244Y354935D01*
X19309Y354964D01*
X19348Y354999D01*
X19392Y355026D01*
X19438Y355082D01*
X19490Y355130D01*
X19515Y355176D01*
X19549Y355216D01*
X19574Y355283D01*
X19609Y355346D01*
X19618Y355397D01*
X19637Y355445D01*
X19640Y355517D01*
X19653Y355588D01*
X19645Y355639D01*
X19647Y355691D01*
X19627Y355760D01*
X19617Y355831D01*
X19593Y355877D01*
X19579Y355927D01*
X19538Y355986D01*
X19505Y356050D01*
X19468Y356087D01*
X19438Y356129D01*
X19381Y356172D01*
X19330Y356222D01*
X19267Y356257D01*
X19241Y356276D01*
X19219Y356283D01*
X19183Y356303D01*
X17774Y356887D01*
X13987Y360674D01*
X11937Y365622D01*
X11937Y370978D01*
X13987Y375926D01*
X17774Y379713D01*
X22722Y381763D01*
X28078Y381763D01*
X33026Y379713D01*
X36813Y375926D01*
X38863Y370978D01*
X38863Y365622D01*
X36813Y360674D01*
X33026Y356887D01*
X31617Y356303D01*
X31556Y356266D01*
X31491Y356236D01*
X31452Y356201D01*
X31408Y356174D01*
X31362Y356118D01*
X31310Y356070D01*
X31285Y356024D01*
X31251Y355984D01*
X31226Y355917D01*
X31191Y355854D01*
X31182Y355803D01*
X31163Y355755D01*
X31160Y355683D01*
X31147Y355612D01*
X31155Y355561D01*
X31153Y355509D01*
X31173Y355440D01*
X31183Y355369D01*
X31207Y355323D01*
X31221Y355273D01*
X31262Y355214D01*
X31295Y355150D01*
X31332Y355113D01*
X31362Y355071D01*
X31419Y355028D01*
X31470Y354978D01*
X31533Y354943D01*
X31559Y354924D01*
X31581Y354917D01*
X31617Y354897D01*
X33026Y354313D01*
X36813Y350526D01*
X38863Y345578D01*
X38863Y340222D01*
X36813Y335274D01*
X33026Y331487D01*
X31617Y330903D01*
X31556Y330866D01*
X31491Y330836D01*
X31452Y330801D01*
X31408Y330774D01*
X31362Y330718D01*
X31310Y330670D01*
X31285Y330624D01*
X31251Y330584D01*
X31226Y330517D01*
X31191Y330454D01*
X31182Y330403D01*
X31163Y330355D01*
X31160Y330283D01*
X31147Y330212D01*
X31155Y330161D01*
X31153Y330109D01*
X31173Y330040D01*
X31183Y329969D01*
X31207Y329923D01*
X31221Y329873D01*
X31262Y329814D01*
X31295Y329750D01*
X31332Y329713D01*
X31362Y329671D01*
X31419Y329628D01*
X31470Y329578D01*
X31533Y329543D01*
X31559Y329524D01*
X31581Y329517D01*
X31617Y329497D01*
X33026Y328913D01*
X36813Y325126D01*
X38863Y320178D01*
X38863Y314822D01*
X36813Y309874D01*
X33026Y306087D01*
X31617Y305503D01*
X31556Y305466D01*
X31491Y305436D01*
X31452Y305401D01*
X31408Y305374D01*
X31362Y305318D01*
X31310Y305270D01*
X31285Y305224D01*
X31251Y305184D01*
X31226Y305117D01*
X31191Y305054D01*
X31182Y305003D01*
X31163Y304955D01*
X31160Y304883D01*
X31147Y304812D01*
X31155Y304761D01*
X31153Y304709D01*
X31173Y304640D01*
X31183Y304569D01*
X31207Y304523D01*
X31221Y304473D01*
X31262Y304414D01*
X31295Y304350D01*
X31332Y304313D01*
X31362Y304271D01*
X31419Y304228D01*
X31470Y304178D01*
X31533Y304143D01*
X31559Y304124D01*
X31581Y304117D01*
X31617Y304097D01*
X33026Y303513D01*
X36813Y299726D01*
X38863Y294778D01*
X38863Y289422D01*
X36813Y284474D01*
X33026Y280687D01*
X31617Y280103D01*
X31556Y280066D01*
X31491Y280036D01*
X31452Y280001D01*
X31408Y279974D01*
X31362Y279918D01*
X31310Y279870D01*
X31285Y279824D01*
X31251Y279784D01*
X31226Y279717D01*
X31191Y279654D01*
X31182Y279603D01*
X31163Y279555D01*
X31160Y279483D01*
X31147Y279412D01*
X31155Y279361D01*
X31153Y279309D01*
X31173Y279240D01*
X31183Y279169D01*
X31207Y279123D01*
X31221Y279073D01*
X31262Y279014D01*
X31295Y278950D01*
X31332Y278913D01*
X31362Y278871D01*
X31419Y278828D01*
X31470Y278778D01*
X31533Y278743D01*
X31559Y278724D01*
X31581Y278717D01*
X31617Y278697D01*
X33026Y278113D01*
X36813Y274326D01*
X38863Y269378D01*
X38863Y264022D01*
X36813Y259074D01*
X33026Y255287D01*
X31617Y254703D01*
X31556Y254666D01*
X31491Y254636D01*
X31452Y254601D01*
X31408Y254574D01*
X31362Y254518D01*
X31310Y254470D01*
X31285Y254424D01*
X31251Y254384D01*
X31226Y254317D01*
X31191Y254254D01*
X31182Y254203D01*
X31163Y254155D01*
X31160Y254083D01*
X31147Y254012D01*
X31155Y253961D01*
X31153Y253909D01*
X31173Y253840D01*
X31183Y253769D01*
X31207Y253723D01*
X31221Y253673D01*
X31262Y253614D01*
X31295Y253550D01*
X31332Y253513D01*
X31362Y253471D01*
X31419Y253428D01*
X31470Y253378D01*
X31533Y253343D01*
X31559Y253324D01*
X31581Y253317D01*
X31617Y253297D01*
X33026Y252713D01*
X36813Y248926D01*
X38863Y243978D01*
X38863Y238622D01*
X36813Y233674D01*
X33026Y229887D01*
X31617Y229303D01*
X31556Y229266D01*
X31491Y229236D01*
X31452Y229201D01*
X31408Y229174D01*
X31362Y229118D01*
X31310Y229070D01*
X31285Y229024D01*
X31251Y228984D01*
X31226Y228917D01*
X31191Y228854D01*
X31182Y228803D01*
X31163Y228755D01*
X31160Y228683D01*
X31147Y228612D01*
X31155Y228561D01*
X31153Y228509D01*
X31173Y228440D01*
X31183Y228369D01*
X31207Y228323D01*
X31221Y228273D01*
X31262Y228214D01*
X31295Y228150D01*
X31332Y228113D01*
X31362Y228071D01*
X31419Y228028D01*
X31470Y227978D01*
X31533Y227943D01*
X31559Y227924D01*
X31581Y227917D01*
X31617Y227897D01*
X33026Y227313D01*
X36813Y223526D01*
X36831Y223483D01*
X36893Y223383D01*
X36953Y223283D01*
X36957Y223279D01*
X36961Y223274D01*
X37050Y223199D01*
X37140Y223123D01*
X37145Y223121D01*
X37150Y223117D01*
X37258Y223075D01*
X37368Y223031D01*
X37375Y223030D01*
X37380Y223029D01*
X37398Y223028D01*
X37534Y223013D01*
X52215Y223013D01*
X54829Y221930D01*
X56830Y219929D01*
X57913Y217315D01*
X57913Y144512D01*
X57923Y144447D01*
X57924Y144382D01*
X57947Y144302D01*
X57952Y144269D01*
X57962Y144252D01*
X57971Y144220D01*
X59155Y141362D01*
X59155Y138038D01*
X57883Y134967D01*
X55533Y132617D01*
X52462Y131345D01*
X49138Y131345D01*
G37*
%LPD*%
%LPC*%
G36*
X391022Y65277D02*
X391022Y65277D01*
X386074Y67327D01*
X382287Y71114D01*
X380209Y76131D01*
X380171Y76192D01*
X380142Y76257D01*
X380107Y76295D01*
X380079Y76340D01*
X380024Y76385D01*
X379976Y76438D01*
X379930Y76463D01*
X379890Y76497D01*
X379823Y76522D01*
X379760Y76557D01*
X379709Y76566D01*
X379660Y76585D01*
X379589Y76588D01*
X379518Y76601D01*
X379466Y76593D01*
X379414Y76595D01*
X379346Y76575D01*
X379275Y76565D01*
X379228Y76541D01*
X379178Y76527D01*
X379119Y76486D01*
X379055Y76453D01*
X379019Y76416D01*
X378976Y76386D01*
X378933Y76329D01*
X378883Y76278D01*
X378849Y76215D01*
X378829Y76189D01*
X378822Y76167D01*
X378802Y76131D01*
X377923Y74007D01*
X375573Y71657D01*
X372502Y70385D01*
X369178Y70385D01*
X366107Y71657D01*
X363757Y74007D01*
X362485Y77078D01*
X362485Y80402D01*
X363757Y83473D01*
X364520Y84236D01*
X364565Y84298D01*
X364595Y84329D01*
X364600Y84341D01*
X364633Y84379D01*
X364645Y84409D01*
X364664Y84435D01*
X364691Y84522D01*
X364725Y84607D01*
X364729Y84648D01*
X364736Y84671D01*
X364735Y84703D01*
X364743Y84774D01*
X364743Y98015D01*
X364728Y98111D01*
X364718Y98208D01*
X364708Y98232D01*
X364704Y98258D01*
X364658Y98344D01*
X364618Y98433D01*
X364601Y98452D01*
X364588Y98475D01*
X364518Y98542D01*
X364452Y98614D01*
X364429Y98626D01*
X364410Y98644D01*
X364322Y98685D01*
X364236Y98732D01*
X364211Y98737D01*
X364187Y98748D01*
X364090Y98759D01*
X363994Y98776D01*
X363968Y98772D01*
X363943Y98775D01*
X363847Y98754D01*
X363751Y98740D01*
X363728Y98728D01*
X363702Y98723D01*
X363619Y98673D01*
X363532Y98629D01*
X363513Y98610D01*
X363491Y98597D01*
X363428Y98523D01*
X363360Y98453D01*
X363344Y98424D01*
X363331Y98410D01*
X363319Y98379D01*
X363279Y98306D01*
X362683Y96867D01*
X360333Y94517D01*
X357262Y93245D01*
X353938Y93245D01*
X350867Y94517D01*
X348517Y96867D01*
X347245Y99938D01*
X347245Y103262D01*
X348517Y106333D01*
X349280Y107096D01*
X349328Y107162D01*
X349332Y107167D01*
X349334Y107170D01*
X349393Y107239D01*
X349405Y107269D01*
X349424Y107295D01*
X349451Y107382D01*
X349485Y107467D01*
X349489Y107508D01*
X349496Y107531D01*
X349495Y107563D01*
X349503Y107634D01*
X349503Y159066D01*
X349489Y159156D01*
X349481Y159247D01*
X349469Y159277D01*
X349464Y159309D01*
X349421Y159389D01*
X349385Y159473D01*
X349359Y159505D01*
X349348Y159526D01*
X349325Y159548D01*
X349280Y159604D01*
X348517Y160367D01*
X347245Y163438D01*
X347245Y166762D01*
X348517Y169833D01*
X350867Y172183D01*
X353938Y173455D01*
X357262Y173455D01*
X360333Y172183D01*
X362683Y169833D01*
X363955Y166762D01*
X363955Y163438D01*
X362683Y160367D01*
X361920Y159604D01*
X361867Y159530D01*
X361807Y159461D01*
X361795Y159431D01*
X361776Y159405D01*
X361749Y159318D01*
X361715Y159233D01*
X361711Y159192D01*
X361704Y159169D01*
X361705Y159137D01*
X361697Y159066D01*
X361697Y146750D01*
X361708Y146679D01*
X361710Y146607D01*
X361728Y146559D01*
X361736Y146507D01*
X361770Y146444D01*
X361795Y146376D01*
X361827Y146336D01*
X361852Y146290D01*
X361903Y146240D01*
X361948Y146184D01*
X361992Y146156D01*
X362030Y146120D01*
X362095Y146090D01*
X362155Y146051D01*
X362206Y146039D01*
X362253Y146017D01*
X362324Y146009D01*
X362394Y145991D01*
X362446Y145995D01*
X362497Y145990D01*
X362568Y146005D01*
X362639Y146011D01*
X362687Y146031D01*
X362738Y146042D01*
X362799Y146079D01*
X362865Y146107D01*
X362921Y146152D01*
X362949Y146168D01*
X362964Y146186D01*
X362996Y146212D01*
X363567Y146783D01*
X366638Y148055D01*
X369962Y148055D01*
X373033Y146783D01*
X375383Y144433D01*
X376655Y141362D01*
X376655Y139205D01*
X376665Y139140D01*
X376666Y139075D01*
X376689Y138995D01*
X376694Y138962D01*
X376704Y138945D01*
X376713Y138914D01*
X376937Y138373D01*
X376937Y84774D01*
X376951Y84684D01*
X376959Y84593D01*
X376971Y84563D01*
X376976Y84531D01*
X377019Y84451D01*
X377055Y84367D01*
X377081Y84335D01*
X377092Y84314D01*
X377115Y84292D01*
X377126Y84277D01*
X377133Y84266D01*
X377140Y84260D01*
X377160Y84236D01*
X377923Y83473D01*
X378802Y81349D01*
X378840Y81288D01*
X378869Y81223D01*
X378904Y81185D01*
X378932Y81140D01*
X378987Y81095D01*
X379036Y81042D01*
X379081Y81017D01*
X379121Y80983D01*
X379188Y80958D01*
X379251Y80923D01*
X379302Y80914D01*
X379351Y80895D01*
X379423Y80892D01*
X379493Y80879D01*
X379545Y80887D01*
X379597Y80885D01*
X379666Y80905D01*
X379737Y80915D01*
X379783Y80939D01*
X379833Y80953D01*
X379892Y80994D01*
X379956Y81027D01*
X379992Y81064D01*
X380035Y81094D01*
X380078Y81151D01*
X380128Y81202D01*
X380163Y81265D01*
X380182Y81291D01*
X380189Y81313D01*
X380209Y81349D01*
X382287Y86366D01*
X385553Y89632D01*
X385564Y89648D01*
X385580Y89660D01*
X385636Y89748D01*
X385696Y89831D01*
X385702Y89850D01*
X385713Y89867D01*
X385738Y89968D01*
X385768Y90067D01*
X385768Y90086D01*
X385773Y90106D01*
X385765Y90209D01*
X385762Y90312D01*
X385755Y90331D01*
X385754Y90351D01*
X385713Y90446D01*
X385678Y90543D01*
X385665Y90559D01*
X385657Y90577D01*
X385553Y90708D01*
X382287Y93974D01*
X380237Y98922D01*
X380237Y104278D01*
X382287Y109226D01*
X386074Y113013D01*
X391022Y115063D01*
X396378Y115063D01*
X401326Y113013D01*
X405113Y109226D01*
X407163Y104278D01*
X407163Y98922D01*
X405113Y93974D01*
X401847Y90708D01*
X401836Y90692D01*
X401820Y90680D01*
X401764Y90592D01*
X401704Y90509D01*
X401698Y90490D01*
X401687Y90473D01*
X401662Y90372D01*
X401632Y90273D01*
X401632Y90254D01*
X401627Y90234D01*
X401635Y90131D01*
X401638Y90028D01*
X401645Y90009D01*
X401646Y89989D01*
X401687Y89894D01*
X401722Y89797D01*
X401735Y89781D01*
X401743Y89763D01*
X401847Y89632D01*
X405113Y86366D01*
X407163Y81418D01*
X407163Y76062D01*
X405113Y71114D01*
X401326Y67327D01*
X396378Y65277D01*
X391022Y65277D01*
G37*
%LPD*%
%LPC*%
G36*
X437476Y182145D02*
X437476Y182145D01*
X434405Y183417D01*
X433642Y184180D01*
X433568Y184233D01*
X433499Y184293D01*
X433469Y184305D01*
X433443Y184324D01*
X433356Y184351D01*
X433271Y184385D01*
X433230Y184389D01*
X433207Y184396D01*
X433175Y184395D01*
X433104Y184403D01*
X417887Y184403D01*
X415646Y185331D01*
X388531Y212446D01*
X387603Y214687D01*
X387603Y349566D01*
X387589Y349656D01*
X387581Y349747D01*
X387569Y349777D01*
X387564Y349809D01*
X387521Y349889D01*
X387485Y349973D01*
X387459Y350005D01*
X387448Y350026D01*
X387425Y350048D01*
X387380Y350104D01*
X386617Y350867D01*
X386420Y351345D01*
X386395Y351384D01*
X386380Y351427D01*
X386331Y351488D01*
X386290Y351554D01*
X386255Y351583D01*
X386226Y351619D01*
X386160Y351661D01*
X386100Y351711D01*
X386058Y351727D01*
X386019Y351752D01*
X385943Y351771D01*
X385871Y351799D01*
X385825Y351801D01*
X385780Y351812D01*
X385703Y351806D01*
X385625Y351809D01*
X385581Y351796D01*
X385535Y351793D01*
X385464Y351762D01*
X385389Y351741D01*
X385351Y351714D01*
X385309Y351696D01*
X385202Y351611D01*
X385187Y351600D01*
X385184Y351596D01*
X385178Y351592D01*
X380550Y346963D01*
X371290Y346963D01*
X364743Y353510D01*
X364743Y362770D01*
X371290Y369317D01*
X380550Y369317D01*
X387097Y362770D01*
X387097Y362650D01*
X387108Y362579D01*
X387110Y362507D01*
X387128Y362459D01*
X387136Y362407D01*
X387170Y362344D01*
X387195Y362276D01*
X387227Y362236D01*
X387252Y362190D01*
X387303Y362140D01*
X387348Y362084D01*
X387392Y362056D01*
X387430Y362020D01*
X387495Y361990D01*
X387555Y361951D01*
X387606Y361939D01*
X387653Y361917D01*
X387724Y361909D01*
X387794Y361891D01*
X387846Y361895D01*
X387897Y361890D01*
X387968Y361905D01*
X388039Y361911D01*
X388087Y361931D01*
X388138Y361942D01*
X388199Y361979D01*
X388265Y362007D01*
X388321Y362052D01*
X388349Y362068D01*
X388364Y362086D01*
X388396Y362112D01*
X388967Y362683D01*
X392038Y363955D01*
X395362Y363955D01*
X398433Y362683D01*
X400783Y360333D01*
X402055Y357262D01*
X402055Y353938D01*
X400783Y350867D01*
X400020Y350104D01*
X399967Y350030D01*
X399907Y349961D01*
X399895Y349931D01*
X399876Y349905D01*
X399849Y349818D01*
X399815Y349733D01*
X399811Y349692D01*
X399804Y349669D01*
X399805Y349637D01*
X399797Y349566D01*
X399797Y218741D01*
X399802Y218707D01*
X399801Y218698D01*
X399812Y218650D01*
X399819Y218560D01*
X399831Y218530D01*
X399836Y218498D01*
X399850Y218472D01*
X399853Y218457D01*
X399883Y218407D01*
X399915Y218333D01*
X399941Y218301D01*
X399952Y218281D01*
X399969Y218264D01*
X399980Y218246D01*
X399995Y218233D01*
X400020Y218202D01*
X421402Y196820D01*
X421476Y196767D01*
X421546Y196707D01*
X421576Y196695D01*
X421602Y196676D01*
X421689Y196649D01*
X421774Y196615D01*
X421815Y196611D01*
X421837Y196604D01*
X421869Y196605D01*
X421941Y196597D01*
X433104Y196597D01*
X433194Y196611D01*
X433285Y196619D01*
X433315Y196631D01*
X433347Y196636D01*
X433427Y196679D01*
X433511Y196715D01*
X433543Y196741D01*
X433564Y196752D01*
X433586Y196775D01*
X433642Y196820D01*
X434405Y197583D01*
X437476Y198855D01*
X440800Y198855D01*
X443871Y197583D01*
X446221Y195233D01*
X447493Y192162D01*
X447493Y188838D01*
X446221Y185767D01*
X443871Y183417D01*
X440800Y182145D01*
X437476Y182145D01*
G37*
%LPD*%
%LPC*%
G36*
X176138Y156745D02*
X176138Y156745D01*
X173067Y158017D01*
X170717Y160367D01*
X169445Y163438D01*
X169445Y166762D01*
X170717Y169833D01*
X171480Y170596D01*
X171533Y170670D01*
X171593Y170739D01*
X171605Y170769D01*
X171624Y170795D01*
X171651Y170882D01*
X171685Y170967D01*
X171689Y171008D01*
X171696Y171031D01*
X171695Y171063D01*
X171703Y171134D01*
X171703Y387666D01*
X171689Y387756D01*
X171681Y387847D01*
X171669Y387877D01*
X171664Y387909D01*
X171621Y387989D01*
X171585Y388073D01*
X171559Y388105D01*
X171548Y388126D01*
X171525Y388148D01*
X171480Y388204D01*
X170717Y388967D01*
X169445Y392038D01*
X169445Y395362D01*
X170717Y398433D01*
X173067Y400783D01*
X176138Y402055D01*
X179462Y402055D01*
X182533Y400783D01*
X184883Y398433D01*
X186155Y395362D01*
X186155Y392038D01*
X184883Y388967D01*
X184120Y388204D01*
X184067Y388130D01*
X184007Y388061D01*
X183995Y388031D01*
X183976Y388005D01*
X183949Y387918D01*
X183915Y387833D01*
X183911Y387792D01*
X183904Y387769D01*
X183905Y387737D01*
X183897Y387666D01*
X183897Y171134D01*
X183911Y171044D01*
X183919Y170953D01*
X183931Y170923D01*
X183936Y170891D01*
X183979Y170811D01*
X184015Y170727D01*
X184041Y170695D01*
X184052Y170674D01*
X184075Y170652D01*
X184120Y170596D01*
X184883Y169833D01*
X186155Y166762D01*
X186155Y163438D01*
X184883Y160367D01*
X182533Y158017D01*
X179462Y156745D01*
X176138Y156745D01*
G37*
%LPD*%
%LPC*%
G36*
X450849Y20319D02*
X450849Y20319D01*
X450849Y21082D01*
X450846Y21102D01*
X450848Y21121D01*
X450826Y21223D01*
X450809Y21325D01*
X450800Y21342D01*
X450796Y21362D01*
X450743Y21451D01*
X450694Y21542D01*
X450680Y21556D01*
X450670Y21573D01*
X450591Y21640D01*
X450516Y21711D01*
X450498Y21720D01*
X450483Y21733D01*
X450387Y21772D01*
X450293Y21815D01*
X450273Y21817D01*
X450255Y21825D01*
X450088Y21843D01*
X439004Y21843D01*
X439205Y23116D01*
X439786Y24903D01*
X440639Y26577D01*
X441744Y28098D01*
X443072Y29426D01*
X444593Y30531D01*
X446267Y31384D01*
X446554Y31477D01*
X446644Y31524D01*
X446736Y31565D01*
X446752Y31580D01*
X446772Y31590D01*
X446843Y31663D01*
X446917Y31731D01*
X446928Y31751D01*
X446943Y31767D01*
X446987Y31858D01*
X447036Y31947D01*
X447040Y31969D01*
X447049Y31989D01*
X447062Y32089D01*
X447080Y32189D01*
X447076Y32211D01*
X447079Y32233D01*
X447059Y32332D01*
X447044Y32432D01*
X447034Y32452D01*
X447029Y32474D01*
X446978Y32561D01*
X446932Y32651D01*
X446916Y32667D01*
X446905Y32686D01*
X446829Y32753D01*
X446757Y32824D01*
X446733Y32837D01*
X446720Y32848D01*
X446690Y32860D01*
X446610Y32904D01*
X443224Y34307D01*
X439437Y38094D01*
X437387Y43042D01*
X437387Y48398D01*
X439437Y53346D01*
X443224Y57133D01*
X444633Y57717D01*
X444694Y57755D01*
X444759Y57784D01*
X444798Y57819D01*
X444842Y57846D01*
X444888Y57902D01*
X444940Y57950D01*
X444965Y57996D01*
X444999Y58036D01*
X445024Y58103D01*
X445059Y58166D01*
X445068Y58217D01*
X445087Y58265D01*
X445090Y58337D01*
X445103Y58408D01*
X445095Y58459D01*
X445097Y58511D01*
X445077Y58580D01*
X445067Y58651D01*
X445043Y58697D01*
X445029Y58747D01*
X444988Y58806D01*
X444955Y58870D01*
X444918Y58907D01*
X444888Y58949D01*
X444831Y58992D01*
X444780Y59042D01*
X444717Y59077D01*
X444691Y59096D01*
X444669Y59103D01*
X444633Y59123D01*
X443224Y59707D01*
X439437Y63494D01*
X437387Y68442D01*
X437387Y73798D01*
X439437Y78746D01*
X443224Y82533D01*
X444633Y83117D01*
X444694Y83155D01*
X444759Y83184D01*
X444798Y83219D01*
X444842Y83246D01*
X444888Y83302D01*
X444940Y83350D01*
X444965Y83396D01*
X444999Y83436D01*
X445024Y83503D01*
X445059Y83566D01*
X445068Y83617D01*
X445087Y83665D01*
X445090Y83737D01*
X445103Y83808D01*
X445095Y83859D01*
X445097Y83911D01*
X445077Y83980D01*
X445067Y84051D01*
X445043Y84097D01*
X445029Y84147D01*
X444988Y84206D01*
X444955Y84270D01*
X444918Y84307D01*
X444888Y84349D01*
X444831Y84392D01*
X444780Y84442D01*
X444717Y84477D01*
X444691Y84496D01*
X444669Y84503D01*
X444633Y84523D01*
X443224Y85107D01*
X439437Y88894D01*
X437387Y93842D01*
X437387Y99198D01*
X439437Y104146D01*
X443224Y107933D01*
X448172Y109983D01*
X453528Y109983D01*
X458476Y107933D01*
X462263Y104146D01*
X464313Y99198D01*
X464313Y93842D01*
X462263Y88894D01*
X458476Y85107D01*
X457067Y84523D01*
X457006Y84486D01*
X456941Y84456D01*
X456902Y84421D01*
X456858Y84394D01*
X456812Y84338D01*
X456760Y84290D01*
X456735Y84244D01*
X456701Y84204D01*
X456676Y84137D01*
X456641Y84074D01*
X456632Y84023D01*
X456613Y83975D01*
X456610Y83903D01*
X456597Y83832D01*
X456605Y83781D01*
X456603Y83729D01*
X456623Y83660D01*
X456633Y83589D01*
X456657Y83543D01*
X456671Y83493D01*
X456712Y83434D01*
X456745Y83370D01*
X456782Y83333D01*
X456812Y83291D01*
X456869Y83248D01*
X456920Y83198D01*
X456983Y83163D01*
X457009Y83144D01*
X457031Y83137D01*
X457067Y83117D01*
X458476Y82533D01*
X462263Y78746D01*
X464313Y73798D01*
X464313Y68442D01*
X462263Y63494D01*
X458476Y59707D01*
X457067Y59123D01*
X457006Y59086D01*
X456941Y59056D01*
X456902Y59021D01*
X456858Y58994D01*
X456812Y58938D01*
X456760Y58890D01*
X456735Y58844D01*
X456701Y58804D01*
X456676Y58737D01*
X456641Y58674D01*
X456632Y58623D01*
X456613Y58575D01*
X456610Y58503D01*
X456597Y58432D01*
X456605Y58381D01*
X456603Y58329D01*
X456623Y58260D01*
X456633Y58189D01*
X456657Y58143D01*
X456671Y58093D01*
X456712Y58034D01*
X456745Y57970D01*
X456782Y57933D01*
X456812Y57891D01*
X456869Y57848D01*
X456920Y57798D01*
X456983Y57763D01*
X457009Y57744D01*
X457031Y57737D01*
X457067Y57717D01*
X458476Y57133D01*
X462263Y53346D01*
X464313Y48398D01*
X464313Y43042D01*
X462263Y38094D01*
X458476Y34307D01*
X455090Y32904D01*
X455004Y32851D01*
X454915Y32803D01*
X454900Y32786D01*
X454881Y32775D01*
X454817Y32697D01*
X454748Y32623D01*
X454739Y32602D01*
X454724Y32585D01*
X454688Y32491D01*
X454646Y32398D01*
X454644Y32376D01*
X454636Y32356D01*
X454632Y32255D01*
X454622Y32154D01*
X454627Y32132D01*
X454626Y32110D01*
X454654Y32013D01*
X454677Y31914D01*
X454688Y31895D01*
X454694Y31874D01*
X454752Y31791D01*
X454805Y31704D01*
X454822Y31690D01*
X454835Y31672D01*
X454916Y31611D01*
X454994Y31546D01*
X455018Y31535D01*
X455032Y31525D01*
X455063Y31515D01*
X455146Y31477D01*
X455433Y31384D01*
X457107Y30531D01*
X458628Y29426D01*
X459956Y28098D01*
X461061Y26577D01*
X461914Y24903D01*
X462495Y23116D01*
X462696Y21843D01*
X451612Y21843D01*
X451592Y21840D01*
X451573Y21842D01*
X451471Y21820D01*
X451369Y21803D01*
X451352Y21794D01*
X451332Y21790D01*
X451243Y21737D01*
X451152Y21688D01*
X451138Y21674D01*
X451121Y21664D01*
X451054Y21585D01*
X450983Y21510D01*
X450974Y21492D01*
X450961Y21477D01*
X450923Y21381D01*
X450879Y21287D01*
X450877Y21267D01*
X450869Y21249D01*
X450851Y21082D01*
X450851Y20319D01*
X450849Y20319D01*
G37*
%LPD*%
%LPC*%
G36*
X320490Y407923D02*
X320490Y407923D01*
X313943Y414470D01*
X313943Y423730D01*
X318800Y428587D01*
X318853Y428661D01*
X318913Y428730D01*
X318925Y428760D01*
X318944Y428786D01*
X318971Y428873D01*
X319005Y428958D01*
X319009Y428999D01*
X319016Y429021D01*
X319015Y429054D01*
X319023Y429125D01*
X319023Y453333D01*
X319951Y455574D01*
X324955Y460577D01*
X324991Y460627D01*
X325034Y460670D01*
X325043Y460687D01*
X325912Y461534D01*
X325914Y461537D01*
X325919Y461541D01*
X326774Y462396D01*
X327898Y462846D01*
X327901Y462847D01*
X327907Y462849D01*
X329032Y463315D01*
X329090Y463331D01*
X329122Y463336D01*
X329136Y463344D01*
X329162Y463351D01*
X382045Y484504D01*
X382149Y484567D01*
X382253Y484629D01*
X382254Y484630D01*
X382255Y484631D01*
X382333Y484723D01*
X382413Y484816D01*
X382413Y484818D01*
X382414Y484819D01*
X382457Y484926D01*
X382505Y485044D01*
X382505Y485046D01*
X382505Y485047D01*
X382506Y485053D01*
X382523Y485211D01*
X382523Y487230D01*
X389070Y493777D01*
X398330Y493777D01*
X404877Y487230D01*
X404877Y477970D01*
X398330Y471423D01*
X389070Y471423D01*
X387455Y473039D01*
X387364Y473104D01*
X387275Y473172D01*
X387264Y473176D01*
X387255Y473182D01*
X387148Y473215D01*
X387042Y473251D01*
X387031Y473251D01*
X387020Y473255D01*
X386908Y473252D01*
X386796Y473252D01*
X386783Y473248D01*
X386774Y473248D01*
X386750Y473239D01*
X386634Y473207D01*
X333771Y452062D01*
X333711Y452026D01*
X333647Y451998D01*
X333588Y451952D01*
X333561Y451935D01*
X333546Y451918D01*
X333516Y451894D01*
X331440Y449818D01*
X331387Y449744D01*
X331327Y449674D01*
X331315Y449644D01*
X331296Y449618D01*
X331269Y449531D01*
X331235Y449446D01*
X331231Y449405D01*
X331224Y449383D01*
X331225Y449351D01*
X331217Y449279D01*
X331217Y429125D01*
X331231Y429035D01*
X331239Y428944D01*
X331251Y428914D01*
X331256Y428882D01*
X331299Y428801D01*
X331335Y428718D01*
X331361Y428685D01*
X331372Y428665D01*
X331395Y428643D01*
X331440Y428587D01*
X336297Y423730D01*
X336297Y414470D01*
X329750Y407923D01*
X320490Y407923D01*
G37*
%LPD*%
%LPC*%
G36*
X74538Y182145D02*
X74538Y182145D01*
X71467Y183417D01*
X69117Y185767D01*
X67845Y188838D01*
X67845Y192162D01*
X69117Y195233D01*
X69880Y195996D01*
X69933Y196070D01*
X69993Y196139D01*
X70005Y196169D01*
X70024Y196195D01*
X70051Y196282D01*
X70085Y196367D01*
X70089Y196408D01*
X70096Y196431D01*
X70095Y196463D01*
X70103Y196534D01*
X70103Y311466D01*
X70089Y311556D01*
X70081Y311647D01*
X70069Y311677D01*
X70064Y311709D01*
X70021Y311789D01*
X69985Y311873D01*
X69959Y311905D01*
X69948Y311926D01*
X69925Y311948D01*
X69880Y312004D01*
X69117Y312767D01*
X67845Y315838D01*
X67845Y319162D01*
X69117Y322233D01*
X71467Y324583D01*
X74538Y325855D01*
X77862Y325855D01*
X80933Y324583D01*
X83283Y322233D01*
X84555Y319162D01*
X84555Y315838D01*
X83283Y312767D01*
X82520Y312004D01*
X82467Y311930D01*
X82407Y311861D01*
X82395Y311831D01*
X82376Y311805D01*
X82349Y311718D01*
X82315Y311633D01*
X82311Y311592D01*
X82304Y311569D01*
X82305Y311537D01*
X82297Y311466D01*
X82297Y196534D01*
X82311Y196444D01*
X82319Y196353D01*
X82331Y196323D01*
X82336Y196291D01*
X82379Y196211D01*
X82415Y196127D01*
X82441Y196095D01*
X82452Y196074D01*
X82475Y196052D01*
X82520Y195996D01*
X83283Y195233D01*
X84555Y192162D01*
X84555Y188838D01*
X83283Y185767D01*
X80933Y183417D01*
X77862Y182145D01*
X74538Y182145D01*
G37*
%LPD*%
%LPC*%
G36*
X90620Y338073D02*
X90620Y338073D01*
X84073Y344620D01*
X84073Y353880D01*
X88930Y358737D01*
X88983Y358811D01*
X89043Y358880D01*
X89055Y358910D01*
X89074Y358936D01*
X89101Y359023D01*
X89135Y359108D01*
X89139Y359149D01*
X89146Y359171D01*
X89145Y359204D01*
X89153Y359275D01*
X89153Y363163D01*
X90081Y365404D01*
X120680Y396002D01*
X120733Y396076D01*
X120793Y396146D01*
X120805Y396176D01*
X120824Y396202D01*
X120851Y396289D01*
X120885Y396374D01*
X120889Y396415D01*
X120896Y396437D01*
X120895Y396469D01*
X120903Y396541D01*
X120903Y400366D01*
X120889Y400456D01*
X120881Y400547D01*
X120869Y400577D01*
X120864Y400609D01*
X120821Y400689D01*
X120785Y400773D01*
X120759Y400805D01*
X120748Y400826D01*
X120725Y400848D01*
X120680Y400904D01*
X119917Y401667D01*
X118645Y404738D01*
X118645Y408062D01*
X119917Y411133D01*
X122267Y413483D01*
X123643Y414052D01*
X123682Y414077D01*
X123725Y414092D01*
X123785Y414141D01*
X123852Y414182D01*
X123881Y414217D01*
X123917Y414246D01*
X123959Y414312D01*
X124009Y414372D01*
X124025Y414414D01*
X124050Y414453D01*
X124069Y414529D01*
X124097Y414601D01*
X124099Y414647D01*
X124110Y414692D01*
X124104Y414769D01*
X124107Y414847D01*
X124094Y414891D01*
X124091Y414937D01*
X124060Y415008D01*
X124039Y415083D01*
X124012Y415121D01*
X123995Y415163D01*
X123909Y415270D01*
X123898Y415285D01*
X123894Y415288D01*
X123890Y415294D01*
X118363Y420820D01*
X118363Y430080D01*
X124910Y436627D01*
X134170Y436627D01*
X140717Y430080D01*
X140717Y420820D01*
X134170Y414273D01*
X132780Y414273D01*
X132709Y414262D01*
X132637Y414260D01*
X132589Y414242D01*
X132537Y414234D01*
X132474Y414200D01*
X132406Y414175D01*
X132366Y414143D01*
X132320Y414118D01*
X132270Y414066D01*
X132214Y414022D01*
X132186Y413978D01*
X132150Y413940D01*
X132120Y413875D01*
X132081Y413815D01*
X132069Y413764D01*
X132047Y413717D01*
X132039Y413646D01*
X132021Y413576D01*
X132025Y413524D01*
X132020Y413473D01*
X132035Y413402D01*
X132041Y413331D01*
X132061Y413283D01*
X132072Y413232D01*
X132109Y413171D01*
X132137Y413105D01*
X132182Y413049D01*
X132198Y413021D01*
X132216Y413006D01*
X132242Y412974D01*
X134083Y411133D01*
X135355Y408062D01*
X135355Y404738D01*
X134083Y401667D01*
X133320Y400904D01*
X133267Y400830D01*
X133207Y400761D01*
X133195Y400731D01*
X133176Y400705D01*
X133149Y400618D01*
X133115Y400533D01*
X133111Y400492D01*
X133104Y400469D01*
X133105Y400437D01*
X133097Y400366D01*
X133097Y392487D01*
X132169Y390246D01*
X101652Y359730D01*
X101641Y359714D01*
X101625Y359702D01*
X101569Y359614D01*
X101509Y359531D01*
X101503Y359512D01*
X101492Y359495D01*
X101467Y359394D01*
X101437Y359296D01*
X101437Y359276D01*
X101432Y359256D01*
X101440Y359153D01*
X101443Y359050D01*
X101450Y359031D01*
X101451Y359011D01*
X101492Y358916D01*
X101527Y358819D01*
X101540Y358803D01*
X101548Y358785D01*
X101652Y358654D01*
X106427Y353880D01*
X106427Y344620D01*
X99880Y338073D01*
X90620Y338073D01*
G37*
%LPD*%
%LPC*%
G36*
X345890Y423163D02*
X345890Y423163D01*
X339343Y429710D01*
X339343Y438970D01*
X345890Y445517D01*
X352759Y445517D01*
X352849Y445531D01*
X352940Y445539D01*
X352970Y445551D01*
X353002Y445556D01*
X353083Y445599D01*
X353167Y445635D01*
X353199Y445661D01*
X353219Y445672D01*
X353242Y445695D01*
X353298Y445740D01*
X369926Y462369D01*
X372167Y463297D01*
X383675Y463297D01*
X383765Y463311D01*
X383856Y463319D01*
X383886Y463331D01*
X383918Y463336D01*
X383999Y463379D01*
X384082Y463415D01*
X384115Y463441D01*
X384135Y463452D01*
X384157Y463475D01*
X384213Y463520D01*
X389070Y468377D01*
X398330Y468377D01*
X404877Y461830D01*
X404877Y452570D01*
X398330Y446023D01*
X389070Y446023D01*
X384213Y450880D01*
X384139Y450933D01*
X384070Y450993D01*
X384040Y451005D01*
X384014Y451024D01*
X383927Y451051D01*
X383842Y451085D01*
X383801Y451089D01*
X383779Y451096D01*
X383746Y451095D01*
X383675Y451103D01*
X376221Y451103D01*
X376131Y451089D01*
X376040Y451081D01*
X376010Y451069D01*
X375978Y451064D01*
X375897Y451021D01*
X375813Y450985D01*
X375781Y450959D01*
X375761Y450948D01*
X375738Y450925D01*
X375682Y450880D01*
X371618Y446816D01*
X371576Y446758D01*
X371527Y446706D01*
X371505Y446659D01*
X371475Y446617D01*
X371454Y446548D01*
X371423Y446483D01*
X371418Y446431D01*
X371402Y446381D01*
X371404Y446310D01*
X371396Y446239D01*
X371407Y446188D01*
X371409Y446136D01*
X371433Y446068D01*
X371449Y445998D01*
X371475Y445953D01*
X371493Y445905D01*
X371538Y445849D01*
X371575Y445787D01*
X371614Y445753D01*
X371647Y445713D01*
X371707Y445674D01*
X371762Y445627D01*
X371810Y445608D01*
X371854Y445580D01*
X371923Y445562D01*
X371990Y445535D01*
X372061Y445527D01*
X372092Y445519D01*
X372116Y445521D01*
X372157Y445517D01*
X380550Y445517D01*
X387097Y438970D01*
X387097Y429710D01*
X380550Y423163D01*
X371290Y423163D01*
X364743Y429710D01*
X364743Y438103D01*
X364732Y438174D01*
X364730Y438246D01*
X364712Y438295D01*
X364704Y438346D01*
X364670Y438409D01*
X364645Y438477D01*
X364613Y438517D01*
X364588Y438564D01*
X364536Y438613D01*
X364492Y438669D01*
X364448Y438697D01*
X364410Y438733D01*
X364345Y438763D01*
X364285Y438802D01*
X364234Y438815D01*
X364187Y438837D01*
X364116Y438844D01*
X364046Y438862D01*
X363994Y438858D01*
X363943Y438864D01*
X363872Y438848D01*
X363801Y438843D01*
X363753Y438822D01*
X363702Y438811D01*
X363641Y438775D01*
X363575Y438746D01*
X363519Y438702D01*
X363491Y438685D01*
X363476Y438667D01*
X363444Y438642D01*
X361920Y437118D01*
X361867Y437044D01*
X361807Y436974D01*
X361795Y436944D01*
X361776Y436918D01*
X361749Y436831D01*
X361715Y436746D01*
X361711Y436705D01*
X361704Y436683D01*
X361705Y436651D01*
X361697Y436579D01*
X361697Y429710D01*
X355150Y423163D01*
X345890Y423163D01*
G37*
%LPD*%
%LPC*%
G36*
X25399Y38099D02*
X25399Y38099D01*
X25399Y38862D01*
X25396Y38882D01*
X25398Y38901D01*
X25376Y39003D01*
X25359Y39105D01*
X25350Y39122D01*
X25346Y39142D01*
X25293Y39231D01*
X25244Y39322D01*
X25230Y39336D01*
X25220Y39353D01*
X25141Y39420D01*
X25066Y39491D01*
X25048Y39500D01*
X25033Y39513D01*
X24937Y39552D01*
X24843Y39595D01*
X24823Y39597D01*
X24805Y39605D01*
X24638Y39623D01*
X13554Y39623D01*
X13755Y40896D01*
X14336Y42683D01*
X15189Y44357D01*
X16294Y45878D01*
X17622Y47206D01*
X19143Y48311D01*
X20817Y49164D01*
X21104Y49257D01*
X21194Y49304D01*
X21286Y49345D01*
X21302Y49360D01*
X21322Y49370D01*
X21393Y49443D01*
X21467Y49511D01*
X21478Y49531D01*
X21493Y49547D01*
X21537Y49638D01*
X21586Y49727D01*
X21590Y49749D01*
X21599Y49769D01*
X21612Y49869D01*
X21630Y49969D01*
X21626Y49991D01*
X21629Y50013D01*
X21609Y50112D01*
X21594Y50212D01*
X21584Y50232D01*
X21579Y50254D01*
X21528Y50341D01*
X21482Y50431D01*
X21466Y50447D01*
X21455Y50466D01*
X21379Y50533D01*
X21307Y50604D01*
X21283Y50617D01*
X21270Y50628D01*
X21240Y50640D01*
X21160Y50684D01*
X17774Y52087D01*
X13987Y55874D01*
X11937Y60822D01*
X11937Y66178D01*
X13987Y71126D01*
X17774Y74913D01*
X19183Y75497D01*
X19244Y75534D01*
X19309Y75564D01*
X19348Y75599D01*
X19392Y75626D01*
X19438Y75682D01*
X19490Y75730D01*
X19515Y75776D01*
X19549Y75816D01*
X19574Y75883D01*
X19609Y75946D01*
X19618Y75997D01*
X19637Y76045D01*
X19640Y76117D01*
X19653Y76188D01*
X19645Y76239D01*
X19647Y76291D01*
X19627Y76360D01*
X19617Y76431D01*
X19593Y76477D01*
X19579Y76527D01*
X19538Y76586D01*
X19505Y76650D01*
X19468Y76687D01*
X19438Y76729D01*
X19381Y76772D01*
X19330Y76822D01*
X19267Y76857D01*
X19241Y76876D01*
X19219Y76883D01*
X19183Y76903D01*
X17774Y77487D01*
X13987Y81274D01*
X11937Y86222D01*
X11937Y91578D01*
X13987Y96526D01*
X17774Y100313D01*
X22722Y102363D01*
X28078Y102363D01*
X33026Y100313D01*
X36813Y96526D01*
X38863Y91578D01*
X38863Y86222D01*
X36813Y81274D01*
X33026Y77487D01*
X31617Y76903D01*
X31556Y76865D01*
X31491Y76836D01*
X31452Y76801D01*
X31408Y76774D01*
X31362Y76718D01*
X31310Y76670D01*
X31285Y76624D01*
X31251Y76584D01*
X31226Y76517D01*
X31191Y76454D01*
X31182Y76403D01*
X31163Y76355D01*
X31160Y76283D01*
X31147Y76212D01*
X31155Y76161D01*
X31153Y76109D01*
X31173Y76040D01*
X31183Y75969D01*
X31207Y75923D01*
X31221Y75873D01*
X31262Y75814D01*
X31295Y75750D01*
X31332Y75713D01*
X31362Y75671D01*
X31419Y75628D01*
X31470Y75578D01*
X31533Y75543D01*
X31559Y75524D01*
X31581Y75517D01*
X31617Y75497D01*
X33026Y74913D01*
X36813Y71126D01*
X38863Y66178D01*
X38863Y60822D01*
X36813Y55874D01*
X33026Y52087D01*
X29640Y50684D01*
X29554Y50631D01*
X29465Y50583D01*
X29450Y50566D01*
X29431Y50555D01*
X29367Y50477D01*
X29298Y50403D01*
X29289Y50382D01*
X29274Y50365D01*
X29238Y50271D01*
X29196Y50178D01*
X29194Y50156D01*
X29186Y50136D01*
X29182Y50035D01*
X29172Y49934D01*
X29177Y49912D01*
X29176Y49890D01*
X29204Y49793D01*
X29227Y49694D01*
X29238Y49675D01*
X29244Y49654D01*
X29302Y49571D01*
X29355Y49484D01*
X29372Y49470D01*
X29385Y49452D01*
X29466Y49391D01*
X29544Y49326D01*
X29568Y49315D01*
X29582Y49305D01*
X29613Y49295D01*
X29696Y49257D01*
X29983Y49164D01*
X31657Y48311D01*
X33178Y47206D01*
X34506Y45878D01*
X35611Y44357D01*
X36464Y42683D01*
X37045Y40896D01*
X37246Y39623D01*
X26162Y39623D01*
X26142Y39620D01*
X26123Y39622D01*
X26021Y39600D01*
X25919Y39583D01*
X25902Y39574D01*
X25882Y39570D01*
X25793Y39517D01*
X25702Y39468D01*
X25688Y39454D01*
X25671Y39444D01*
X25604Y39365D01*
X25533Y39290D01*
X25524Y39272D01*
X25511Y39257D01*
X25473Y39161D01*
X25429Y39067D01*
X25427Y39047D01*
X25419Y39029D01*
X25401Y38862D01*
X25401Y38099D01*
X25399Y38099D01*
G37*
%LPD*%
%LPC*%
G36*
X74538Y55145D02*
X74538Y55145D01*
X71467Y56417D01*
X69117Y58767D01*
X67845Y61838D01*
X67845Y65162D01*
X69029Y68020D01*
X69044Y68084D01*
X69069Y68145D01*
X69078Y68228D01*
X69085Y68260D01*
X69084Y68279D01*
X69087Y68312D01*
X69087Y109488D01*
X69077Y109553D01*
X69076Y109618D01*
X69053Y109698D01*
X69048Y109731D01*
X69038Y109748D01*
X69029Y109780D01*
X67845Y112638D01*
X67845Y115962D01*
X69117Y119033D01*
X71467Y121383D01*
X74538Y122655D01*
X77862Y122655D01*
X80933Y121383D01*
X83283Y119033D01*
X84555Y115962D01*
X84555Y112638D01*
X83371Y109780D01*
X83356Y109716D01*
X83331Y109655D01*
X83322Y109572D01*
X83315Y109540D01*
X83316Y109521D01*
X83313Y109488D01*
X83313Y68312D01*
X83323Y68247D01*
X83324Y68182D01*
X83347Y68102D01*
X83352Y68069D01*
X83362Y68052D01*
X83371Y68020D01*
X84555Y65162D01*
X84555Y61838D01*
X83283Y58767D01*
X80933Y56417D01*
X77862Y55145D01*
X74538Y55145D01*
G37*
%LPD*%
%LPC*%
G36*
X156209Y22859D02*
X156209Y22859D01*
X156209Y23622D01*
X156206Y23642D01*
X156208Y23661D01*
X156186Y23763D01*
X156169Y23865D01*
X156160Y23882D01*
X156156Y23902D01*
X156103Y23991D01*
X156054Y24082D01*
X156040Y24096D01*
X156030Y24113D01*
X155951Y24180D01*
X155876Y24251D01*
X155858Y24260D01*
X155843Y24273D01*
X155747Y24312D01*
X155653Y24355D01*
X155633Y24357D01*
X155615Y24365D01*
X155448Y24383D01*
X144364Y24383D01*
X144565Y25656D01*
X145146Y27443D01*
X145999Y29117D01*
X147104Y30638D01*
X148432Y31966D01*
X149953Y33071D01*
X151627Y33924D01*
X151914Y34017D01*
X152004Y34064D01*
X152096Y34105D01*
X152112Y34120D01*
X152132Y34130D01*
X152203Y34203D01*
X152277Y34271D01*
X152288Y34291D01*
X152303Y34307D01*
X152347Y34398D01*
X152396Y34487D01*
X152400Y34509D01*
X152409Y34529D01*
X152422Y34629D01*
X152440Y34729D01*
X152436Y34751D01*
X152439Y34773D01*
X152419Y34872D01*
X152404Y34972D01*
X152394Y34992D01*
X152389Y35014D01*
X152338Y35101D01*
X152292Y35191D01*
X152276Y35207D01*
X152265Y35226D01*
X152189Y35293D01*
X152117Y35364D01*
X152093Y35377D01*
X152080Y35388D01*
X152050Y35400D01*
X151970Y35444D01*
X148584Y36847D01*
X144797Y40634D01*
X142747Y45582D01*
X142747Y50938D01*
X144797Y55886D01*
X148584Y59673D01*
X153532Y61723D01*
X158888Y61723D01*
X163836Y59673D01*
X167623Y55886D01*
X169673Y50938D01*
X169673Y45582D01*
X167623Y40634D01*
X163836Y36847D01*
X160450Y35444D01*
X160364Y35391D01*
X160275Y35343D01*
X160260Y35326D01*
X160241Y35315D01*
X160177Y35237D01*
X160108Y35163D01*
X160099Y35142D01*
X160084Y35125D01*
X160048Y35031D01*
X160006Y34938D01*
X160004Y34916D01*
X159996Y34896D01*
X159992Y34795D01*
X159982Y34694D01*
X159987Y34672D01*
X159986Y34650D01*
X160014Y34553D01*
X160037Y34454D01*
X160048Y34435D01*
X160054Y34414D01*
X160112Y34330D01*
X160165Y34244D01*
X160182Y34230D01*
X160195Y34212D01*
X160276Y34151D01*
X160354Y34086D01*
X160378Y34075D01*
X160392Y34065D01*
X160423Y34055D01*
X160506Y34017D01*
X160793Y33924D01*
X162467Y33071D01*
X163988Y31966D01*
X165316Y30638D01*
X166421Y29117D01*
X167274Y27443D01*
X167855Y25656D01*
X168056Y24383D01*
X156972Y24383D01*
X156952Y24380D01*
X156933Y24382D01*
X156831Y24360D01*
X156729Y24343D01*
X156712Y24334D01*
X156692Y24330D01*
X156603Y24277D01*
X156512Y24228D01*
X156498Y24214D01*
X156481Y24204D01*
X156414Y24125D01*
X156343Y24050D01*
X156334Y24032D01*
X156321Y24017D01*
X156283Y23921D01*
X156239Y23827D01*
X156237Y23807D01*
X156229Y23789D01*
X156211Y23622D01*
X156211Y22859D01*
X156209Y22859D01*
G37*
%LPD*%
%LPC*%
G36*
X282765Y280923D02*
X282765Y280923D01*
X278657Y282625D01*
X275513Y285769D01*
X273811Y289877D01*
X273811Y294323D01*
X275513Y298431D01*
X278657Y301575D01*
X282765Y303277D01*
X301435Y303277D01*
X305543Y301575D01*
X308687Y298431D01*
X310389Y294323D01*
X310389Y289877D01*
X308687Y285769D01*
X305543Y282625D01*
X301435Y280923D01*
X282765Y280923D01*
G37*
%LPD*%
%LPC*%
G36*
X282765Y255523D02*
X282765Y255523D01*
X278657Y257225D01*
X275513Y260369D01*
X273811Y264477D01*
X273811Y268923D01*
X275513Y273031D01*
X278657Y276175D01*
X282765Y277877D01*
X301435Y277877D01*
X305543Y276175D01*
X308687Y273031D01*
X310389Y268923D01*
X310389Y264477D01*
X308687Y260369D01*
X305543Y257225D01*
X301435Y255523D01*
X282765Y255523D01*
G37*
%LPD*%
%LPC*%
G36*
X282765Y306323D02*
X282765Y306323D01*
X278657Y308025D01*
X275513Y311169D01*
X273811Y315277D01*
X273811Y319723D01*
X275513Y323831D01*
X278657Y326975D01*
X282765Y328677D01*
X301435Y328677D01*
X305543Y326975D01*
X308687Y323831D01*
X310389Y319723D01*
X310389Y315277D01*
X308687Y311169D01*
X305543Y308025D01*
X301435Y306323D01*
X282765Y306323D01*
G37*
%LPD*%
%LPC*%
G36*
X282765Y230123D02*
X282765Y230123D01*
X278657Y231825D01*
X275513Y234969D01*
X273811Y239077D01*
X273811Y243523D01*
X275513Y247631D01*
X278657Y250775D01*
X282765Y252477D01*
X301435Y252477D01*
X305543Y250775D01*
X308687Y247631D01*
X310389Y243523D01*
X310389Y239077D01*
X308687Y234969D01*
X305543Y231825D01*
X301435Y230123D01*
X282765Y230123D01*
G37*
%LPD*%
%LPC*%
G36*
X206565Y280923D02*
X206565Y280923D01*
X202457Y282625D01*
X199313Y285769D01*
X197611Y289877D01*
X197611Y294323D01*
X199313Y298431D01*
X202457Y301575D01*
X206565Y303277D01*
X225235Y303277D01*
X229343Y301575D01*
X232487Y298431D01*
X234189Y294323D01*
X234189Y289877D01*
X232487Y285769D01*
X229343Y282625D01*
X225235Y280923D01*
X206565Y280923D01*
G37*
%LPD*%
%LPC*%
G36*
X206565Y77723D02*
X206565Y77723D01*
X202457Y79425D01*
X199313Y82569D01*
X197611Y86677D01*
X197611Y91123D01*
X199313Y95231D01*
X202457Y98375D01*
X206565Y100077D01*
X225235Y100077D01*
X229343Y98375D01*
X232487Y95231D01*
X234189Y91123D01*
X234189Y86677D01*
X232487Y82569D01*
X229343Y79425D01*
X225235Y77723D01*
X206565Y77723D01*
G37*
%LPD*%
G36*
X234507Y421946D02*
X234507Y421946D01*
X234533Y421945D01*
X234627Y421972D01*
X234722Y421993D01*
X234744Y422006D01*
X234769Y422014D01*
X234849Y422069D01*
X234933Y422119D01*
X234950Y422139D01*
X234971Y422154D01*
X235030Y422232D01*
X235093Y422306D01*
X235103Y422330D01*
X235118Y422351D01*
X235148Y422444D01*
X235185Y422534D01*
X235188Y422567D01*
X235194Y422585D01*
X235194Y422618D01*
X235203Y422701D01*
X235203Y433013D01*
X236131Y435254D01*
X255476Y454598D01*
X255516Y454653D01*
X255563Y454702D01*
X255587Y454753D01*
X255620Y454798D01*
X255640Y454863D01*
X255669Y454924D01*
X255676Y454980D01*
X255692Y455033D01*
X255690Y455101D01*
X255698Y455168D01*
X255687Y455223D01*
X255686Y455279D01*
X255662Y455343D01*
X255649Y455409D01*
X255620Y455457D01*
X255601Y455510D01*
X255559Y455563D01*
X255525Y455621D01*
X255483Y455658D01*
X255447Y455702D01*
X255390Y455739D01*
X255339Y455783D01*
X255288Y455805D01*
X255241Y455835D01*
X255175Y455852D01*
X255112Y455877D01*
X255056Y455881D01*
X255002Y455895D01*
X254935Y455890D01*
X254867Y455894D01*
X254790Y455878D01*
X254757Y455876D01*
X254738Y455868D01*
X254703Y455860D01*
X254256Y455715D01*
X252983Y455514D01*
X252983Y466598D01*
X252980Y466618D01*
X252982Y466637D01*
X252960Y466739D01*
X252943Y466841D01*
X252934Y466858D01*
X252930Y466878D01*
X252877Y466967D01*
X252828Y467058D01*
X252814Y467072D01*
X252804Y467089D01*
X252725Y467156D01*
X252650Y467227D01*
X252632Y467236D01*
X252617Y467249D01*
X252521Y467287D01*
X252427Y467331D01*
X252407Y467333D01*
X252389Y467341D01*
X252222Y467359D01*
X250698Y467359D01*
X250678Y467356D01*
X250659Y467358D01*
X250557Y467336D01*
X250455Y467319D01*
X250438Y467310D01*
X250418Y467306D01*
X250329Y467253D01*
X250238Y467204D01*
X250224Y467190D01*
X250207Y467180D01*
X250140Y467101D01*
X250069Y467026D01*
X250060Y467008D01*
X250047Y466993D01*
X250008Y466897D01*
X249965Y466803D01*
X249963Y466783D01*
X249955Y466765D01*
X249937Y466598D01*
X249937Y455514D01*
X248664Y455715D01*
X246877Y456296D01*
X245203Y457149D01*
X243682Y458254D01*
X242354Y459582D01*
X241249Y461103D01*
X240396Y462777D01*
X240303Y463064D01*
X240256Y463154D01*
X240215Y463246D01*
X240200Y463262D01*
X240190Y463282D01*
X240117Y463353D01*
X240049Y463427D01*
X240029Y463438D01*
X240013Y463453D01*
X239922Y463497D01*
X239833Y463546D01*
X239811Y463550D01*
X239791Y463559D01*
X239691Y463572D01*
X239591Y463590D01*
X239569Y463586D01*
X239547Y463589D01*
X239448Y463569D01*
X239348Y463554D01*
X239328Y463544D01*
X239306Y463539D01*
X239219Y463488D01*
X239129Y463442D01*
X239113Y463426D01*
X239094Y463415D01*
X239027Y463339D01*
X238956Y463267D01*
X238943Y463243D01*
X238932Y463230D01*
X238920Y463200D01*
X238876Y463120D01*
X237473Y459734D01*
X233686Y455947D01*
X228738Y453897D01*
X223382Y453897D01*
X223049Y454035D01*
X223005Y454046D01*
X222963Y454065D01*
X222886Y454074D01*
X222810Y454091D01*
X222764Y454087D01*
X222719Y454092D01*
X222642Y454076D01*
X222565Y454068D01*
X222523Y454050D01*
X222478Y454040D01*
X222411Y454000D01*
X222340Y453968D01*
X222306Y453937D01*
X222267Y453914D01*
X222216Y453854D01*
X222159Y453802D01*
X222137Y453762D01*
X222107Y453727D01*
X222078Y453654D01*
X222041Y453586D01*
X222032Y453541D01*
X222015Y453499D01*
X222000Y453363D01*
X221997Y453344D01*
X221998Y453339D01*
X221997Y453332D01*
X221997Y431038D01*
X222000Y431018D01*
X221998Y430999D01*
X222020Y430897D01*
X222036Y430795D01*
X222046Y430778D01*
X222050Y430758D01*
X222103Y430669D01*
X222152Y430578D01*
X222166Y430564D01*
X222176Y430547D01*
X222255Y430480D01*
X222330Y430408D01*
X222348Y430400D01*
X222363Y430387D01*
X222459Y430348D01*
X222553Y430305D01*
X222573Y430303D01*
X222591Y430295D01*
X222758Y430277D01*
X225235Y430277D01*
X229343Y428575D01*
X232487Y425431D01*
X233739Y422410D01*
X233790Y422327D01*
X233836Y422241D01*
X233854Y422223D01*
X233868Y422201D01*
X233944Y422138D01*
X234014Y422071D01*
X234038Y422060D01*
X234058Y422044D01*
X234149Y422009D01*
X234237Y421968D01*
X234263Y421965D01*
X234287Y421956D01*
X234385Y421951D01*
X234481Y421941D01*
X234507Y421946D01*
G37*
%LPC*%
G36*
X426582Y456437D02*
X426582Y456437D01*
X421634Y458487D01*
X417847Y462274D01*
X415797Y467222D01*
X415797Y472578D01*
X417847Y477526D01*
X421634Y481313D01*
X426582Y483363D01*
X431938Y483363D01*
X436886Y481313D01*
X440673Y477526D01*
X442723Y472578D01*
X442723Y467222D01*
X440673Y462274D01*
X436886Y458487D01*
X431938Y456437D01*
X426582Y456437D01*
G37*
%LPD*%
%LPC*%
G36*
X70982Y446277D02*
X70982Y446277D01*
X66034Y448327D01*
X62247Y452114D01*
X60197Y457062D01*
X60197Y462418D01*
X62247Y467366D01*
X66034Y471153D01*
X70982Y473203D01*
X76338Y473203D01*
X81286Y471153D01*
X85073Y467366D01*
X87123Y462418D01*
X87123Y457062D01*
X85073Y452114D01*
X81286Y448327D01*
X76338Y446277D01*
X70982Y446277D01*
G37*
%LPD*%
%LPC*%
G36*
X206370Y39177D02*
X206370Y39177D01*
X202102Y40945D01*
X198835Y44212D01*
X197067Y48480D01*
X197067Y53100D01*
X198835Y57368D01*
X202102Y60635D01*
X206370Y62403D01*
X210990Y62403D01*
X215258Y60635D01*
X218525Y57368D01*
X220293Y53100D01*
X220293Y48480D01*
X218525Y44212D01*
X215258Y40945D01*
X210990Y39177D01*
X206370Y39177D01*
G37*
%LPD*%
%LPC*%
G36*
X231370Y39177D02*
X231370Y39177D01*
X227102Y40945D01*
X223835Y44212D01*
X222067Y48480D01*
X222067Y53100D01*
X223835Y57368D01*
X227102Y60635D01*
X231370Y62403D01*
X235990Y62403D01*
X240258Y60635D01*
X243525Y57368D01*
X245293Y53100D01*
X245293Y48480D01*
X243525Y44212D01*
X240258Y40945D01*
X235990Y39177D01*
X231370Y39177D01*
G37*
%LPD*%
%LPC*%
G36*
X256370Y39177D02*
X256370Y39177D01*
X252102Y40945D01*
X248835Y44212D01*
X247067Y48480D01*
X247067Y53100D01*
X248835Y57368D01*
X252102Y60635D01*
X256370Y62403D01*
X260990Y62403D01*
X265258Y60635D01*
X268525Y57368D01*
X270293Y53100D01*
X270293Y48480D01*
X268525Y44212D01*
X265258Y40945D01*
X260990Y39177D01*
X256370Y39177D01*
G37*
%LPD*%
%LPC*%
G36*
X256370Y6177D02*
X256370Y6177D01*
X252102Y7945D01*
X248835Y11212D01*
X247067Y15480D01*
X247067Y20100D01*
X248835Y24368D01*
X252102Y27635D01*
X256370Y29403D01*
X260990Y29403D01*
X265258Y27635D01*
X268525Y24368D01*
X270293Y20100D01*
X270293Y15480D01*
X268525Y11212D01*
X265258Y7945D01*
X260990Y6177D01*
X256370Y6177D01*
G37*
%LPD*%
%LPC*%
G36*
X231370Y6177D02*
X231370Y6177D01*
X227102Y7945D01*
X223835Y11212D01*
X222067Y15480D01*
X222067Y20100D01*
X223835Y24368D01*
X227102Y27635D01*
X231370Y29403D01*
X235990Y29403D01*
X240258Y27635D01*
X243525Y24368D01*
X245293Y20100D01*
X245293Y15480D01*
X243525Y11212D01*
X240258Y7945D01*
X235990Y6177D01*
X231370Y6177D01*
G37*
%LPD*%
%LPC*%
G36*
X206370Y6177D02*
X206370Y6177D01*
X202102Y7945D01*
X198835Y11212D01*
X197067Y15480D01*
X197067Y20100D01*
X198835Y24368D01*
X202102Y27635D01*
X206370Y29403D01*
X210990Y29403D01*
X215258Y27635D01*
X218525Y24368D01*
X220293Y20100D01*
X220293Y15480D01*
X218525Y11212D01*
X215258Y7945D01*
X210990Y6177D01*
X206370Y6177D01*
G37*
%LPD*%
%LPC*%
G36*
X105860Y443483D02*
X105860Y443483D01*
X99313Y450030D01*
X99313Y459290D01*
X105860Y465837D01*
X115120Y465837D01*
X121667Y459290D01*
X121667Y450030D01*
X115120Y443483D01*
X105860Y443483D01*
G37*
%LPD*%
%LPC*%
G36*
X156660Y103123D02*
X156660Y103123D01*
X150113Y109670D01*
X150113Y118930D01*
X156660Y125477D01*
X165920Y125477D01*
X172467Y118930D01*
X172467Y109670D01*
X165920Y103123D01*
X156660Y103123D01*
G37*
%LPD*%
%LPC*%
G36*
X90620Y414273D02*
X90620Y414273D01*
X84073Y420820D01*
X84073Y430080D01*
X90620Y436627D01*
X99880Y436627D01*
X106427Y430080D01*
X106427Y420820D01*
X99880Y414273D01*
X90620Y414273D01*
G37*
%LPD*%
%LPC*%
G36*
X217423Y242823D02*
X217423Y242823D01*
X217423Y250953D01*
X223772Y250953D01*
X225272Y250715D01*
X226717Y250246D01*
X228071Y249556D01*
X229300Y248663D01*
X230375Y247588D01*
X231268Y246359D01*
X231958Y245005D01*
X232427Y243560D01*
X232544Y242823D01*
X217423Y242823D01*
G37*
%LPD*%
%LPC*%
G36*
X293623Y192023D02*
X293623Y192023D01*
X293623Y200153D01*
X299972Y200153D01*
X301472Y199915D01*
X302917Y199446D01*
X304271Y198756D01*
X305500Y197863D01*
X306575Y196788D01*
X307468Y195559D01*
X308158Y194205D01*
X308627Y192760D01*
X308744Y192023D01*
X293623Y192023D01*
G37*
%LPD*%
%LPC*%
G36*
X293623Y395223D02*
X293623Y395223D01*
X293623Y403353D01*
X299972Y403353D01*
X301472Y403115D01*
X302917Y402646D01*
X304271Y401956D01*
X305500Y401063D01*
X306575Y399988D01*
X307468Y398759D01*
X308158Y397405D01*
X308627Y395960D01*
X308744Y395223D01*
X293623Y395223D01*
G37*
%LPD*%
%LPC*%
G36*
X199256Y242823D02*
X199256Y242823D01*
X199373Y243560D01*
X199842Y245005D01*
X200532Y246359D01*
X201425Y247588D01*
X202500Y248663D01*
X203729Y249556D01*
X205083Y250246D01*
X206528Y250715D01*
X208028Y250953D01*
X214377Y250953D01*
X214377Y242823D01*
X199256Y242823D01*
G37*
%LPD*%
%LPC*%
G36*
X275456Y192023D02*
X275456Y192023D01*
X275573Y192760D01*
X276042Y194205D01*
X276732Y195559D01*
X277625Y196788D01*
X278700Y197863D01*
X279929Y198756D01*
X281283Y199446D01*
X282728Y199915D01*
X284228Y200153D01*
X290577Y200153D01*
X290577Y192023D01*
X275456Y192023D01*
G37*
%LPD*%
%LPC*%
G36*
X275456Y395223D02*
X275456Y395223D01*
X275573Y395960D01*
X276042Y397405D01*
X276732Y398759D01*
X277625Y399988D01*
X278700Y401063D01*
X279929Y401956D01*
X281283Y402646D01*
X282728Y403115D01*
X284228Y403353D01*
X290577Y403353D01*
X290577Y395223D01*
X275456Y395223D01*
G37*
%LPD*%
%LPC*%
G36*
X293623Y180847D02*
X293623Y180847D01*
X293623Y188977D01*
X308744Y188977D01*
X308627Y188240D01*
X308158Y186795D01*
X307468Y185441D01*
X306575Y184212D01*
X305500Y183137D01*
X304271Y182244D01*
X302917Y181554D01*
X301472Y181085D01*
X299972Y180847D01*
X293623Y180847D01*
G37*
%LPD*%
%LPC*%
G36*
X217423Y231647D02*
X217423Y231647D01*
X217423Y239777D01*
X232544Y239777D01*
X232427Y239040D01*
X231958Y237595D01*
X231268Y236241D01*
X230375Y235012D01*
X229300Y233937D01*
X228071Y233044D01*
X226717Y232354D01*
X225272Y231885D01*
X223772Y231647D01*
X217423Y231647D01*
G37*
%LPD*%
%LPC*%
G36*
X293623Y384047D02*
X293623Y384047D01*
X293623Y392177D01*
X308744Y392177D01*
X308627Y391440D01*
X308158Y389995D01*
X307468Y388641D01*
X306575Y387412D01*
X305500Y386337D01*
X304271Y385444D01*
X302917Y384754D01*
X301472Y384285D01*
X299972Y384047D01*
X293623Y384047D01*
G37*
%LPD*%
%LPC*%
G36*
X208028Y231647D02*
X208028Y231647D01*
X206528Y231885D01*
X205083Y232354D01*
X203729Y233044D01*
X202500Y233937D01*
X201425Y235012D01*
X200532Y236241D01*
X199842Y237595D01*
X199373Y239040D01*
X199256Y239777D01*
X214377Y239777D01*
X214377Y231647D01*
X208028Y231647D01*
G37*
%LPD*%
%LPC*%
G36*
X284228Y180847D02*
X284228Y180847D01*
X282728Y181085D01*
X281283Y181554D01*
X279929Y182244D01*
X278700Y183137D01*
X277625Y184212D01*
X276732Y185441D01*
X276042Y186795D01*
X275573Y188240D01*
X275456Y188977D01*
X290577Y188977D01*
X290577Y180847D01*
X284228Y180847D01*
G37*
%LPD*%
%LPC*%
G36*
X284228Y384047D02*
X284228Y384047D01*
X282728Y384285D01*
X281283Y384754D01*
X279929Y385444D01*
X278700Y386337D01*
X277625Y387412D01*
X276732Y388641D01*
X276042Y389995D01*
X275573Y391440D01*
X275456Y392177D01*
X290577Y392177D01*
X290577Y384047D01*
X284228Y384047D01*
G37*
%LPD*%
%LPC*%
G36*
X24383Y461263D02*
X24383Y461263D01*
X24383Y471586D01*
X25656Y471385D01*
X27443Y470804D01*
X29117Y469951D01*
X30638Y468846D01*
X31966Y467518D01*
X33071Y465997D01*
X33924Y464323D01*
X34505Y462536D01*
X34706Y461263D01*
X24383Y461263D01*
G37*
%LPD*%
%LPC*%
G36*
X481583Y471423D02*
X481583Y471423D01*
X481583Y481746D01*
X482856Y481545D01*
X484643Y480964D01*
X486317Y480111D01*
X487838Y479006D01*
X489166Y477678D01*
X490271Y476157D01*
X491124Y474483D01*
X491705Y472696D01*
X491906Y471423D01*
X481583Y471423D01*
G37*
%LPD*%
%LPC*%
G36*
X26923Y141223D02*
X26923Y141223D01*
X26923Y151546D01*
X28196Y151345D01*
X29983Y150764D01*
X31657Y149911D01*
X33178Y148806D01*
X34506Y147478D01*
X35611Y145957D01*
X36464Y144283D01*
X37045Y142496D01*
X37246Y141223D01*
X26923Y141223D01*
G37*
%LPD*%
%LPC*%
G36*
X421893Y23113D02*
X421893Y23113D01*
X421893Y33436D01*
X423166Y33235D01*
X424953Y32654D01*
X426627Y31801D01*
X428148Y30696D01*
X429476Y29368D01*
X430581Y27847D01*
X431434Y26173D01*
X432015Y24386D01*
X432216Y23113D01*
X421893Y23113D01*
G37*
%LPD*%
%LPC*%
G36*
X26923Y36577D02*
X26923Y36577D01*
X37246Y36577D01*
X37045Y35304D01*
X36464Y33517D01*
X35611Y31843D01*
X34506Y30322D01*
X33178Y28994D01*
X31657Y27889D01*
X29983Y27036D01*
X28196Y26455D01*
X26923Y26254D01*
X26923Y36577D01*
G37*
%LPD*%
%LPC*%
G36*
X468214Y471423D02*
X468214Y471423D01*
X468415Y472696D01*
X468996Y474483D01*
X469849Y476157D01*
X470954Y477678D01*
X472282Y479006D01*
X473803Y480111D01*
X475477Y480964D01*
X477264Y481545D01*
X478537Y481746D01*
X478537Y471423D01*
X468214Y471423D01*
G37*
%LPD*%
%LPC*%
G36*
X26923Y163577D02*
X26923Y163577D01*
X37246Y163577D01*
X37045Y162304D01*
X36464Y160517D01*
X35611Y158843D01*
X34506Y157322D01*
X33178Y155994D01*
X31657Y154889D01*
X29983Y154036D01*
X28196Y153455D01*
X26923Y153254D01*
X26923Y163577D01*
G37*
%LPD*%
%LPC*%
G36*
X13554Y141223D02*
X13554Y141223D01*
X13755Y142496D01*
X14336Y144283D01*
X15189Y145957D01*
X16294Y147478D01*
X17622Y148806D01*
X19143Y149911D01*
X20817Y150764D01*
X22604Y151345D01*
X23877Y151546D01*
X23877Y141223D01*
X13554Y141223D01*
G37*
%LPD*%
%LPC*%
G36*
X11014Y461263D02*
X11014Y461263D01*
X11215Y462536D01*
X11796Y464323D01*
X12649Y465997D01*
X13754Y467518D01*
X15082Y468846D01*
X16603Y469951D01*
X18277Y470804D01*
X20064Y471385D01*
X21337Y471586D01*
X21337Y461263D01*
X11014Y461263D01*
G37*
%LPD*%
%LPC*%
G36*
X24383Y458217D02*
X24383Y458217D01*
X34706Y458217D01*
X34505Y456944D01*
X33924Y455157D01*
X33071Y453483D01*
X31966Y451962D01*
X30638Y450634D01*
X29117Y449529D01*
X27443Y448676D01*
X25656Y448095D01*
X24383Y447894D01*
X24383Y458217D01*
G37*
%LPD*%
%LPC*%
G36*
X471423Y136907D02*
X471423Y136907D01*
X481746Y136907D01*
X481545Y135634D01*
X480964Y133847D01*
X480111Y132173D01*
X479006Y130652D01*
X477678Y129324D01*
X476157Y128219D01*
X474483Y127366D01*
X472696Y126785D01*
X471423Y126584D01*
X471423Y136907D01*
G37*
%LPD*%
%LPC*%
G36*
X26923Y138177D02*
X26923Y138177D01*
X37246Y138177D01*
X37045Y136904D01*
X36464Y135117D01*
X35611Y133443D01*
X34506Y131922D01*
X33178Y130594D01*
X31657Y129489D01*
X29983Y128636D01*
X28196Y128055D01*
X26923Y127854D01*
X26923Y138177D01*
G37*
%LPD*%
%LPC*%
G36*
X481583Y468377D02*
X481583Y468377D01*
X491906Y468377D01*
X491705Y467104D01*
X491124Y465317D01*
X490271Y463643D01*
X489166Y462122D01*
X487838Y460794D01*
X486317Y459689D01*
X484643Y458836D01*
X482856Y458255D01*
X481583Y458054D01*
X481583Y468377D01*
G37*
%LPD*%
%LPC*%
G36*
X157733Y21337D02*
X157733Y21337D01*
X168056Y21337D01*
X167855Y20064D01*
X167274Y18277D01*
X166421Y16603D01*
X165316Y15082D01*
X163988Y13754D01*
X162467Y12649D01*
X160793Y11796D01*
X159006Y11215D01*
X157733Y11014D01*
X157733Y21337D01*
G37*
%LPD*%
%LPC*%
G36*
X421893Y20067D02*
X421893Y20067D01*
X432216Y20067D01*
X432015Y18794D01*
X431434Y17007D01*
X430581Y15333D01*
X429476Y13812D01*
X428148Y12484D01*
X426627Y11379D01*
X424953Y10526D01*
X423166Y9945D01*
X421893Y9744D01*
X421893Y20067D01*
G37*
%LPD*%
%LPC*%
G36*
X452373Y18797D02*
X452373Y18797D01*
X462696Y18797D01*
X462495Y17524D01*
X461914Y15737D01*
X461061Y14063D01*
X459956Y12542D01*
X458628Y11214D01*
X457107Y10109D01*
X455433Y9256D01*
X453646Y8675D01*
X452373Y8474D01*
X452373Y18797D01*
G37*
%LPD*%
%LPC*%
G36*
X22604Y26455D02*
X22604Y26455D01*
X20817Y27036D01*
X19143Y27889D01*
X17622Y28994D01*
X16294Y30322D01*
X15189Y31843D01*
X14336Y33517D01*
X13755Y35304D01*
X13554Y36577D01*
X23877Y36577D01*
X23877Y26254D01*
X22604Y26455D01*
G37*
%LPD*%
%LPC*%
G36*
X477264Y458255D02*
X477264Y458255D01*
X475477Y458836D01*
X473803Y459689D01*
X472282Y460794D01*
X470954Y462122D01*
X469849Y463643D01*
X468996Y465317D01*
X468415Y467104D01*
X468214Y468377D01*
X478537Y468377D01*
X478537Y458054D01*
X477264Y458255D01*
G37*
%LPD*%
%LPC*%
G36*
X22604Y153455D02*
X22604Y153455D01*
X20817Y154036D01*
X19143Y154889D01*
X17622Y155994D01*
X16294Y157322D01*
X15189Y158843D01*
X14336Y160517D01*
X13755Y162304D01*
X13554Y163577D01*
X23877Y163577D01*
X23877Y153254D01*
X22604Y153455D01*
G37*
%LPD*%
%LPC*%
G36*
X22604Y128055D02*
X22604Y128055D01*
X20817Y128636D01*
X19143Y129489D01*
X17622Y130594D01*
X16294Y131922D01*
X15189Y133443D01*
X14336Y135117D01*
X13755Y136904D01*
X13554Y138177D01*
X23877Y138177D01*
X23877Y127854D01*
X22604Y128055D01*
G37*
%LPD*%
%LPC*%
G36*
X153414Y11215D02*
X153414Y11215D01*
X151627Y11796D01*
X149953Y12649D01*
X148432Y13754D01*
X147104Y15082D01*
X145999Y16603D01*
X145146Y18277D01*
X144565Y20064D01*
X144364Y21337D01*
X154687Y21337D01*
X154687Y11014D01*
X153414Y11215D01*
G37*
%LPD*%
%LPC*%
G36*
X467104Y126785D02*
X467104Y126785D01*
X465317Y127366D01*
X463643Y128219D01*
X462122Y129324D01*
X460794Y130652D01*
X459689Y132173D01*
X458836Y133847D01*
X458255Y135634D01*
X458054Y136907D01*
X468377Y136907D01*
X468377Y126584D01*
X467104Y126785D01*
G37*
%LPD*%
%LPC*%
G36*
X448054Y8675D02*
X448054Y8675D01*
X446267Y9256D01*
X444593Y10109D01*
X443072Y11214D01*
X441744Y12542D01*
X440639Y14063D01*
X439786Y15737D01*
X439205Y17524D01*
X439004Y18797D01*
X449327Y18797D01*
X449327Y8474D01*
X448054Y8675D01*
G37*
%LPD*%
%LPC*%
G36*
X20064Y448095D02*
X20064Y448095D01*
X18277Y448676D01*
X16603Y449529D01*
X15082Y450634D01*
X13754Y451962D01*
X12649Y453483D01*
X11796Y455157D01*
X11215Y456944D01*
X11014Y458217D01*
X21337Y458217D01*
X21337Y447894D01*
X20064Y448095D01*
G37*
%LPD*%
%LPC*%
G36*
X326643Y395223D02*
X326643Y395223D01*
X326643Y403353D01*
X329118Y403353D01*
X334773Y397698D01*
X334773Y395223D01*
X326643Y395223D01*
G37*
%LPD*%
%LPC*%
G36*
X344423Y218693D02*
X344423Y218693D01*
X344423Y226823D01*
X346898Y226823D01*
X352553Y221168D01*
X352553Y218693D01*
X344423Y218693D01*
G37*
%LPD*%
%LPC*%
G36*
X131063Y350773D02*
X131063Y350773D01*
X131063Y358903D01*
X133538Y358903D01*
X139193Y353248D01*
X139193Y350773D01*
X131063Y350773D01*
G37*
%LPD*%
%LPC*%
G36*
X352043Y359663D02*
X352043Y359663D01*
X352043Y367793D01*
X354518Y367793D01*
X360173Y362138D01*
X360173Y359663D01*
X352043Y359663D01*
G37*
%LPD*%
%LPC*%
G36*
X315467Y395223D02*
X315467Y395223D01*
X315467Y397698D01*
X321122Y403353D01*
X323597Y403353D01*
X323597Y395223D01*
X315467Y395223D01*
G37*
%LPD*%
%LPC*%
G36*
X177037Y115823D02*
X177037Y115823D01*
X177037Y118298D01*
X182692Y123953D01*
X185167Y123953D01*
X185167Y115823D01*
X177037Y115823D01*
G37*
%LPD*%
%LPC*%
G36*
X333247Y218693D02*
X333247Y218693D01*
X333247Y221168D01*
X338902Y226823D01*
X341377Y226823D01*
X341377Y218693D01*
X333247Y218693D01*
G37*
%LPD*%
%LPC*%
G36*
X119887Y350773D02*
X119887Y350773D01*
X119887Y353248D01*
X125542Y358903D01*
X128017Y358903D01*
X128017Y350773D01*
X119887Y350773D01*
G37*
%LPD*%
%LPC*%
G36*
X340867Y359663D02*
X340867Y359663D01*
X340867Y362138D01*
X346522Y367793D01*
X348997Y367793D01*
X348997Y359663D01*
X340867Y359663D01*
G37*
%LPD*%
%LPC*%
G36*
X131063Y339597D02*
X131063Y339597D01*
X131063Y347727D01*
X139193Y347727D01*
X139193Y345252D01*
X133538Y339597D01*
X131063Y339597D01*
G37*
%LPD*%
%LPC*%
G36*
X352043Y348487D02*
X352043Y348487D01*
X352043Y356617D01*
X360173Y356617D01*
X360173Y354142D01*
X354518Y348487D01*
X352043Y348487D01*
G37*
%LPD*%
%LPC*%
G36*
X344423Y207517D02*
X344423Y207517D01*
X344423Y215647D01*
X352553Y215647D01*
X352553Y213172D01*
X346898Y207517D01*
X344423Y207517D01*
G37*
%LPD*%
%LPC*%
G36*
X326643Y384047D02*
X326643Y384047D01*
X326643Y392177D01*
X334773Y392177D01*
X334773Y389702D01*
X329118Y384047D01*
X326643Y384047D01*
G37*
%LPD*%
%LPC*%
G36*
X346522Y348487D02*
X346522Y348487D01*
X340867Y354142D01*
X340867Y356617D01*
X348997Y356617D01*
X348997Y348487D01*
X346522Y348487D01*
G37*
%LPD*%
%LPC*%
G36*
X182692Y104647D02*
X182692Y104647D01*
X177037Y110302D01*
X177037Y112777D01*
X185167Y112777D01*
X185167Y104647D01*
X182692Y104647D01*
G37*
%LPD*%
%LPC*%
G36*
X338902Y207517D02*
X338902Y207517D01*
X333247Y213172D01*
X333247Y215647D01*
X341377Y215647D01*
X341377Y207517D01*
X338902Y207517D01*
G37*
%LPD*%
%LPC*%
G36*
X321122Y384047D02*
X321122Y384047D01*
X315467Y389702D01*
X315467Y392177D01*
X323597Y392177D01*
X323597Y384047D01*
X321122Y384047D01*
G37*
%LPD*%
%LPC*%
G36*
X125542Y339597D02*
X125542Y339597D01*
X119887Y345252D01*
X119887Y347727D01*
X128017Y347727D01*
X128017Y339597D01*
X125542Y339597D01*
G37*
%LPD*%
%LPC*%
G36*
X25399Y139699D02*
X25399Y139699D01*
X25399Y139701D01*
X25401Y139701D01*
X25401Y139699D01*
X25399Y139699D01*
G37*
%LPD*%
%LPC*%
G36*
X22859Y459739D02*
X22859Y459739D01*
X22859Y459741D01*
X22861Y459741D01*
X22861Y459739D01*
X22859Y459739D01*
G37*
%LPD*%
%LPC*%
G36*
X129539Y349249D02*
X129539Y349249D01*
X129539Y349251D01*
X129541Y349251D01*
X129541Y349249D01*
X129539Y349249D01*
G37*
%LPD*%
%LPC*%
G36*
X480059Y469899D02*
X480059Y469899D01*
X480059Y469901D01*
X480061Y469901D01*
X480061Y469899D01*
X480059Y469899D01*
G37*
%LPD*%
%LPC*%
G36*
X215899Y241299D02*
X215899Y241299D01*
X215899Y241301D01*
X215901Y241301D01*
X215901Y241299D01*
X215899Y241299D01*
G37*
%LPD*%
%LPC*%
G36*
X350519Y358139D02*
X350519Y358139D01*
X350519Y358141D01*
X350521Y358141D01*
X350521Y358139D01*
X350519Y358139D01*
G37*
%LPD*%
%LPC*%
G36*
X342899Y217169D02*
X342899Y217169D01*
X342899Y217171D01*
X342901Y217171D01*
X342901Y217169D01*
X342899Y217169D01*
G37*
%LPD*%
%LPC*%
G36*
X292099Y190499D02*
X292099Y190499D01*
X292099Y190501D01*
X292101Y190501D01*
X292101Y190499D01*
X292099Y190499D01*
G37*
%LPD*%
%LPC*%
G36*
X292099Y393699D02*
X292099Y393699D01*
X292099Y393701D01*
X292101Y393701D01*
X292101Y393699D01*
X292099Y393699D01*
G37*
%LPD*%
%LPC*%
G36*
X325119Y393699D02*
X325119Y393699D01*
X325119Y393701D01*
X325121Y393701D01*
X325121Y393699D01*
X325119Y393699D01*
G37*
%LPD*%
D10*
X325120Y419100D03*
X325120Y393700D03*
D11*
X317500Y217170D03*
X342900Y217170D03*
X161290Y114300D03*
X186690Y114300D03*
D10*
X393700Y482600D03*
X393700Y457200D03*
X110490Y480060D03*
X110490Y454660D03*
D12*
X350520Y358140D03*
X350520Y434340D03*
X129540Y349250D03*
X129540Y425450D03*
D10*
X375920Y434340D03*
X375920Y358140D03*
X95250Y425450D03*
X95250Y349250D03*
D13*
X208788Y419100D02*
X223012Y419100D01*
X223012Y393700D02*
X208788Y393700D01*
X208788Y368300D02*
X223012Y368300D01*
X223012Y342900D02*
X208788Y342900D01*
X208788Y317500D02*
X223012Y317500D01*
X223012Y292100D02*
X208788Y292100D01*
X208788Y266700D02*
X223012Y266700D01*
X223012Y241300D02*
X208788Y241300D01*
X208788Y215900D02*
X223012Y215900D01*
X223012Y190500D02*
X208788Y190500D01*
X208788Y165100D02*
X223012Y165100D01*
X223012Y139700D02*
X208788Y139700D01*
X208788Y114300D02*
X223012Y114300D01*
X223012Y88900D02*
X208788Y88900D01*
X284988Y88900D02*
X299212Y88900D01*
X299212Y114300D02*
X284988Y114300D01*
X284988Y139700D02*
X299212Y139700D01*
X299212Y165100D02*
X284988Y165100D01*
X284988Y190500D02*
X299212Y190500D01*
X299212Y215900D02*
X284988Y215900D01*
X284988Y241300D02*
X299212Y241300D01*
X299212Y266700D02*
X284988Y266700D01*
X284988Y292100D02*
X299212Y292100D01*
X299212Y317500D02*
X284988Y317500D01*
X284988Y342900D02*
X299212Y342900D01*
X299212Y368300D02*
X284988Y368300D01*
X284988Y393700D02*
X299212Y393700D01*
X299212Y419100D02*
X284988Y419100D01*
D14*
X393700Y101600D03*
X393700Y78740D03*
X469900Y266700D03*
X469900Y292100D03*
X469900Y317500D03*
X469900Y342900D03*
X469900Y368300D03*
X469900Y138430D03*
X469900Y163830D03*
X469900Y189230D03*
X469900Y214630D03*
X469900Y240030D03*
X25400Y139700D03*
X25400Y165100D03*
X25400Y190500D03*
X25400Y215900D03*
X25400Y241300D03*
X25400Y266700D03*
X25400Y292100D03*
X25400Y317500D03*
X25400Y342900D03*
X25400Y368300D03*
X25400Y88900D03*
X25400Y63500D03*
X25400Y38100D03*
X156210Y22860D03*
X156210Y48260D03*
D15*
X208680Y50790D03*
X233680Y50790D03*
X258680Y50790D03*
X258680Y17790D03*
X233680Y17790D03*
X208680Y17790D03*
D14*
X125730Y22860D03*
X125730Y48260D03*
X125730Y73660D03*
X125730Y99060D03*
X420370Y21590D03*
X394970Y21590D03*
X369570Y21590D03*
X344170Y21590D03*
X318770Y21590D03*
X293370Y21590D03*
X200660Y467360D03*
X226060Y467360D03*
X251460Y467360D03*
X276860Y467360D03*
X302260Y467360D03*
X450850Y20320D03*
X450850Y45720D03*
X450850Y71120D03*
X450850Y96520D03*
X480060Y469900D03*
X429260Y469900D03*
X22860Y459740D03*
X73660Y459740D03*
D16*
X419100Y63500D03*
D17*
X419100Y139700D01*
X468630Y189230D01*
X469900Y189230D01*
D16*
X50800Y139700D03*
D17*
X50800Y215900D01*
X25400Y215900D01*
D18*
X325120Y419100D02*
X325120Y452120D01*
X330200Y457200D01*
X393700Y482600D01*
X228600Y464820D02*
X226060Y467360D01*
D16*
X76200Y63500D03*
D17*
X76200Y114300D01*
D16*
X76200Y114300D03*
X76200Y190500D03*
D18*
X76200Y317500D01*
D16*
X76200Y317500D03*
X127000Y406400D03*
D18*
X127000Y393700D01*
X95250Y361950D02*
X95250Y349250D01*
X95250Y361950D02*
X127000Y393700D01*
D16*
X393700Y355600D03*
D18*
X393700Y215900D01*
X419100Y190500D01*
D16*
X439138Y190500D03*
D18*
X419100Y190500D01*
X393700Y457200D02*
X373380Y457200D01*
X350520Y434340D01*
X215900Y452120D02*
X200660Y467360D01*
X215900Y452120D02*
X215900Y419100D01*
X241300Y431800D02*
X276860Y467360D01*
X241300Y431800D02*
X241300Y355600D01*
X228600Y342900D01*
X215900Y342900D01*
X266700Y431800D02*
X302260Y467360D01*
X266700Y431800D02*
X266700Y342900D01*
X241300Y317500D01*
X215900Y317500D01*
D16*
X152400Y165100D03*
D18*
X152400Y469900D02*
X142240Y480060D01*
X110490Y480060D01*
X152400Y469900D02*
X152400Y165100D01*
D16*
X177800Y165100D03*
D18*
X177800Y393700D01*
D16*
X177800Y393700D03*
X355600Y165100D03*
D18*
X355600Y101600D01*
D16*
X355600Y101600D03*
X368300Y139700D03*
D18*
X370840Y137160D01*
X370840Y78740D01*
D16*
X370840Y78740D03*
X266700Y215900D03*
D18*
X266700Y114300D01*
X279400Y101600D01*
X317500Y101600D02*
X344170Y74930D01*
X344170Y21590D01*
X317500Y101600D02*
X279400Y101600D01*
D16*
X241300Y266700D03*
D18*
X241300Y99060D02*
X318770Y21590D01*
X241300Y99060D02*
X241300Y266700D01*
D16*
X139700Y88900D03*
D18*
X139700Y241300D01*
D16*
X139700Y241300D03*
M02*
