G04 EAGLE Gerber RS-274X export*
G75*
%MOMM*%
%FSLAX34Y34*%
%LPD*%
%INTop Copper*%
%IPPOS*%
%AMOC8*
5,1,8,0,0,1.08239X$1,22.5*%
G01*
%ADD10P,1.539592X8X292.500000*%
%ADD11P,1.539592X8X22.500000*%
%ADD12P,1.539592X8X112.500000*%
%ADD13C,1.422400*%
%ADD14C,1.879600*%
%ADD15C,1.509600*%
%ADD16C,0.609600*%
%ADD17C,0.858000*%
%ADD18C,0.406400*%


D10*
X325120Y419100D03*
X325120Y393700D03*
D11*
X317500Y217170D03*
X342900Y217170D03*
X161290Y114300D03*
X186690Y114300D03*
D10*
X393700Y482600D03*
X393700Y457200D03*
X110490Y480060D03*
X110490Y454660D03*
D12*
X350520Y358140D03*
X350520Y434340D03*
X129540Y349250D03*
X129540Y425450D03*
D10*
X375920Y434340D03*
X375920Y358140D03*
X95250Y425450D03*
X95250Y349250D03*
D13*
X208788Y419100D02*
X223012Y419100D01*
X223012Y393700D02*
X208788Y393700D01*
X208788Y368300D02*
X223012Y368300D01*
X223012Y342900D02*
X208788Y342900D01*
X208788Y317500D02*
X223012Y317500D01*
X223012Y292100D02*
X208788Y292100D01*
X208788Y266700D02*
X223012Y266700D01*
X223012Y241300D02*
X208788Y241300D01*
X208788Y215900D02*
X223012Y215900D01*
X223012Y190500D02*
X208788Y190500D01*
X208788Y165100D02*
X223012Y165100D01*
X223012Y139700D02*
X208788Y139700D01*
X208788Y114300D02*
X223012Y114300D01*
X223012Y88900D02*
X208788Y88900D01*
X284988Y88900D02*
X299212Y88900D01*
X299212Y114300D02*
X284988Y114300D01*
X284988Y139700D02*
X299212Y139700D01*
X299212Y165100D02*
X284988Y165100D01*
X284988Y190500D02*
X299212Y190500D01*
X299212Y215900D02*
X284988Y215900D01*
X284988Y241300D02*
X299212Y241300D01*
X299212Y266700D02*
X284988Y266700D01*
X284988Y292100D02*
X299212Y292100D01*
X299212Y317500D02*
X284988Y317500D01*
X284988Y342900D02*
X299212Y342900D01*
X299212Y368300D02*
X284988Y368300D01*
X284988Y393700D02*
X299212Y393700D01*
X299212Y419100D02*
X284988Y419100D01*
D14*
X393700Y101600D03*
X393700Y78740D03*
X469900Y266700D03*
X469900Y292100D03*
X469900Y317500D03*
X469900Y342900D03*
X469900Y368300D03*
X469900Y138430D03*
X469900Y163830D03*
X469900Y189230D03*
X469900Y214630D03*
X469900Y240030D03*
X25400Y139700D03*
X25400Y165100D03*
X25400Y190500D03*
X25400Y215900D03*
X25400Y241300D03*
X25400Y266700D03*
X25400Y292100D03*
X25400Y317500D03*
X25400Y342900D03*
X25400Y368300D03*
X25400Y88900D03*
X25400Y63500D03*
X25400Y38100D03*
X156210Y22860D03*
X156210Y48260D03*
D15*
X208680Y50790D03*
X233680Y50790D03*
X258680Y50790D03*
X258680Y17790D03*
X233680Y17790D03*
X208680Y17790D03*
D14*
X125730Y22860D03*
X125730Y48260D03*
X125730Y73660D03*
X125730Y99060D03*
X420370Y21590D03*
X394970Y21590D03*
X369570Y21590D03*
X344170Y21590D03*
X318770Y21590D03*
X293370Y21590D03*
X200660Y467360D03*
X226060Y467360D03*
X251460Y467360D03*
X276860Y467360D03*
X302260Y467360D03*
X450850Y20320D03*
X450850Y45720D03*
X450850Y71120D03*
X450850Y96520D03*
X480060Y469900D03*
X429260Y469900D03*
X22860Y459740D03*
X73660Y459740D03*
D16*
X208680Y50790D02*
X208680Y17790D01*
X178210Y48260D02*
X156210Y48260D01*
X178210Y48260D02*
X208680Y17790D01*
X233680Y17790D02*
X233680Y50790D01*
X228600Y55870D01*
X228600Y63500D01*
X218440Y73660D01*
X125730Y73660D01*
X233680Y50790D02*
X246390Y63500D01*
X419100Y63500D01*
D17*
X419100Y63500D03*
D16*
X125730Y73660D02*
X110490Y88900D01*
X50800Y88900D01*
X25400Y88900D01*
X50800Y88900D02*
X50800Y139700D01*
D17*
X50800Y139700D03*
D18*
X292100Y419100D02*
X325120Y419100D01*
X358140Y419100D01*
X375920Y401320D01*
X375920Y358140D01*
X481330Y76200D02*
X450850Y45720D01*
X481330Y76200D02*
X482600Y76200D01*
X482600Y101600D01*
X444500Y139700D01*
X444500Y152400D01*
X455930Y163830D01*
X469900Y163830D01*
D16*
X125730Y22860D02*
X116840Y22860D01*
X76200Y63500D01*
D17*
X76200Y63500D03*
D16*
X25400Y63500D01*
D17*
X76200Y114300D03*
D16*
X76200Y139700D01*
X25400Y190500D01*
X76200Y114300D02*
X161290Y114300D01*
D18*
X76200Y190500D02*
X25400Y190500D01*
D17*
X76200Y190500D03*
X76200Y317500D03*
D18*
X95250Y336550D01*
X95250Y349250D01*
X226060Y454660D02*
X226060Y467360D01*
X226060Y454660D02*
X215900Y444500D01*
X190500Y444500D01*
X165100Y419100D01*
X152400Y406400D01*
X127000Y406400D01*
D17*
X127000Y406400D03*
D18*
X375920Y358140D02*
X391160Y358140D01*
X393700Y355600D01*
D17*
X393700Y355600D03*
X439138Y190500D03*
D18*
X465808Y163830D01*
X469900Y163830D01*
X177800Y419100D02*
X165100Y419100D01*
X177800Y419100D02*
X190500Y406400D01*
X279400Y406400D02*
X292100Y419100D01*
X279400Y406400D02*
X190500Y406400D01*
X161290Y114300D02*
X173990Y101600D01*
X203200Y101600D02*
X215900Y114300D01*
X203200Y101600D02*
X173990Y101600D01*
D16*
X258680Y50790D02*
X258680Y17790D01*
X368300Y22860D02*
X369570Y21590D01*
X368300Y22860D02*
X368300Y38100D01*
X355610Y50790D01*
X258680Y50790D01*
D18*
X292100Y215900D02*
X293370Y217170D01*
X317500Y217170D01*
X375920Y434340D02*
X381000Y434340D01*
X393700Y434340D01*
X429260Y469900D01*
X228600Y431800D02*
X215900Y419100D01*
X317500Y431800D02*
X342900Y457200D01*
X358140Y457200D02*
X381000Y434340D01*
X317500Y431800D02*
X228600Y431800D01*
X342900Y457200D02*
X358140Y457200D01*
X110490Y454660D02*
X110490Y444500D01*
X129540Y425450D01*
X177800Y139700D02*
X215900Y139700D01*
X177800Y139700D02*
X152400Y165100D01*
D17*
X152400Y165100D03*
D18*
X95250Y438150D02*
X73660Y459740D01*
X95250Y438150D02*
X95250Y425450D01*
X177800Y165100D02*
X215900Y165100D01*
D17*
X177800Y165100D03*
X177800Y393700D03*
D18*
X114300Y393700D01*
X95250Y412750D01*
X95250Y425450D01*
X292100Y165100D02*
X355600Y165100D01*
D17*
X355600Y165100D03*
X355600Y101600D03*
D18*
X393700Y101600D01*
X433070Y101600D01*
X438150Y96520D02*
X450850Y96520D01*
X438150Y96520D02*
X433070Y101600D01*
X368300Y139700D02*
X292100Y139700D01*
D17*
X368300Y139700D03*
X370840Y78740D03*
D18*
X393700Y78740D01*
X443230Y78740D01*
X450850Y71120D01*
X266700Y215900D02*
X215900Y215900D01*
D17*
X266700Y215900D03*
D18*
X241300Y266700D02*
X215900Y266700D01*
D17*
X241300Y266700D03*
D18*
X203200Y381000D02*
X215900Y393700D01*
X203200Y381000D02*
X38100Y381000D01*
X25400Y368300D01*
X50800Y368300D02*
X25400Y342900D01*
X50800Y368300D02*
X215900Y368300D01*
X63500Y292100D02*
X38100Y317500D01*
X25400Y317500D01*
X63500Y292100D02*
X215900Y292100D01*
X38100Y292100D02*
X25400Y292100D01*
X38100Y292100D02*
X63500Y266700D01*
X139700Y266700D01*
X215900Y190500D01*
X292100Y368300D02*
X307340Y368300D01*
X332740Y342900D01*
X406400Y342900D01*
X431800Y368300D01*
X469900Y368300D01*
X317500Y342900D02*
X292100Y342900D01*
X317500Y342900D02*
X330200Y330200D01*
X419100Y330200D01*
X431800Y342900D01*
X469900Y342900D01*
X469900Y317500D02*
X292100Y317500D01*
X292100Y292100D02*
X469900Y292100D01*
X469900Y266700D02*
X292100Y266700D01*
X292100Y241300D02*
X468630Y241300D01*
X469900Y240030D01*
X381000Y127000D02*
X304800Y127000D01*
X292100Y114300D01*
X381000Y127000D02*
X419100Y165100D01*
X468630Y215900D02*
X469900Y214630D01*
X419100Y203200D02*
X419100Y165100D01*
X419100Y203200D02*
X431800Y215900D01*
X468630Y215900D01*
X215900Y88900D02*
X147320Y88900D01*
X146050Y87630D01*
X140970Y87630D01*
X139700Y88900D01*
D17*
X139700Y88900D03*
X139700Y241300D03*
D18*
X127000Y254000D01*
X50800Y254000D01*
X38100Y266700D01*
X25400Y266700D01*
X165100Y127000D02*
X254000Y127000D01*
X292100Y88900D01*
X165100Y127000D02*
X50800Y241300D01*
X25400Y241300D01*
M02*
