G04 EAGLE Gerber RS-274X export*
G75*
%MOMM*%
%FSLAX34Y34*%
%LPD*%
%INSilkscreen Bottom*%
%IPPOS*%
%AMOC8*
5,1,8,0,0,1.08239X$1,22.5*%
G01*
%ADD10C,0.203200*%


D10*
X77724Y362966D02*
X73660Y375158D01*
X69596Y362966D01*
X70612Y366014D02*
X76708Y366014D01*
X64245Y369062D02*
X64242Y369302D01*
X64234Y369542D01*
X64219Y369781D01*
X64199Y370020D01*
X64174Y370258D01*
X64142Y370496D01*
X64105Y370733D01*
X64062Y370969D01*
X64014Y371204D01*
X63960Y371438D01*
X63901Y371670D01*
X63836Y371901D01*
X63765Y372130D01*
X63689Y372358D01*
X63608Y372583D01*
X63521Y372807D01*
X63429Y373029D01*
X63332Y373248D01*
X63229Y373465D01*
X63195Y373556D01*
X63158Y373646D01*
X63118Y373734D01*
X63075Y373821D01*
X63028Y373906D01*
X62977Y373989D01*
X62924Y374070D01*
X62867Y374149D01*
X62808Y374226D01*
X62745Y374301D01*
X62680Y374372D01*
X62612Y374442D01*
X62541Y374508D01*
X62468Y374572D01*
X62393Y374633D01*
X62315Y374691D01*
X62234Y374746D01*
X62152Y374798D01*
X62068Y374846D01*
X61982Y374892D01*
X61895Y374934D01*
X61805Y374972D01*
X61715Y375007D01*
X61623Y375038D01*
X61530Y375066D01*
X61436Y375091D01*
X61341Y375111D01*
X61245Y375128D01*
X61149Y375141D01*
X61052Y375150D01*
X60955Y375156D01*
X60858Y375158D01*
X60761Y375156D01*
X60664Y375150D01*
X60567Y375141D01*
X60471Y375128D01*
X60375Y375111D01*
X60280Y375091D01*
X60186Y375066D01*
X60093Y375038D01*
X60001Y375007D01*
X59911Y374972D01*
X59821Y374934D01*
X59734Y374892D01*
X59648Y374846D01*
X59564Y374798D01*
X59482Y374746D01*
X59401Y374691D01*
X59323Y374633D01*
X59248Y374572D01*
X59175Y374508D01*
X59104Y374442D01*
X59036Y374372D01*
X58971Y374301D01*
X58908Y374226D01*
X58849Y374149D01*
X58792Y374070D01*
X58739Y373989D01*
X58688Y373906D01*
X58641Y373821D01*
X58598Y373734D01*
X58558Y373646D01*
X58521Y373556D01*
X58487Y373465D01*
X58488Y373465D02*
X58385Y373248D01*
X58288Y373029D01*
X58196Y372807D01*
X58109Y372583D01*
X58028Y372358D01*
X57952Y372130D01*
X57881Y371901D01*
X57816Y371670D01*
X57757Y371438D01*
X57703Y371204D01*
X57655Y370969D01*
X57612Y370733D01*
X57575Y370496D01*
X57543Y370258D01*
X57518Y370020D01*
X57498Y369781D01*
X57483Y369542D01*
X57475Y369302D01*
X57472Y369062D01*
X64245Y369062D02*
X64242Y368822D01*
X64234Y368582D01*
X64219Y368343D01*
X64199Y368104D01*
X64174Y367866D01*
X64142Y367628D01*
X64105Y367391D01*
X64062Y367155D01*
X64014Y366920D01*
X63960Y366686D01*
X63901Y366454D01*
X63836Y366223D01*
X63765Y365994D01*
X63689Y365766D01*
X63608Y365541D01*
X63521Y365317D01*
X63429Y365095D01*
X63332Y364876D01*
X63229Y364659D01*
X63195Y364568D01*
X63158Y364478D01*
X63118Y364390D01*
X63075Y364303D01*
X63028Y364218D01*
X62977Y364135D01*
X62924Y364054D01*
X62867Y363975D01*
X62808Y363898D01*
X62745Y363823D01*
X62680Y363752D01*
X62612Y363682D01*
X62541Y363616D01*
X62468Y363552D01*
X62393Y363491D01*
X62315Y363433D01*
X62234Y363378D01*
X62152Y363326D01*
X62068Y363278D01*
X61982Y363232D01*
X61895Y363190D01*
X61805Y363152D01*
X61715Y363117D01*
X61623Y363086D01*
X61530Y363058D01*
X61436Y363033D01*
X61341Y363013D01*
X61245Y362996D01*
X61149Y362983D01*
X61052Y362974D01*
X60955Y362968D01*
X60858Y362966D01*
X58488Y364659D02*
X58385Y364876D01*
X58288Y365095D01*
X58196Y365317D01*
X58109Y365541D01*
X58028Y365766D01*
X57952Y365994D01*
X57881Y366223D01*
X57816Y366454D01*
X57757Y366686D01*
X57703Y366920D01*
X57655Y367155D01*
X57612Y367391D01*
X57575Y367628D01*
X57543Y367866D01*
X57518Y368104D01*
X57498Y368343D01*
X57483Y368582D01*
X57475Y368822D01*
X57472Y369062D01*
X58487Y364659D02*
X58521Y364568D01*
X58558Y364478D01*
X58598Y364390D01*
X58641Y364303D01*
X58688Y364218D01*
X58739Y364135D01*
X58792Y364054D01*
X58849Y363975D01*
X58908Y363898D01*
X58971Y363823D01*
X59036Y363752D01*
X59104Y363682D01*
X59175Y363616D01*
X59248Y363552D01*
X59323Y363491D01*
X59401Y363433D01*
X59482Y363378D01*
X59564Y363326D01*
X59648Y363278D01*
X59734Y363232D01*
X59821Y363190D01*
X59911Y363152D01*
X60001Y363117D01*
X60093Y363086D01*
X60186Y363058D01*
X60280Y363033D01*
X60375Y363013D01*
X60471Y362996D01*
X60567Y362983D01*
X60664Y362974D01*
X60761Y362968D01*
X60858Y362966D01*
X63568Y365675D02*
X58149Y372449D01*
X73660Y349758D02*
X77724Y337566D01*
X69596Y337566D02*
X73660Y349758D01*
X70612Y340614D02*
X76708Y340614D01*
X64245Y347049D02*
X60858Y349758D01*
X60858Y337566D01*
X57472Y337566D02*
X64245Y337566D01*
X74337Y318939D02*
X77724Y318939D01*
X74337Y318940D02*
X74221Y318938D01*
X74106Y318932D01*
X73991Y318922D01*
X73876Y318908D01*
X73762Y318891D01*
X73648Y318869D01*
X73535Y318844D01*
X73423Y318814D01*
X73312Y318781D01*
X73203Y318744D01*
X73094Y318704D01*
X72988Y318660D01*
X72882Y318612D01*
X72779Y318560D01*
X72677Y318505D01*
X72577Y318447D01*
X72479Y318385D01*
X72384Y318320D01*
X72290Y318252D01*
X72200Y318180D01*
X72111Y318106D01*
X72025Y318028D01*
X71942Y317948D01*
X71862Y317865D01*
X71784Y317779D01*
X71710Y317690D01*
X71638Y317600D01*
X71570Y317506D01*
X71505Y317411D01*
X71443Y317313D01*
X71385Y317213D01*
X71330Y317111D01*
X71278Y317008D01*
X71230Y316902D01*
X71186Y316796D01*
X71146Y316687D01*
X71109Y316578D01*
X71076Y316467D01*
X71046Y316355D01*
X71021Y316242D01*
X70999Y316128D01*
X70982Y316014D01*
X70968Y315899D01*
X70958Y315784D01*
X70952Y315669D01*
X70950Y315553D01*
X70952Y315437D01*
X70958Y315322D01*
X70968Y315207D01*
X70982Y315092D01*
X70999Y314978D01*
X71021Y314864D01*
X71046Y314751D01*
X71076Y314639D01*
X71109Y314528D01*
X71146Y314419D01*
X71186Y314310D01*
X71230Y314204D01*
X71278Y314098D01*
X71330Y313995D01*
X71385Y313893D01*
X71443Y313793D01*
X71505Y313695D01*
X71570Y313600D01*
X71638Y313506D01*
X71710Y313416D01*
X71784Y313327D01*
X71862Y313241D01*
X71942Y313158D01*
X72025Y313078D01*
X72111Y313000D01*
X72200Y312926D01*
X72290Y312854D01*
X72384Y312786D01*
X72479Y312721D01*
X72577Y312659D01*
X72677Y312601D01*
X72779Y312546D01*
X72882Y312494D01*
X72988Y312446D01*
X73094Y312402D01*
X73203Y312362D01*
X73312Y312325D01*
X73423Y312292D01*
X73535Y312262D01*
X73648Y312237D01*
X73762Y312215D01*
X73876Y312198D01*
X73991Y312184D01*
X74106Y312174D01*
X74221Y312168D01*
X74337Y312166D01*
X77724Y312166D01*
X77724Y324358D01*
X74337Y324358D01*
X74234Y324356D01*
X74132Y324350D01*
X74030Y324341D01*
X73928Y324327D01*
X73827Y324310D01*
X73727Y324288D01*
X73628Y324263D01*
X73529Y324235D01*
X73432Y324202D01*
X73336Y324166D01*
X73241Y324127D01*
X73148Y324083D01*
X73057Y324037D01*
X72968Y323986D01*
X72880Y323933D01*
X72795Y323876D01*
X72712Y323816D01*
X72631Y323753D01*
X72552Y323687D01*
X72477Y323618D01*
X72403Y323546D01*
X72333Y323472D01*
X72265Y323395D01*
X72201Y323315D01*
X72139Y323233D01*
X72081Y323149D01*
X72026Y323062D01*
X71974Y322974D01*
X71926Y322883D01*
X71881Y322791D01*
X71839Y322698D01*
X71801Y322602D01*
X71767Y322506D01*
X71736Y322408D01*
X71710Y322309D01*
X71686Y322209D01*
X71667Y322108D01*
X71652Y322007D01*
X71640Y321905D01*
X71632Y321803D01*
X71628Y321700D01*
X71628Y321598D01*
X71632Y321495D01*
X71640Y321393D01*
X71652Y321291D01*
X71667Y321190D01*
X71686Y321089D01*
X71710Y320989D01*
X71736Y320890D01*
X71767Y320792D01*
X71801Y320696D01*
X71839Y320600D01*
X71881Y320507D01*
X71926Y320415D01*
X71974Y320324D01*
X72026Y320236D01*
X72081Y320149D01*
X72139Y320065D01*
X72201Y319983D01*
X72265Y319903D01*
X72333Y319826D01*
X72403Y319752D01*
X72477Y319680D01*
X72552Y319611D01*
X72631Y319545D01*
X72712Y319482D01*
X72795Y319422D01*
X72880Y319365D01*
X72968Y319312D01*
X73057Y319261D01*
X73148Y319215D01*
X73241Y319171D01*
X73336Y319132D01*
X73432Y319096D01*
X73529Y319063D01*
X73628Y319035D01*
X73727Y319010D01*
X73827Y318988D01*
X73928Y318971D01*
X74030Y318957D01*
X74132Y318948D01*
X74234Y318942D01*
X74337Y318940D01*
X61888Y324358D02*
X61779Y324356D01*
X61671Y324350D01*
X61562Y324341D01*
X61454Y324327D01*
X61347Y324310D01*
X61240Y324288D01*
X61134Y324263D01*
X61029Y324235D01*
X60925Y324202D01*
X60823Y324166D01*
X60722Y324126D01*
X60622Y324083D01*
X60524Y324036D01*
X60427Y323985D01*
X60333Y323931D01*
X60240Y323874D01*
X60150Y323814D01*
X60061Y323750D01*
X59975Y323683D01*
X59892Y323614D01*
X59811Y323541D01*
X59733Y323465D01*
X59657Y323387D01*
X59584Y323306D01*
X59515Y323223D01*
X59448Y323137D01*
X59384Y323048D01*
X59324Y322958D01*
X59267Y322865D01*
X59213Y322771D01*
X59162Y322674D01*
X59115Y322576D01*
X59072Y322476D01*
X59032Y322375D01*
X58996Y322273D01*
X58963Y322169D01*
X58935Y322064D01*
X58910Y321958D01*
X58888Y321851D01*
X58871Y321744D01*
X58857Y321636D01*
X58848Y321527D01*
X58842Y321419D01*
X58840Y321310D01*
X61888Y324358D02*
X62011Y324356D01*
X62134Y324350D01*
X62257Y324341D01*
X62379Y324327D01*
X62501Y324310D01*
X62622Y324289D01*
X62743Y324264D01*
X62863Y324235D01*
X62981Y324202D01*
X63099Y324166D01*
X63215Y324126D01*
X63331Y324083D01*
X63444Y324035D01*
X63557Y323985D01*
X63667Y323931D01*
X63776Y323873D01*
X63883Y323812D01*
X63988Y323747D01*
X64091Y323680D01*
X64191Y323609D01*
X64290Y323535D01*
X64386Y323458D01*
X64479Y323378D01*
X64570Y323295D01*
X64659Y323209D01*
X64744Y323121D01*
X64827Y323030D01*
X64907Y322936D01*
X64984Y322840D01*
X65058Y322741D01*
X65128Y322641D01*
X65196Y322538D01*
X65260Y322433D01*
X65321Y322326D01*
X65379Y322217D01*
X65433Y322106D01*
X65483Y321994D01*
X65530Y321880D01*
X65574Y321765D01*
X65613Y321649D01*
X59856Y318939D02*
X59777Y319017D01*
X59701Y319097D01*
X59628Y319179D01*
X59558Y319265D01*
X59490Y319352D01*
X59425Y319442D01*
X59364Y319533D01*
X59306Y319627D01*
X59250Y319723D01*
X59199Y319820D01*
X59150Y319920D01*
X59105Y320020D01*
X59063Y320123D01*
X59025Y320226D01*
X58990Y320331D01*
X58959Y320437D01*
X58931Y320544D01*
X58907Y320652D01*
X58886Y320760D01*
X58870Y320869D01*
X58857Y320979D01*
X58847Y321089D01*
X58842Y321200D01*
X58840Y321310D01*
X59856Y318939D02*
X65613Y312166D01*
X58840Y312166D01*
X73660Y298958D02*
X77724Y286766D01*
X69596Y286766D02*
X73660Y298958D01*
X70612Y289814D02*
X76708Y289814D01*
X64245Y286766D02*
X60858Y286766D01*
X60742Y286768D01*
X60627Y286774D01*
X60512Y286784D01*
X60397Y286798D01*
X60283Y286815D01*
X60169Y286837D01*
X60056Y286862D01*
X59944Y286892D01*
X59833Y286925D01*
X59724Y286962D01*
X59615Y287002D01*
X59509Y287046D01*
X59403Y287094D01*
X59300Y287146D01*
X59198Y287201D01*
X59098Y287259D01*
X59000Y287321D01*
X58905Y287386D01*
X58811Y287454D01*
X58721Y287526D01*
X58632Y287600D01*
X58546Y287678D01*
X58463Y287758D01*
X58383Y287841D01*
X58305Y287927D01*
X58231Y288016D01*
X58159Y288106D01*
X58091Y288200D01*
X58026Y288295D01*
X57964Y288393D01*
X57906Y288493D01*
X57851Y288595D01*
X57799Y288698D01*
X57751Y288804D01*
X57707Y288910D01*
X57667Y289019D01*
X57630Y289128D01*
X57597Y289239D01*
X57567Y289351D01*
X57542Y289464D01*
X57520Y289578D01*
X57503Y289692D01*
X57489Y289807D01*
X57479Y289922D01*
X57473Y290037D01*
X57471Y290153D01*
X57473Y290269D01*
X57479Y290384D01*
X57489Y290499D01*
X57503Y290614D01*
X57520Y290728D01*
X57542Y290842D01*
X57567Y290955D01*
X57597Y291067D01*
X57630Y291178D01*
X57667Y291287D01*
X57707Y291396D01*
X57751Y291502D01*
X57799Y291608D01*
X57851Y291711D01*
X57906Y291813D01*
X57964Y291913D01*
X58026Y292011D01*
X58091Y292106D01*
X58159Y292200D01*
X58231Y292290D01*
X58305Y292379D01*
X58383Y292465D01*
X58463Y292548D01*
X58546Y292628D01*
X58632Y292706D01*
X58721Y292780D01*
X58811Y292852D01*
X58905Y292920D01*
X59000Y292985D01*
X59098Y293047D01*
X59198Y293105D01*
X59300Y293160D01*
X59403Y293212D01*
X59509Y293260D01*
X59615Y293304D01*
X59724Y293344D01*
X59833Y293381D01*
X59944Y293414D01*
X60056Y293444D01*
X60169Y293469D01*
X60283Y293491D01*
X60397Y293508D01*
X60512Y293522D01*
X60627Y293532D01*
X60742Y293538D01*
X60858Y293540D01*
X60181Y298958D02*
X64245Y298958D01*
X60181Y298958D02*
X60078Y298956D01*
X59976Y298950D01*
X59874Y298941D01*
X59772Y298927D01*
X59671Y298910D01*
X59571Y298888D01*
X59472Y298863D01*
X59373Y298835D01*
X59276Y298802D01*
X59180Y298766D01*
X59085Y298727D01*
X58992Y298683D01*
X58901Y298637D01*
X58812Y298586D01*
X58724Y298533D01*
X58639Y298476D01*
X58556Y298416D01*
X58475Y298353D01*
X58396Y298287D01*
X58321Y298218D01*
X58247Y298146D01*
X58177Y298072D01*
X58109Y297995D01*
X58045Y297915D01*
X57983Y297833D01*
X57925Y297749D01*
X57870Y297662D01*
X57818Y297574D01*
X57770Y297483D01*
X57725Y297391D01*
X57683Y297298D01*
X57645Y297202D01*
X57611Y297106D01*
X57580Y297008D01*
X57554Y296909D01*
X57530Y296809D01*
X57511Y296708D01*
X57496Y296607D01*
X57484Y296505D01*
X57476Y296403D01*
X57472Y296300D01*
X57472Y296198D01*
X57476Y296095D01*
X57484Y295993D01*
X57496Y295891D01*
X57511Y295790D01*
X57530Y295689D01*
X57554Y295589D01*
X57580Y295490D01*
X57611Y295392D01*
X57645Y295296D01*
X57683Y295200D01*
X57725Y295107D01*
X57770Y295015D01*
X57818Y294924D01*
X57870Y294836D01*
X57925Y294749D01*
X57983Y294665D01*
X58045Y294583D01*
X58109Y294503D01*
X58177Y294426D01*
X58247Y294352D01*
X58321Y294280D01*
X58396Y294211D01*
X58475Y294145D01*
X58556Y294082D01*
X58639Y294022D01*
X58724Y293965D01*
X58812Y293912D01*
X58901Y293861D01*
X58992Y293815D01*
X59085Y293771D01*
X59180Y293732D01*
X59276Y293696D01*
X59373Y293663D01*
X59472Y293635D01*
X59571Y293610D01*
X59671Y293588D01*
X59772Y293571D01*
X59874Y293557D01*
X59976Y293548D01*
X60078Y293542D01*
X60181Y293540D01*
X60181Y293539D02*
X62890Y293539D01*
X74337Y268139D02*
X77724Y268139D01*
X74337Y268140D02*
X74221Y268138D01*
X74106Y268132D01*
X73991Y268122D01*
X73876Y268108D01*
X73762Y268091D01*
X73648Y268069D01*
X73535Y268044D01*
X73423Y268014D01*
X73312Y267981D01*
X73203Y267944D01*
X73094Y267904D01*
X72988Y267860D01*
X72882Y267812D01*
X72779Y267760D01*
X72677Y267705D01*
X72577Y267647D01*
X72479Y267585D01*
X72384Y267520D01*
X72290Y267452D01*
X72200Y267380D01*
X72111Y267306D01*
X72025Y267228D01*
X71942Y267148D01*
X71862Y267065D01*
X71784Y266979D01*
X71710Y266890D01*
X71638Y266800D01*
X71570Y266706D01*
X71505Y266611D01*
X71443Y266513D01*
X71385Y266413D01*
X71330Y266311D01*
X71278Y266208D01*
X71230Y266102D01*
X71186Y265996D01*
X71146Y265887D01*
X71109Y265778D01*
X71076Y265667D01*
X71046Y265555D01*
X71021Y265442D01*
X70999Y265328D01*
X70982Y265214D01*
X70968Y265099D01*
X70958Y264984D01*
X70952Y264869D01*
X70950Y264753D01*
X70952Y264637D01*
X70958Y264522D01*
X70968Y264407D01*
X70982Y264292D01*
X70999Y264178D01*
X71021Y264064D01*
X71046Y263951D01*
X71076Y263839D01*
X71109Y263728D01*
X71146Y263619D01*
X71186Y263510D01*
X71230Y263404D01*
X71278Y263298D01*
X71330Y263195D01*
X71385Y263093D01*
X71443Y262993D01*
X71505Y262895D01*
X71570Y262800D01*
X71638Y262706D01*
X71710Y262616D01*
X71784Y262527D01*
X71862Y262441D01*
X71942Y262358D01*
X72025Y262278D01*
X72111Y262200D01*
X72200Y262126D01*
X72290Y262054D01*
X72384Y261986D01*
X72479Y261921D01*
X72577Y261859D01*
X72677Y261801D01*
X72779Y261746D01*
X72882Y261694D01*
X72988Y261646D01*
X73094Y261602D01*
X73203Y261562D01*
X73312Y261525D01*
X73423Y261492D01*
X73535Y261462D01*
X73648Y261437D01*
X73762Y261415D01*
X73876Y261398D01*
X73991Y261384D01*
X74106Y261374D01*
X74221Y261368D01*
X74337Y261366D01*
X77724Y261366D01*
X77724Y273558D01*
X74337Y273558D01*
X74234Y273556D01*
X74132Y273550D01*
X74030Y273541D01*
X73928Y273527D01*
X73827Y273510D01*
X73727Y273488D01*
X73628Y273463D01*
X73529Y273435D01*
X73432Y273402D01*
X73336Y273366D01*
X73241Y273327D01*
X73148Y273283D01*
X73057Y273237D01*
X72968Y273186D01*
X72880Y273133D01*
X72795Y273076D01*
X72712Y273016D01*
X72631Y272953D01*
X72552Y272887D01*
X72477Y272818D01*
X72403Y272746D01*
X72333Y272672D01*
X72265Y272595D01*
X72201Y272515D01*
X72139Y272433D01*
X72081Y272349D01*
X72026Y272262D01*
X71974Y272174D01*
X71926Y272083D01*
X71881Y271991D01*
X71839Y271898D01*
X71801Y271802D01*
X71767Y271706D01*
X71736Y271608D01*
X71710Y271509D01*
X71686Y271409D01*
X71667Y271308D01*
X71652Y271207D01*
X71640Y271105D01*
X71632Y271003D01*
X71628Y270900D01*
X71628Y270798D01*
X71632Y270695D01*
X71640Y270593D01*
X71652Y270491D01*
X71667Y270390D01*
X71686Y270289D01*
X71710Y270189D01*
X71736Y270090D01*
X71767Y269992D01*
X71801Y269896D01*
X71839Y269800D01*
X71881Y269707D01*
X71926Y269615D01*
X71974Y269524D01*
X72026Y269436D01*
X72081Y269349D01*
X72139Y269265D01*
X72201Y269183D01*
X72265Y269103D01*
X72333Y269026D01*
X72403Y268952D01*
X72477Y268880D01*
X72552Y268811D01*
X72631Y268745D01*
X72712Y268682D01*
X72795Y268622D01*
X72880Y268565D01*
X72968Y268512D01*
X73057Y268461D01*
X73148Y268415D01*
X73241Y268371D01*
X73336Y268332D01*
X73432Y268296D01*
X73529Y268263D01*
X73628Y268235D01*
X73727Y268210D01*
X73827Y268188D01*
X73928Y268171D01*
X74030Y268157D01*
X74132Y268148D01*
X74234Y268142D01*
X74337Y268140D01*
X65613Y261366D02*
X61549Y261366D01*
X61448Y261368D01*
X61347Y261374D01*
X61246Y261383D01*
X61145Y261396D01*
X61045Y261413D01*
X60946Y261434D01*
X60848Y261458D01*
X60751Y261486D01*
X60654Y261518D01*
X60559Y261553D01*
X60466Y261592D01*
X60374Y261634D01*
X60283Y261680D01*
X60195Y261729D01*
X60108Y261781D01*
X60023Y261837D01*
X59940Y261895D01*
X59860Y261957D01*
X59782Y262022D01*
X59706Y262089D01*
X59633Y262159D01*
X59563Y262232D01*
X59496Y262308D01*
X59431Y262386D01*
X59369Y262466D01*
X59311Y262549D01*
X59255Y262634D01*
X59203Y262721D01*
X59154Y262809D01*
X59108Y262900D01*
X59066Y262992D01*
X59027Y263085D01*
X58992Y263180D01*
X58960Y263277D01*
X58932Y263374D01*
X58908Y263472D01*
X58887Y263571D01*
X58870Y263671D01*
X58857Y263772D01*
X58848Y263873D01*
X58842Y263974D01*
X58840Y264075D01*
X58840Y265430D01*
X58842Y265531D01*
X58848Y265632D01*
X58857Y265733D01*
X58870Y265834D01*
X58887Y265934D01*
X58908Y266033D01*
X58932Y266131D01*
X58960Y266228D01*
X58992Y266325D01*
X59027Y266420D01*
X59066Y266513D01*
X59108Y266605D01*
X59154Y266696D01*
X59203Y266785D01*
X59255Y266871D01*
X59311Y266956D01*
X59369Y267039D01*
X59431Y267119D01*
X59496Y267197D01*
X59563Y267273D01*
X59633Y267346D01*
X59706Y267416D01*
X59782Y267483D01*
X59860Y267548D01*
X59940Y267610D01*
X60023Y267668D01*
X60108Y267724D01*
X60195Y267776D01*
X60283Y267825D01*
X60374Y267871D01*
X60466Y267913D01*
X60559Y267952D01*
X60654Y267987D01*
X60751Y268019D01*
X60848Y268047D01*
X60946Y268071D01*
X61045Y268092D01*
X61145Y268109D01*
X61246Y268122D01*
X61347Y268131D01*
X61448Y268137D01*
X61549Y268139D01*
X65613Y268139D01*
X65613Y273558D01*
X58840Y273558D01*
X74337Y242739D02*
X77724Y242739D01*
X74337Y242740D02*
X74221Y242738D01*
X74106Y242732D01*
X73991Y242722D01*
X73876Y242708D01*
X73762Y242691D01*
X73648Y242669D01*
X73535Y242644D01*
X73423Y242614D01*
X73312Y242581D01*
X73203Y242544D01*
X73094Y242504D01*
X72988Y242460D01*
X72882Y242412D01*
X72779Y242360D01*
X72677Y242305D01*
X72577Y242247D01*
X72479Y242185D01*
X72384Y242120D01*
X72290Y242052D01*
X72200Y241980D01*
X72111Y241906D01*
X72025Y241828D01*
X71942Y241748D01*
X71862Y241665D01*
X71784Y241579D01*
X71710Y241490D01*
X71638Y241400D01*
X71570Y241306D01*
X71505Y241211D01*
X71443Y241113D01*
X71385Y241013D01*
X71330Y240911D01*
X71278Y240808D01*
X71230Y240702D01*
X71186Y240596D01*
X71146Y240487D01*
X71109Y240378D01*
X71076Y240267D01*
X71046Y240155D01*
X71021Y240042D01*
X70999Y239928D01*
X70982Y239814D01*
X70968Y239699D01*
X70958Y239584D01*
X70952Y239469D01*
X70950Y239353D01*
X70952Y239237D01*
X70958Y239122D01*
X70968Y239007D01*
X70982Y238892D01*
X70999Y238778D01*
X71021Y238664D01*
X71046Y238551D01*
X71076Y238439D01*
X71109Y238328D01*
X71146Y238219D01*
X71186Y238110D01*
X71230Y238004D01*
X71278Y237898D01*
X71330Y237795D01*
X71385Y237693D01*
X71443Y237593D01*
X71505Y237495D01*
X71570Y237400D01*
X71638Y237306D01*
X71710Y237216D01*
X71784Y237127D01*
X71862Y237041D01*
X71942Y236958D01*
X72025Y236878D01*
X72111Y236800D01*
X72200Y236726D01*
X72290Y236654D01*
X72384Y236586D01*
X72479Y236521D01*
X72577Y236459D01*
X72677Y236401D01*
X72779Y236346D01*
X72882Y236294D01*
X72988Y236246D01*
X73094Y236202D01*
X73203Y236162D01*
X73312Y236125D01*
X73423Y236092D01*
X73535Y236062D01*
X73648Y236037D01*
X73762Y236015D01*
X73876Y235998D01*
X73991Y235984D01*
X74106Y235974D01*
X74221Y235968D01*
X74337Y235966D01*
X77724Y235966D01*
X77724Y248158D01*
X74337Y248158D01*
X74234Y248156D01*
X74132Y248150D01*
X74030Y248141D01*
X73928Y248127D01*
X73827Y248110D01*
X73727Y248088D01*
X73628Y248063D01*
X73529Y248035D01*
X73432Y248002D01*
X73336Y247966D01*
X73241Y247927D01*
X73148Y247883D01*
X73057Y247837D01*
X72968Y247786D01*
X72880Y247733D01*
X72795Y247676D01*
X72712Y247616D01*
X72631Y247553D01*
X72552Y247487D01*
X72477Y247418D01*
X72403Y247346D01*
X72333Y247272D01*
X72265Y247195D01*
X72201Y247115D01*
X72139Y247033D01*
X72081Y246949D01*
X72026Y246862D01*
X71974Y246774D01*
X71926Y246683D01*
X71881Y246591D01*
X71839Y246498D01*
X71801Y246402D01*
X71767Y246306D01*
X71736Y246208D01*
X71710Y246109D01*
X71686Y246009D01*
X71667Y245908D01*
X71652Y245807D01*
X71640Y245705D01*
X71632Y245603D01*
X71628Y245500D01*
X71628Y245398D01*
X71632Y245295D01*
X71640Y245193D01*
X71652Y245091D01*
X71667Y244990D01*
X71686Y244889D01*
X71710Y244789D01*
X71736Y244690D01*
X71767Y244592D01*
X71801Y244496D01*
X71839Y244400D01*
X71881Y244307D01*
X71926Y244215D01*
X71974Y244124D01*
X72026Y244036D01*
X72081Y243949D01*
X72139Y243865D01*
X72201Y243783D01*
X72265Y243703D01*
X72333Y243626D01*
X72403Y243552D01*
X72477Y243480D01*
X72552Y243411D01*
X72631Y243345D01*
X72712Y243282D01*
X72795Y243222D01*
X72880Y243165D01*
X72968Y243112D01*
X73057Y243061D01*
X73148Y243015D01*
X73241Y242971D01*
X73336Y242932D01*
X73432Y242896D01*
X73529Y242863D01*
X73628Y242835D01*
X73727Y242810D01*
X73827Y242788D01*
X73928Y242771D01*
X74030Y242757D01*
X74132Y242748D01*
X74234Y242742D01*
X74337Y242740D01*
X65613Y242739D02*
X61549Y242739D01*
X61448Y242737D01*
X61347Y242731D01*
X61246Y242722D01*
X61145Y242709D01*
X61045Y242692D01*
X60946Y242671D01*
X60848Y242647D01*
X60751Y242619D01*
X60654Y242587D01*
X60559Y242552D01*
X60466Y242513D01*
X60374Y242471D01*
X60283Y242425D01*
X60195Y242376D01*
X60108Y242324D01*
X60023Y242268D01*
X59940Y242210D01*
X59860Y242148D01*
X59782Y242083D01*
X59706Y242016D01*
X59633Y241946D01*
X59563Y241873D01*
X59496Y241797D01*
X59431Y241719D01*
X59369Y241639D01*
X59311Y241556D01*
X59255Y241471D01*
X59203Y241385D01*
X59154Y241296D01*
X59108Y241205D01*
X59066Y241113D01*
X59027Y241020D01*
X58992Y240925D01*
X58960Y240828D01*
X58932Y240731D01*
X58908Y240633D01*
X58887Y240534D01*
X58870Y240434D01*
X58857Y240333D01*
X58848Y240232D01*
X58842Y240131D01*
X58840Y240030D01*
X58840Y239353D01*
X58842Y239237D01*
X58848Y239122D01*
X58858Y239007D01*
X58872Y238892D01*
X58889Y238778D01*
X58911Y238664D01*
X58936Y238551D01*
X58966Y238439D01*
X58999Y238328D01*
X59036Y238219D01*
X59076Y238110D01*
X59120Y238004D01*
X59168Y237898D01*
X59220Y237795D01*
X59275Y237693D01*
X59333Y237593D01*
X59395Y237495D01*
X59460Y237400D01*
X59528Y237306D01*
X59600Y237216D01*
X59674Y237127D01*
X59752Y237041D01*
X59832Y236958D01*
X59915Y236878D01*
X60001Y236800D01*
X60090Y236726D01*
X60180Y236654D01*
X60274Y236586D01*
X60369Y236521D01*
X60467Y236459D01*
X60567Y236401D01*
X60669Y236346D01*
X60772Y236294D01*
X60878Y236246D01*
X60984Y236202D01*
X61093Y236162D01*
X61202Y236125D01*
X61313Y236092D01*
X61425Y236062D01*
X61538Y236037D01*
X61652Y236015D01*
X61766Y235998D01*
X61881Y235984D01*
X61996Y235974D01*
X62111Y235968D01*
X62227Y235966D01*
X62343Y235968D01*
X62458Y235974D01*
X62573Y235984D01*
X62688Y235998D01*
X62802Y236015D01*
X62916Y236037D01*
X63029Y236062D01*
X63141Y236092D01*
X63252Y236125D01*
X63361Y236162D01*
X63470Y236202D01*
X63576Y236246D01*
X63682Y236294D01*
X63785Y236346D01*
X63887Y236401D01*
X63987Y236459D01*
X64085Y236521D01*
X64180Y236586D01*
X64274Y236654D01*
X64364Y236726D01*
X64453Y236800D01*
X64539Y236878D01*
X64622Y236958D01*
X64702Y237041D01*
X64780Y237127D01*
X64854Y237216D01*
X64926Y237306D01*
X64994Y237400D01*
X65059Y237495D01*
X65121Y237593D01*
X65179Y237693D01*
X65234Y237795D01*
X65286Y237898D01*
X65334Y238004D01*
X65378Y238110D01*
X65418Y238219D01*
X65455Y238328D01*
X65488Y238439D01*
X65518Y238551D01*
X65543Y238664D01*
X65565Y238778D01*
X65582Y238892D01*
X65596Y239007D01*
X65606Y239122D01*
X65612Y239237D01*
X65614Y239353D01*
X65613Y239353D02*
X65613Y242739D01*
X65614Y242739D02*
X65612Y242886D01*
X65606Y243032D01*
X65596Y243179D01*
X65582Y243325D01*
X65564Y243471D01*
X65543Y243616D01*
X65517Y243760D01*
X65487Y243904D01*
X65454Y244047D01*
X65416Y244189D01*
X65375Y244330D01*
X65330Y244469D01*
X65282Y244608D01*
X65229Y244745D01*
X65173Y244880D01*
X65113Y245014D01*
X65050Y245147D01*
X64983Y245277D01*
X64912Y245406D01*
X64838Y245533D01*
X64761Y245657D01*
X64680Y245780D01*
X64596Y245900D01*
X64509Y246018D01*
X64419Y246134D01*
X64325Y246247D01*
X64229Y246358D01*
X64129Y246466D01*
X64027Y246571D01*
X63922Y246673D01*
X63814Y246773D01*
X63703Y246869D01*
X63590Y246963D01*
X63474Y247053D01*
X63356Y247140D01*
X63236Y247224D01*
X63114Y247305D01*
X62989Y247382D01*
X62862Y247456D01*
X62733Y247527D01*
X62603Y247594D01*
X62470Y247657D01*
X62336Y247717D01*
X62201Y247773D01*
X62064Y247826D01*
X61925Y247874D01*
X61786Y247919D01*
X61645Y247960D01*
X61503Y247998D01*
X61360Y248031D01*
X61216Y248061D01*
X61072Y248087D01*
X60927Y248108D01*
X60781Y248126D01*
X60635Y248140D01*
X60488Y248150D01*
X60342Y248156D01*
X60195Y248158D01*
X77724Y222758D02*
X73660Y210566D01*
X69596Y222758D01*
X63419Y222758D02*
X63419Y210566D01*
X64773Y210566D02*
X62064Y210566D01*
X62064Y222758D02*
X64773Y222758D01*
X56137Y222758D02*
X56137Y210566D01*
X49364Y210566D02*
X56137Y222758D01*
X49364Y222758D02*
X49364Y210566D01*
X74337Y185166D02*
X77724Y185166D01*
X74337Y185166D02*
X74221Y185168D01*
X74106Y185174D01*
X73991Y185184D01*
X73876Y185198D01*
X73762Y185215D01*
X73648Y185237D01*
X73535Y185262D01*
X73423Y185292D01*
X73312Y185325D01*
X73203Y185362D01*
X73094Y185402D01*
X72988Y185446D01*
X72882Y185494D01*
X72779Y185546D01*
X72677Y185601D01*
X72577Y185659D01*
X72479Y185721D01*
X72384Y185786D01*
X72290Y185854D01*
X72200Y185926D01*
X72111Y186000D01*
X72025Y186078D01*
X71942Y186158D01*
X71862Y186241D01*
X71784Y186327D01*
X71710Y186416D01*
X71638Y186506D01*
X71570Y186600D01*
X71505Y186695D01*
X71443Y186793D01*
X71385Y186893D01*
X71330Y186995D01*
X71278Y187098D01*
X71230Y187204D01*
X71186Y187310D01*
X71146Y187419D01*
X71109Y187528D01*
X71076Y187639D01*
X71046Y187751D01*
X71021Y187864D01*
X70999Y187978D01*
X70982Y188092D01*
X70968Y188207D01*
X70958Y188322D01*
X70952Y188437D01*
X70950Y188553D01*
X70952Y188669D01*
X70958Y188784D01*
X70968Y188899D01*
X70982Y189014D01*
X70999Y189128D01*
X71021Y189242D01*
X71046Y189355D01*
X71076Y189467D01*
X71109Y189578D01*
X71146Y189687D01*
X71186Y189796D01*
X71230Y189902D01*
X71278Y190008D01*
X71330Y190111D01*
X71385Y190213D01*
X71443Y190313D01*
X71505Y190411D01*
X71570Y190506D01*
X71638Y190600D01*
X71710Y190690D01*
X71784Y190779D01*
X71862Y190865D01*
X71942Y190948D01*
X72025Y191028D01*
X72111Y191106D01*
X72200Y191180D01*
X72290Y191252D01*
X72384Y191320D01*
X72479Y191385D01*
X72577Y191447D01*
X72677Y191505D01*
X72779Y191560D01*
X72882Y191612D01*
X72988Y191660D01*
X73094Y191704D01*
X73203Y191744D01*
X73312Y191781D01*
X73423Y191814D01*
X73535Y191844D01*
X73648Y191869D01*
X73762Y191891D01*
X73876Y191908D01*
X73991Y191922D01*
X74106Y191932D01*
X74221Y191938D01*
X74337Y191940D01*
X73660Y197358D02*
X77724Y197358D01*
X73660Y197358D02*
X73557Y197356D01*
X73455Y197350D01*
X73353Y197341D01*
X73251Y197327D01*
X73150Y197310D01*
X73050Y197288D01*
X72951Y197263D01*
X72852Y197235D01*
X72755Y197202D01*
X72659Y197166D01*
X72564Y197127D01*
X72471Y197083D01*
X72380Y197037D01*
X72291Y196986D01*
X72203Y196933D01*
X72118Y196876D01*
X72035Y196816D01*
X71954Y196753D01*
X71875Y196687D01*
X71800Y196618D01*
X71726Y196546D01*
X71656Y196472D01*
X71588Y196395D01*
X71524Y196315D01*
X71462Y196233D01*
X71404Y196149D01*
X71349Y196062D01*
X71297Y195974D01*
X71249Y195883D01*
X71204Y195791D01*
X71162Y195698D01*
X71124Y195602D01*
X71090Y195506D01*
X71059Y195408D01*
X71033Y195309D01*
X71009Y195209D01*
X70990Y195108D01*
X70975Y195007D01*
X70963Y194905D01*
X70955Y194803D01*
X70951Y194700D01*
X70951Y194598D01*
X70955Y194495D01*
X70963Y194393D01*
X70975Y194291D01*
X70990Y194190D01*
X71009Y194089D01*
X71033Y193989D01*
X71059Y193890D01*
X71090Y193792D01*
X71124Y193696D01*
X71162Y193600D01*
X71204Y193507D01*
X71249Y193415D01*
X71297Y193324D01*
X71349Y193236D01*
X71404Y193149D01*
X71462Y193065D01*
X71524Y192983D01*
X71588Y192903D01*
X71656Y192826D01*
X71726Y192752D01*
X71800Y192680D01*
X71875Y192611D01*
X71954Y192545D01*
X72035Y192482D01*
X72118Y192422D01*
X72203Y192365D01*
X72291Y192312D01*
X72380Y192261D01*
X72471Y192215D01*
X72564Y192171D01*
X72659Y192132D01*
X72755Y192096D01*
X72852Y192063D01*
X72951Y192035D01*
X73050Y192010D01*
X73150Y191988D01*
X73251Y191971D01*
X73353Y191957D01*
X73455Y191948D01*
X73557Y191942D01*
X73660Y191940D01*
X73660Y191939D02*
X76369Y191939D01*
X65600Y197358D02*
X61536Y185166D01*
X57472Y197358D01*
X52121Y185166D02*
X48734Y185166D01*
X48618Y185168D01*
X48503Y185174D01*
X48388Y185184D01*
X48273Y185198D01*
X48159Y185215D01*
X48045Y185237D01*
X47932Y185262D01*
X47820Y185292D01*
X47709Y185325D01*
X47600Y185362D01*
X47491Y185402D01*
X47385Y185446D01*
X47279Y185494D01*
X47176Y185546D01*
X47074Y185601D01*
X46974Y185659D01*
X46876Y185721D01*
X46781Y185786D01*
X46687Y185854D01*
X46597Y185926D01*
X46508Y186000D01*
X46422Y186078D01*
X46339Y186158D01*
X46259Y186241D01*
X46181Y186327D01*
X46107Y186416D01*
X46035Y186506D01*
X45967Y186600D01*
X45902Y186695D01*
X45840Y186793D01*
X45782Y186893D01*
X45727Y186995D01*
X45675Y187098D01*
X45627Y187204D01*
X45583Y187310D01*
X45543Y187419D01*
X45506Y187528D01*
X45473Y187639D01*
X45443Y187751D01*
X45418Y187864D01*
X45396Y187978D01*
X45379Y188092D01*
X45365Y188207D01*
X45355Y188322D01*
X45349Y188437D01*
X45347Y188553D01*
X45349Y188669D01*
X45355Y188784D01*
X45365Y188899D01*
X45379Y189014D01*
X45396Y189128D01*
X45418Y189242D01*
X45443Y189355D01*
X45473Y189467D01*
X45506Y189578D01*
X45543Y189687D01*
X45583Y189796D01*
X45627Y189902D01*
X45675Y190008D01*
X45727Y190111D01*
X45782Y190213D01*
X45840Y190313D01*
X45902Y190411D01*
X45967Y190506D01*
X46035Y190600D01*
X46107Y190690D01*
X46181Y190779D01*
X46259Y190865D01*
X46339Y190948D01*
X46422Y191028D01*
X46508Y191106D01*
X46597Y191180D01*
X46687Y191252D01*
X46781Y191320D01*
X46876Y191385D01*
X46974Y191447D01*
X47074Y191505D01*
X47176Y191560D01*
X47279Y191612D01*
X47385Y191660D01*
X47491Y191704D01*
X47600Y191744D01*
X47709Y191781D01*
X47820Y191814D01*
X47932Y191844D01*
X48045Y191869D01*
X48159Y191891D01*
X48273Y191908D01*
X48388Y191922D01*
X48503Y191932D01*
X48618Y191938D01*
X48734Y191940D01*
X48057Y197358D02*
X52121Y197358D01*
X48057Y197358D02*
X47954Y197356D01*
X47852Y197350D01*
X47750Y197341D01*
X47648Y197327D01*
X47547Y197310D01*
X47447Y197288D01*
X47348Y197263D01*
X47249Y197235D01*
X47152Y197202D01*
X47056Y197166D01*
X46961Y197127D01*
X46868Y197083D01*
X46777Y197037D01*
X46688Y196986D01*
X46600Y196933D01*
X46515Y196876D01*
X46432Y196816D01*
X46351Y196753D01*
X46272Y196687D01*
X46197Y196618D01*
X46123Y196546D01*
X46053Y196472D01*
X45985Y196395D01*
X45921Y196315D01*
X45859Y196233D01*
X45801Y196149D01*
X45746Y196062D01*
X45694Y195974D01*
X45646Y195883D01*
X45601Y195791D01*
X45559Y195698D01*
X45521Y195602D01*
X45487Y195506D01*
X45456Y195408D01*
X45430Y195309D01*
X45406Y195209D01*
X45387Y195108D01*
X45372Y195007D01*
X45360Y194905D01*
X45352Y194803D01*
X45348Y194700D01*
X45348Y194598D01*
X45352Y194495D01*
X45360Y194393D01*
X45372Y194291D01*
X45387Y194190D01*
X45406Y194089D01*
X45430Y193989D01*
X45456Y193890D01*
X45487Y193792D01*
X45521Y193696D01*
X45559Y193600D01*
X45601Y193507D01*
X45646Y193415D01*
X45694Y193324D01*
X45746Y193236D01*
X45801Y193149D01*
X45859Y193065D01*
X45921Y192983D01*
X45985Y192903D01*
X46053Y192826D01*
X46123Y192752D01*
X46197Y192680D01*
X46272Y192611D01*
X46351Y192545D01*
X46432Y192482D01*
X46515Y192422D01*
X46600Y192365D01*
X46688Y192312D01*
X46777Y192261D01*
X46868Y192215D01*
X46961Y192171D01*
X47056Y192132D01*
X47152Y192096D01*
X47249Y192063D01*
X47348Y192035D01*
X47447Y192010D01*
X47547Y191988D01*
X47648Y191971D01*
X47750Y191957D01*
X47852Y191948D01*
X47954Y191942D01*
X48057Y191940D01*
X48057Y191939D02*
X50766Y191939D01*
X70951Y166539D02*
X72983Y166539D01*
X70951Y166539D02*
X70951Y159766D01*
X75015Y159766D01*
X75116Y159768D01*
X75217Y159774D01*
X75318Y159783D01*
X75419Y159796D01*
X75519Y159813D01*
X75618Y159834D01*
X75716Y159858D01*
X75813Y159886D01*
X75910Y159918D01*
X76005Y159953D01*
X76098Y159992D01*
X76190Y160034D01*
X76281Y160080D01*
X76369Y160129D01*
X76456Y160181D01*
X76541Y160237D01*
X76624Y160295D01*
X76704Y160357D01*
X76782Y160422D01*
X76858Y160489D01*
X76931Y160559D01*
X77001Y160632D01*
X77068Y160708D01*
X77133Y160786D01*
X77195Y160866D01*
X77253Y160949D01*
X77309Y161034D01*
X77361Y161120D01*
X77410Y161209D01*
X77456Y161300D01*
X77498Y161392D01*
X77537Y161485D01*
X77572Y161580D01*
X77604Y161677D01*
X77632Y161774D01*
X77656Y161872D01*
X77677Y161971D01*
X77694Y162071D01*
X77707Y162172D01*
X77716Y162273D01*
X77722Y162374D01*
X77724Y162475D01*
X77724Y169249D01*
X77722Y169350D01*
X77716Y169451D01*
X77707Y169552D01*
X77694Y169653D01*
X77677Y169753D01*
X77656Y169852D01*
X77632Y169950D01*
X77604Y170047D01*
X77572Y170144D01*
X77537Y170239D01*
X77498Y170332D01*
X77456Y170424D01*
X77410Y170515D01*
X77361Y170604D01*
X77309Y170690D01*
X77253Y170775D01*
X77195Y170858D01*
X77133Y170938D01*
X77068Y171016D01*
X77001Y171092D01*
X76931Y171165D01*
X76858Y171235D01*
X76782Y171302D01*
X76704Y171367D01*
X76624Y171429D01*
X76541Y171487D01*
X76456Y171543D01*
X76370Y171595D01*
X76281Y171644D01*
X76190Y171690D01*
X76098Y171732D01*
X76005Y171771D01*
X75910Y171806D01*
X75813Y171838D01*
X75716Y171866D01*
X75618Y171890D01*
X75519Y171911D01*
X75419Y171928D01*
X75318Y171941D01*
X75217Y171950D01*
X75116Y171956D01*
X75015Y171958D01*
X70951Y171958D01*
X64069Y171958D02*
X64069Y159766D01*
X57296Y159766D02*
X64069Y171958D01*
X57296Y171958D02*
X57296Y159766D01*
X50414Y159766D02*
X50414Y171958D01*
X47027Y171958D01*
X46911Y171956D01*
X46796Y171950D01*
X46681Y171940D01*
X46566Y171926D01*
X46452Y171909D01*
X46338Y171887D01*
X46225Y171862D01*
X46113Y171832D01*
X46002Y171799D01*
X45893Y171762D01*
X45784Y171722D01*
X45678Y171678D01*
X45572Y171630D01*
X45469Y171578D01*
X45367Y171523D01*
X45267Y171465D01*
X45169Y171403D01*
X45074Y171338D01*
X44980Y171270D01*
X44890Y171198D01*
X44801Y171124D01*
X44715Y171046D01*
X44632Y170966D01*
X44552Y170883D01*
X44474Y170797D01*
X44400Y170708D01*
X44328Y170618D01*
X44260Y170524D01*
X44195Y170429D01*
X44133Y170331D01*
X44075Y170231D01*
X44020Y170129D01*
X43968Y170026D01*
X43920Y169920D01*
X43876Y169814D01*
X43836Y169705D01*
X43799Y169596D01*
X43766Y169485D01*
X43736Y169373D01*
X43711Y169260D01*
X43689Y169146D01*
X43672Y169032D01*
X43658Y168917D01*
X43648Y168802D01*
X43642Y168687D01*
X43640Y168571D01*
X43641Y168571D02*
X43641Y163153D01*
X43640Y163153D02*
X43642Y163037D01*
X43648Y162922D01*
X43658Y162807D01*
X43672Y162692D01*
X43689Y162578D01*
X43711Y162464D01*
X43736Y162351D01*
X43766Y162239D01*
X43799Y162128D01*
X43836Y162019D01*
X43876Y161910D01*
X43920Y161804D01*
X43968Y161698D01*
X44020Y161595D01*
X44075Y161493D01*
X44133Y161393D01*
X44195Y161295D01*
X44260Y161200D01*
X44328Y161106D01*
X44400Y161016D01*
X44474Y160927D01*
X44552Y160841D01*
X44632Y160758D01*
X44715Y160678D01*
X44801Y160600D01*
X44890Y160526D01*
X44980Y160454D01*
X45074Y160386D01*
X45169Y160321D01*
X45267Y160259D01*
X45367Y160201D01*
X45469Y160146D01*
X45572Y160094D01*
X45678Y160046D01*
X45784Y160002D01*
X45893Y159962D01*
X46002Y159925D01*
X46113Y159892D01*
X46225Y159862D01*
X46338Y159837D01*
X46452Y159815D01*
X46566Y159798D01*
X46681Y159784D01*
X46796Y159774D01*
X46911Y159768D01*
X47027Y159766D01*
X50414Y159766D01*
X70951Y141139D02*
X72983Y141139D01*
X70951Y141139D02*
X70951Y134366D01*
X75015Y134366D01*
X75116Y134368D01*
X75217Y134374D01*
X75318Y134383D01*
X75419Y134396D01*
X75519Y134413D01*
X75618Y134434D01*
X75716Y134458D01*
X75813Y134486D01*
X75910Y134518D01*
X76005Y134553D01*
X76098Y134592D01*
X76190Y134634D01*
X76281Y134680D01*
X76369Y134729D01*
X76456Y134781D01*
X76541Y134837D01*
X76624Y134895D01*
X76704Y134957D01*
X76782Y135022D01*
X76858Y135089D01*
X76931Y135159D01*
X77001Y135232D01*
X77068Y135308D01*
X77133Y135386D01*
X77195Y135466D01*
X77253Y135549D01*
X77309Y135634D01*
X77361Y135720D01*
X77410Y135809D01*
X77456Y135900D01*
X77498Y135992D01*
X77537Y136085D01*
X77572Y136180D01*
X77604Y136277D01*
X77632Y136374D01*
X77656Y136472D01*
X77677Y136571D01*
X77694Y136671D01*
X77707Y136772D01*
X77716Y136873D01*
X77722Y136974D01*
X77724Y137075D01*
X77724Y143849D01*
X77722Y143950D01*
X77716Y144051D01*
X77707Y144152D01*
X77694Y144253D01*
X77677Y144353D01*
X77656Y144452D01*
X77632Y144550D01*
X77604Y144647D01*
X77572Y144744D01*
X77537Y144839D01*
X77498Y144932D01*
X77456Y145024D01*
X77410Y145115D01*
X77361Y145204D01*
X77309Y145290D01*
X77253Y145375D01*
X77195Y145458D01*
X77133Y145538D01*
X77068Y145616D01*
X77001Y145692D01*
X76931Y145765D01*
X76858Y145835D01*
X76782Y145902D01*
X76704Y145967D01*
X76624Y146029D01*
X76541Y146087D01*
X76456Y146143D01*
X76370Y146195D01*
X76281Y146244D01*
X76190Y146290D01*
X76098Y146332D01*
X76005Y146371D01*
X75910Y146406D01*
X75813Y146438D01*
X75716Y146466D01*
X75618Y146490D01*
X75519Y146511D01*
X75419Y146528D01*
X75318Y146541D01*
X75217Y146550D01*
X75116Y146556D01*
X75015Y146558D01*
X70951Y146558D01*
X64069Y146558D02*
X64069Y134366D01*
X57296Y134366D02*
X64069Y146558D01*
X57296Y146558D02*
X57296Y134366D01*
X50414Y134366D02*
X50414Y146558D01*
X47027Y146558D01*
X46911Y146556D01*
X46796Y146550D01*
X46681Y146540D01*
X46566Y146526D01*
X46452Y146509D01*
X46338Y146487D01*
X46225Y146462D01*
X46113Y146432D01*
X46002Y146399D01*
X45893Y146362D01*
X45784Y146322D01*
X45678Y146278D01*
X45572Y146230D01*
X45469Y146178D01*
X45367Y146123D01*
X45267Y146065D01*
X45169Y146003D01*
X45074Y145938D01*
X44980Y145870D01*
X44890Y145798D01*
X44801Y145724D01*
X44715Y145646D01*
X44632Y145566D01*
X44552Y145483D01*
X44474Y145397D01*
X44400Y145308D01*
X44328Y145218D01*
X44260Y145124D01*
X44195Y145029D01*
X44133Y144931D01*
X44075Y144831D01*
X44020Y144729D01*
X43968Y144626D01*
X43920Y144520D01*
X43876Y144414D01*
X43836Y144305D01*
X43799Y144196D01*
X43766Y144085D01*
X43736Y143973D01*
X43711Y143860D01*
X43689Y143746D01*
X43672Y143632D01*
X43658Y143517D01*
X43648Y143402D01*
X43642Y143287D01*
X43640Y143171D01*
X43641Y143171D02*
X43641Y137753D01*
X43640Y137753D02*
X43642Y137637D01*
X43648Y137522D01*
X43658Y137407D01*
X43672Y137292D01*
X43689Y137178D01*
X43711Y137064D01*
X43736Y136951D01*
X43766Y136839D01*
X43799Y136728D01*
X43836Y136619D01*
X43876Y136510D01*
X43920Y136404D01*
X43968Y136298D01*
X44020Y136195D01*
X44075Y136093D01*
X44133Y135993D01*
X44195Y135895D01*
X44260Y135800D01*
X44328Y135706D01*
X44400Y135616D01*
X44474Y135527D01*
X44552Y135441D01*
X44632Y135358D01*
X44715Y135278D01*
X44801Y135200D01*
X44890Y135126D01*
X44980Y135054D01*
X45074Y134986D01*
X45169Y134921D01*
X45267Y134859D01*
X45367Y134801D01*
X45469Y134746D01*
X45572Y134694D01*
X45678Y134646D01*
X45784Y134602D01*
X45893Y134562D01*
X46002Y134525D01*
X46113Y134492D01*
X46225Y134462D01*
X46338Y134437D01*
X46452Y134415D01*
X46566Y134398D01*
X46681Y134384D01*
X46796Y134374D01*
X46911Y134368D01*
X47027Y134366D01*
X50414Y134366D01*
X443061Y137329D02*
X445093Y137329D01*
X443061Y137329D02*
X443061Y130556D01*
X447125Y130556D01*
X447226Y130558D01*
X447327Y130564D01*
X447428Y130573D01*
X447529Y130586D01*
X447629Y130603D01*
X447728Y130624D01*
X447826Y130648D01*
X447923Y130676D01*
X448020Y130708D01*
X448115Y130743D01*
X448208Y130782D01*
X448300Y130824D01*
X448391Y130870D01*
X448480Y130919D01*
X448566Y130971D01*
X448651Y131027D01*
X448734Y131085D01*
X448814Y131147D01*
X448892Y131212D01*
X448968Y131279D01*
X449041Y131349D01*
X449111Y131422D01*
X449178Y131498D01*
X449243Y131576D01*
X449305Y131656D01*
X449363Y131739D01*
X449419Y131824D01*
X449471Y131910D01*
X449520Y131999D01*
X449566Y132090D01*
X449608Y132182D01*
X449647Y132275D01*
X449682Y132370D01*
X449714Y132467D01*
X449742Y132564D01*
X449766Y132662D01*
X449787Y132761D01*
X449804Y132861D01*
X449817Y132962D01*
X449826Y133063D01*
X449832Y133164D01*
X449834Y133265D01*
X449834Y140039D01*
X449832Y140140D01*
X449826Y140241D01*
X449817Y140342D01*
X449804Y140443D01*
X449787Y140543D01*
X449766Y140642D01*
X449742Y140740D01*
X449714Y140837D01*
X449682Y140934D01*
X449647Y141029D01*
X449608Y141122D01*
X449566Y141214D01*
X449520Y141305D01*
X449471Y141394D01*
X449419Y141480D01*
X449363Y141565D01*
X449305Y141648D01*
X449243Y141728D01*
X449178Y141806D01*
X449111Y141882D01*
X449041Y141955D01*
X448968Y142025D01*
X448892Y142092D01*
X448814Y142157D01*
X448734Y142219D01*
X448651Y142277D01*
X448566Y142333D01*
X448480Y142385D01*
X448391Y142434D01*
X448300Y142480D01*
X448208Y142522D01*
X448115Y142561D01*
X448020Y142596D01*
X447923Y142628D01*
X447826Y142656D01*
X447728Y142680D01*
X447629Y142701D01*
X447529Y142718D01*
X447428Y142731D01*
X447327Y142740D01*
X447226Y142746D01*
X447125Y142748D01*
X443061Y142748D01*
X436179Y142748D02*
X436179Y130556D01*
X429406Y130556D02*
X436179Y142748D01*
X429406Y142748D02*
X429406Y130556D01*
X422524Y130556D02*
X422524Y142748D01*
X419137Y142748D01*
X419021Y142746D01*
X418906Y142740D01*
X418791Y142730D01*
X418676Y142716D01*
X418562Y142699D01*
X418448Y142677D01*
X418335Y142652D01*
X418223Y142622D01*
X418112Y142589D01*
X418003Y142552D01*
X417894Y142512D01*
X417788Y142468D01*
X417682Y142420D01*
X417579Y142368D01*
X417477Y142313D01*
X417377Y142255D01*
X417279Y142193D01*
X417184Y142128D01*
X417090Y142060D01*
X417000Y141988D01*
X416911Y141914D01*
X416825Y141836D01*
X416742Y141756D01*
X416662Y141673D01*
X416584Y141587D01*
X416510Y141498D01*
X416438Y141408D01*
X416370Y141314D01*
X416305Y141219D01*
X416243Y141121D01*
X416185Y141021D01*
X416130Y140919D01*
X416078Y140816D01*
X416030Y140710D01*
X415986Y140604D01*
X415946Y140495D01*
X415909Y140386D01*
X415876Y140275D01*
X415846Y140163D01*
X415821Y140050D01*
X415799Y139936D01*
X415782Y139822D01*
X415768Y139707D01*
X415758Y139592D01*
X415752Y139477D01*
X415750Y139361D01*
X415751Y139361D02*
X415751Y133943D01*
X415750Y133943D02*
X415752Y133827D01*
X415758Y133712D01*
X415768Y133597D01*
X415782Y133482D01*
X415799Y133368D01*
X415821Y133254D01*
X415846Y133141D01*
X415876Y133029D01*
X415909Y132918D01*
X415946Y132809D01*
X415986Y132700D01*
X416030Y132594D01*
X416078Y132488D01*
X416130Y132385D01*
X416185Y132283D01*
X416243Y132183D01*
X416305Y132085D01*
X416370Y131990D01*
X416438Y131896D01*
X416510Y131806D01*
X416584Y131717D01*
X416662Y131631D01*
X416742Y131548D01*
X416825Y131468D01*
X416911Y131390D01*
X417000Y131316D01*
X417090Y131244D01*
X417184Y131176D01*
X417279Y131111D01*
X417377Y131049D01*
X417477Y130991D01*
X417579Y130936D01*
X417682Y130884D01*
X417788Y130836D01*
X417894Y130792D01*
X418003Y130752D01*
X418112Y130715D01*
X418223Y130682D01*
X418335Y130652D01*
X418448Y130627D01*
X418562Y130605D01*
X418676Y130588D01*
X418791Y130574D01*
X418906Y130564D01*
X419021Y130558D01*
X419137Y130556D01*
X422524Y130556D01*
X446447Y155956D02*
X449834Y155956D01*
X446447Y155956D02*
X446331Y155958D01*
X446216Y155964D01*
X446101Y155974D01*
X445986Y155988D01*
X445872Y156005D01*
X445758Y156027D01*
X445645Y156052D01*
X445533Y156082D01*
X445422Y156115D01*
X445313Y156152D01*
X445204Y156192D01*
X445098Y156236D01*
X444992Y156284D01*
X444889Y156336D01*
X444787Y156391D01*
X444687Y156449D01*
X444589Y156511D01*
X444494Y156576D01*
X444400Y156644D01*
X444310Y156716D01*
X444221Y156790D01*
X444135Y156868D01*
X444052Y156948D01*
X443972Y157031D01*
X443894Y157117D01*
X443820Y157206D01*
X443748Y157296D01*
X443680Y157390D01*
X443615Y157485D01*
X443553Y157583D01*
X443495Y157683D01*
X443440Y157785D01*
X443388Y157888D01*
X443340Y157994D01*
X443296Y158100D01*
X443256Y158209D01*
X443219Y158318D01*
X443186Y158429D01*
X443156Y158541D01*
X443131Y158654D01*
X443109Y158768D01*
X443092Y158882D01*
X443078Y158997D01*
X443068Y159112D01*
X443062Y159227D01*
X443060Y159343D01*
X443062Y159459D01*
X443068Y159574D01*
X443078Y159689D01*
X443092Y159804D01*
X443109Y159918D01*
X443131Y160032D01*
X443156Y160145D01*
X443186Y160257D01*
X443219Y160368D01*
X443256Y160477D01*
X443296Y160586D01*
X443340Y160692D01*
X443388Y160798D01*
X443440Y160901D01*
X443495Y161003D01*
X443553Y161103D01*
X443615Y161201D01*
X443680Y161296D01*
X443748Y161390D01*
X443820Y161480D01*
X443894Y161569D01*
X443972Y161655D01*
X444052Y161738D01*
X444135Y161818D01*
X444221Y161896D01*
X444310Y161970D01*
X444400Y162042D01*
X444494Y162110D01*
X444589Y162175D01*
X444687Y162237D01*
X444787Y162295D01*
X444889Y162350D01*
X444992Y162402D01*
X445098Y162450D01*
X445204Y162494D01*
X445313Y162534D01*
X445422Y162571D01*
X445533Y162604D01*
X445645Y162634D01*
X445758Y162659D01*
X445872Y162681D01*
X445986Y162698D01*
X446101Y162712D01*
X446216Y162722D01*
X446331Y162728D01*
X446447Y162730D01*
X445770Y168148D02*
X449834Y168148D01*
X445770Y168148D02*
X445667Y168146D01*
X445565Y168140D01*
X445463Y168131D01*
X445361Y168117D01*
X445260Y168100D01*
X445160Y168078D01*
X445061Y168053D01*
X444962Y168025D01*
X444865Y167992D01*
X444769Y167956D01*
X444674Y167917D01*
X444581Y167873D01*
X444490Y167827D01*
X444401Y167776D01*
X444313Y167723D01*
X444228Y167666D01*
X444145Y167606D01*
X444064Y167543D01*
X443985Y167477D01*
X443910Y167408D01*
X443836Y167336D01*
X443766Y167262D01*
X443698Y167185D01*
X443634Y167105D01*
X443572Y167023D01*
X443514Y166939D01*
X443459Y166852D01*
X443407Y166764D01*
X443359Y166673D01*
X443314Y166581D01*
X443272Y166488D01*
X443234Y166392D01*
X443200Y166296D01*
X443169Y166198D01*
X443143Y166099D01*
X443119Y165999D01*
X443100Y165898D01*
X443085Y165797D01*
X443073Y165695D01*
X443065Y165593D01*
X443061Y165490D01*
X443061Y165388D01*
X443065Y165285D01*
X443073Y165183D01*
X443085Y165081D01*
X443100Y164980D01*
X443119Y164879D01*
X443143Y164779D01*
X443169Y164680D01*
X443200Y164582D01*
X443234Y164486D01*
X443272Y164390D01*
X443314Y164297D01*
X443359Y164205D01*
X443407Y164114D01*
X443459Y164026D01*
X443514Y163939D01*
X443572Y163855D01*
X443634Y163773D01*
X443698Y163693D01*
X443766Y163616D01*
X443836Y163542D01*
X443910Y163470D01*
X443985Y163401D01*
X444064Y163335D01*
X444145Y163272D01*
X444228Y163212D01*
X444313Y163155D01*
X444401Y163102D01*
X444490Y163051D01*
X444581Y163005D01*
X444674Y162961D01*
X444769Y162922D01*
X444865Y162886D01*
X444962Y162853D01*
X445061Y162825D01*
X445160Y162800D01*
X445260Y162778D01*
X445361Y162761D01*
X445463Y162747D01*
X445565Y162738D01*
X445667Y162732D01*
X445770Y162730D01*
X445770Y162729D02*
X448479Y162729D01*
X437710Y168148D02*
X433646Y155956D01*
X429582Y168148D01*
X424231Y155956D02*
X420844Y155956D01*
X420728Y155958D01*
X420613Y155964D01*
X420498Y155974D01*
X420383Y155988D01*
X420269Y156005D01*
X420155Y156027D01*
X420042Y156052D01*
X419930Y156082D01*
X419819Y156115D01*
X419710Y156152D01*
X419601Y156192D01*
X419495Y156236D01*
X419389Y156284D01*
X419286Y156336D01*
X419184Y156391D01*
X419084Y156449D01*
X418986Y156511D01*
X418891Y156576D01*
X418797Y156644D01*
X418707Y156716D01*
X418618Y156790D01*
X418532Y156868D01*
X418449Y156948D01*
X418369Y157031D01*
X418291Y157117D01*
X418217Y157206D01*
X418145Y157296D01*
X418077Y157390D01*
X418012Y157485D01*
X417950Y157583D01*
X417892Y157683D01*
X417837Y157785D01*
X417785Y157888D01*
X417737Y157994D01*
X417693Y158100D01*
X417653Y158209D01*
X417616Y158318D01*
X417583Y158429D01*
X417553Y158541D01*
X417528Y158654D01*
X417506Y158768D01*
X417489Y158882D01*
X417475Y158997D01*
X417465Y159112D01*
X417459Y159227D01*
X417457Y159343D01*
X417459Y159459D01*
X417465Y159574D01*
X417475Y159689D01*
X417489Y159804D01*
X417506Y159918D01*
X417528Y160032D01*
X417553Y160145D01*
X417583Y160257D01*
X417616Y160368D01*
X417653Y160477D01*
X417693Y160586D01*
X417737Y160692D01*
X417785Y160798D01*
X417837Y160901D01*
X417892Y161003D01*
X417950Y161103D01*
X418012Y161201D01*
X418077Y161296D01*
X418145Y161390D01*
X418217Y161480D01*
X418291Y161569D01*
X418369Y161655D01*
X418449Y161738D01*
X418532Y161818D01*
X418618Y161896D01*
X418707Y161970D01*
X418797Y162042D01*
X418891Y162110D01*
X418986Y162175D01*
X419084Y162237D01*
X419184Y162295D01*
X419286Y162350D01*
X419389Y162402D01*
X419495Y162450D01*
X419601Y162494D01*
X419710Y162534D01*
X419819Y162571D01*
X419930Y162604D01*
X420042Y162634D01*
X420155Y162659D01*
X420269Y162681D01*
X420383Y162698D01*
X420498Y162712D01*
X420613Y162722D01*
X420728Y162728D01*
X420844Y162730D01*
X420167Y168148D02*
X424231Y168148D01*
X420167Y168148D02*
X420064Y168146D01*
X419962Y168140D01*
X419860Y168131D01*
X419758Y168117D01*
X419657Y168100D01*
X419557Y168078D01*
X419458Y168053D01*
X419359Y168025D01*
X419262Y167992D01*
X419166Y167956D01*
X419071Y167917D01*
X418978Y167873D01*
X418887Y167827D01*
X418798Y167776D01*
X418710Y167723D01*
X418625Y167666D01*
X418542Y167606D01*
X418461Y167543D01*
X418382Y167477D01*
X418307Y167408D01*
X418233Y167336D01*
X418163Y167262D01*
X418095Y167185D01*
X418031Y167105D01*
X417969Y167023D01*
X417911Y166939D01*
X417856Y166852D01*
X417804Y166764D01*
X417756Y166673D01*
X417711Y166581D01*
X417669Y166488D01*
X417631Y166392D01*
X417597Y166296D01*
X417566Y166198D01*
X417540Y166099D01*
X417516Y165999D01*
X417497Y165898D01*
X417482Y165797D01*
X417470Y165695D01*
X417462Y165593D01*
X417458Y165490D01*
X417458Y165388D01*
X417462Y165285D01*
X417470Y165183D01*
X417482Y165081D01*
X417497Y164980D01*
X417516Y164879D01*
X417540Y164779D01*
X417566Y164680D01*
X417597Y164582D01*
X417631Y164486D01*
X417669Y164390D01*
X417711Y164297D01*
X417756Y164205D01*
X417804Y164114D01*
X417856Y164026D01*
X417911Y163939D01*
X417969Y163855D01*
X418031Y163773D01*
X418095Y163693D01*
X418163Y163616D01*
X418233Y163542D01*
X418307Y163470D01*
X418382Y163401D01*
X418461Y163335D01*
X418542Y163272D01*
X418625Y163212D01*
X418710Y163155D01*
X418798Y163102D01*
X418887Y163051D01*
X418978Y163005D01*
X419071Y162961D01*
X419166Y162922D01*
X419262Y162886D01*
X419359Y162853D01*
X419458Y162825D01*
X419557Y162800D01*
X419657Y162778D01*
X419758Y162761D01*
X419860Y162747D01*
X419962Y162738D01*
X420064Y162732D01*
X420167Y162730D01*
X420167Y162729D02*
X422876Y162729D01*
X445770Y181356D02*
X449834Y193548D01*
X441706Y193548D02*
X445770Y181356D01*
X435529Y181356D02*
X435529Y193548D01*
X436883Y181356D02*
X434174Y181356D01*
X434174Y193548D02*
X436883Y193548D01*
X428247Y193548D02*
X428247Y181356D01*
X421474Y181356D02*
X428247Y193548D01*
X421474Y193548D02*
X421474Y181356D01*
X446447Y213529D02*
X449834Y213529D01*
X446447Y213530D02*
X446331Y213528D01*
X446216Y213522D01*
X446101Y213512D01*
X445986Y213498D01*
X445872Y213481D01*
X445758Y213459D01*
X445645Y213434D01*
X445533Y213404D01*
X445422Y213371D01*
X445313Y213334D01*
X445204Y213294D01*
X445098Y213250D01*
X444992Y213202D01*
X444889Y213150D01*
X444787Y213095D01*
X444687Y213037D01*
X444589Y212975D01*
X444494Y212910D01*
X444400Y212842D01*
X444310Y212770D01*
X444221Y212696D01*
X444135Y212618D01*
X444052Y212538D01*
X443972Y212455D01*
X443894Y212369D01*
X443820Y212280D01*
X443748Y212190D01*
X443680Y212096D01*
X443615Y212001D01*
X443553Y211903D01*
X443495Y211803D01*
X443440Y211701D01*
X443388Y211598D01*
X443340Y211492D01*
X443296Y211386D01*
X443256Y211277D01*
X443219Y211168D01*
X443186Y211057D01*
X443156Y210945D01*
X443131Y210832D01*
X443109Y210718D01*
X443092Y210604D01*
X443078Y210489D01*
X443068Y210374D01*
X443062Y210259D01*
X443060Y210143D01*
X443062Y210027D01*
X443068Y209912D01*
X443078Y209797D01*
X443092Y209682D01*
X443109Y209568D01*
X443131Y209454D01*
X443156Y209341D01*
X443186Y209229D01*
X443219Y209118D01*
X443256Y209009D01*
X443296Y208900D01*
X443340Y208794D01*
X443388Y208688D01*
X443440Y208585D01*
X443495Y208483D01*
X443553Y208383D01*
X443615Y208285D01*
X443680Y208190D01*
X443748Y208096D01*
X443820Y208006D01*
X443894Y207917D01*
X443972Y207831D01*
X444052Y207748D01*
X444135Y207668D01*
X444221Y207590D01*
X444310Y207516D01*
X444400Y207444D01*
X444494Y207376D01*
X444589Y207311D01*
X444687Y207249D01*
X444787Y207191D01*
X444889Y207136D01*
X444992Y207084D01*
X445098Y207036D01*
X445204Y206992D01*
X445313Y206952D01*
X445422Y206915D01*
X445533Y206882D01*
X445645Y206852D01*
X445758Y206827D01*
X445872Y206805D01*
X445986Y206788D01*
X446101Y206774D01*
X446216Y206764D01*
X446331Y206758D01*
X446447Y206756D01*
X449834Y206756D01*
X449834Y218948D01*
X446447Y218948D01*
X446344Y218946D01*
X446242Y218940D01*
X446140Y218931D01*
X446038Y218917D01*
X445937Y218900D01*
X445837Y218878D01*
X445738Y218853D01*
X445639Y218825D01*
X445542Y218792D01*
X445446Y218756D01*
X445351Y218717D01*
X445258Y218673D01*
X445167Y218627D01*
X445078Y218576D01*
X444990Y218523D01*
X444905Y218466D01*
X444822Y218406D01*
X444741Y218343D01*
X444662Y218277D01*
X444587Y218208D01*
X444513Y218136D01*
X444443Y218062D01*
X444375Y217985D01*
X444311Y217905D01*
X444249Y217823D01*
X444191Y217739D01*
X444136Y217652D01*
X444084Y217564D01*
X444036Y217473D01*
X443991Y217381D01*
X443949Y217288D01*
X443911Y217192D01*
X443877Y217096D01*
X443846Y216998D01*
X443820Y216899D01*
X443796Y216799D01*
X443777Y216698D01*
X443762Y216597D01*
X443750Y216495D01*
X443742Y216393D01*
X443738Y216290D01*
X443738Y216188D01*
X443742Y216085D01*
X443750Y215983D01*
X443762Y215881D01*
X443777Y215780D01*
X443796Y215679D01*
X443820Y215579D01*
X443846Y215480D01*
X443877Y215382D01*
X443911Y215286D01*
X443949Y215190D01*
X443991Y215097D01*
X444036Y215005D01*
X444084Y214914D01*
X444136Y214826D01*
X444191Y214739D01*
X444249Y214655D01*
X444311Y214573D01*
X444375Y214493D01*
X444443Y214416D01*
X444513Y214342D01*
X444587Y214270D01*
X444662Y214201D01*
X444741Y214135D01*
X444822Y214072D01*
X444905Y214012D01*
X444990Y213955D01*
X445078Y213902D01*
X445167Y213851D01*
X445258Y213805D01*
X445351Y213761D01*
X445446Y213722D01*
X445542Y213686D01*
X445639Y213653D01*
X445738Y213625D01*
X445837Y213600D01*
X445937Y213578D01*
X446038Y213561D01*
X446140Y213547D01*
X446242Y213538D01*
X446344Y213532D01*
X446447Y213530D01*
X437723Y217593D02*
X437723Y218948D01*
X430950Y218948D01*
X434337Y206756D01*
X446447Y238929D02*
X449834Y238929D01*
X446447Y238930D02*
X446331Y238928D01*
X446216Y238922D01*
X446101Y238912D01*
X445986Y238898D01*
X445872Y238881D01*
X445758Y238859D01*
X445645Y238834D01*
X445533Y238804D01*
X445422Y238771D01*
X445313Y238734D01*
X445204Y238694D01*
X445098Y238650D01*
X444992Y238602D01*
X444889Y238550D01*
X444787Y238495D01*
X444687Y238437D01*
X444589Y238375D01*
X444494Y238310D01*
X444400Y238242D01*
X444310Y238170D01*
X444221Y238096D01*
X444135Y238018D01*
X444052Y237938D01*
X443972Y237855D01*
X443894Y237769D01*
X443820Y237680D01*
X443748Y237590D01*
X443680Y237496D01*
X443615Y237401D01*
X443553Y237303D01*
X443495Y237203D01*
X443440Y237101D01*
X443388Y236998D01*
X443340Y236892D01*
X443296Y236786D01*
X443256Y236677D01*
X443219Y236568D01*
X443186Y236457D01*
X443156Y236345D01*
X443131Y236232D01*
X443109Y236118D01*
X443092Y236004D01*
X443078Y235889D01*
X443068Y235774D01*
X443062Y235659D01*
X443060Y235543D01*
X443062Y235427D01*
X443068Y235312D01*
X443078Y235197D01*
X443092Y235082D01*
X443109Y234968D01*
X443131Y234854D01*
X443156Y234741D01*
X443186Y234629D01*
X443219Y234518D01*
X443256Y234409D01*
X443296Y234300D01*
X443340Y234194D01*
X443388Y234088D01*
X443440Y233985D01*
X443495Y233883D01*
X443553Y233783D01*
X443615Y233685D01*
X443680Y233590D01*
X443748Y233496D01*
X443820Y233406D01*
X443894Y233317D01*
X443972Y233231D01*
X444052Y233148D01*
X444135Y233068D01*
X444221Y232990D01*
X444310Y232916D01*
X444400Y232844D01*
X444494Y232776D01*
X444589Y232711D01*
X444687Y232649D01*
X444787Y232591D01*
X444889Y232536D01*
X444992Y232484D01*
X445098Y232436D01*
X445204Y232392D01*
X445313Y232352D01*
X445422Y232315D01*
X445533Y232282D01*
X445645Y232252D01*
X445758Y232227D01*
X445872Y232205D01*
X445986Y232188D01*
X446101Y232174D01*
X446216Y232164D01*
X446331Y232158D01*
X446447Y232156D01*
X449834Y232156D01*
X449834Y244348D01*
X446447Y244348D01*
X446344Y244346D01*
X446242Y244340D01*
X446140Y244331D01*
X446038Y244317D01*
X445937Y244300D01*
X445837Y244278D01*
X445738Y244253D01*
X445639Y244225D01*
X445542Y244192D01*
X445446Y244156D01*
X445351Y244117D01*
X445258Y244073D01*
X445167Y244027D01*
X445078Y243976D01*
X444990Y243923D01*
X444905Y243866D01*
X444822Y243806D01*
X444741Y243743D01*
X444662Y243677D01*
X444587Y243608D01*
X444513Y243536D01*
X444443Y243462D01*
X444375Y243385D01*
X444311Y243305D01*
X444249Y243223D01*
X444191Y243139D01*
X444136Y243052D01*
X444084Y242964D01*
X444036Y242873D01*
X443991Y242781D01*
X443949Y242688D01*
X443911Y242592D01*
X443877Y242496D01*
X443846Y242398D01*
X443820Y242299D01*
X443796Y242199D01*
X443777Y242098D01*
X443762Y241997D01*
X443750Y241895D01*
X443742Y241793D01*
X443738Y241690D01*
X443738Y241588D01*
X443742Y241485D01*
X443750Y241383D01*
X443762Y241281D01*
X443777Y241180D01*
X443796Y241079D01*
X443820Y240979D01*
X443846Y240880D01*
X443877Y240782D01*
X443911Y240686D01*
X443949Y240590D01*
X443991Y240497D01*
X444036Y240405D01*
X444084Y240314D01*
X444136Y240226D01*
X444191Y240139D01*
X444249Y240055D01*
X444311Y239973D01*
X444375Y239893D01*
X444443Y239816D01*
X444513Y239742D01*
X444587Y239670D01*
X444662Y239601D01*
X444741Y239535D01*
X444822Y239472D01*
X444905Y239412D01*
X444990Y239355D01*
X445078Y239302D01*
X445167Y239251D01*
X445258Y239205D01*
X445351Y239161D01*
X445446Y239122D01*
X445542Y239086D01*
X445639Y239053D01*
X445738Y239025D01*
X445837Y239000D01*
X445937Y238978D01*
X446038Y238961D01*
X446140Y238947D01*
X446242Y238938D01*
X446344Y238932D01*
X446447Y238930D01*
X437723Y241639D02*
X434337Y244348D01*
X434337Y232156D01*
X437723Y232156D02*
X430950Y232156D01*
X424922Y238252D02*
X424919Y238492D01*
X424911Y238732D01*
X424896Y238971D01*
X424876Y239210D01*
X424851Y239448D01*
X424819Y239686D01*
X424782Y239923D01*
X424739Y240159D01*
X424691Y240394D01*
X424637Y240628D01*
X424578Y240860D01*
X424513Y241091D01*
X424442Y241320D01*
X424366Y241548D01*
X424285Y241773D01*
X424198Y241997D01*
X424106Y242219D01*
X424009Y242438D01*
X423906Y242655D01*
X423872Y242746D01*
X423835Y242836D01*
X423795Y242924D01*
X423752Y243011D01*
X423705Y243096D01*
X423654Y243179D01*
X423601Y243260D01*
X423544Y243339D01*
X423485Y243416D01*
X423422Y243491D01*
X423357Y243562D01*
X423289Y243632D01*
X423218Y243698D01*
X423145Y243762D01*
X423070Y243823D01*
X422992Y243881D01*
X422911Y243936D01*
X422829Y243988D01*
X422745Y244036D01*
X422659Y244082D01*
X422572Y244124D01*
X422482Y244162D01*
X422392Y244197D01*
X422300Y244228D01*
X422207Y244256D01*
X422113Y244281D01*
X422018Y244301D01*
X421922Y244318D01*
X421826Y244331D01*
X421729Y244340D01*
X421632Y244346D01*
X421535Y244348D01*
X421438Y244346D01*
X421341Y244340D01*
X421244Y244331D01*
X421148Y244318D01*
X421052Y244301D01*
X420957Y244281D01*
X420863Y244256D01*
X420770Y244228D01*
X420678Y244197D01*
X420588Y244162D01*
X420498Y244124D01*
X420411Y244082D01*
X420325Y244036D01*
X420241Y243988D01*
X420159Y243936D01*
X420078Y243881D01*
X420000Y243823D01*
X419925Y243762D01*
X419852Y243698D01*
X419781Y243632D01*
X419713Y243562D01*
X419648Y243491D01*
X419585Y243416D01*
X419526Y243339D01*
X419469Y243260D01*
X419416Y243179D01*
X419365Y243096D01*
X419318Y243011D01*
X419275Y242924D01*
X419235Y242836D01*
X419198Y242746D01*
X419164Y242655D01*
X419061Y242438D01*
X418964Y242219D01*
X418872Y241997D01*
X418785Y241773D01*
X418704Y241548D01*
X418628Y241320D01*
X418557Y241091D01*
X418492Y240860D01*
X418433Y240628D01*
X418379Y240394D01*
X418331Y240159D01*
X418288Y239923D01*
X418251Y239686D01*
X418219Y239448D01*
X418194Y239210D01*
X418174Y238971D01*
X418159Y238732D01*
X418151Y238492D01*
X418148Y238252D01*
X424922Y238252D02*
X424919Y238012D01*
X424911Y237772D01*
X424896Y237533D01*
X424876Y237294D01*
X424851Y237056D01*
X424819Y236818D01*
X424782Y236581D01*
X424739Y236345D01*
X424691Y236110D01*
X424637Y235876D01*
X424578Y235644D01*
X424513Y235413D01*
X424442Y235184D01*
X424366Y234956D01*
X424285Y234731D01*
X424198Y234507D01*
X424106Y234285D01*
X424009Y234066D01*
X423906Y233849D01*
X423872Y233758D01*
X423835Y233668D01*
X423795Y233580D01*
X423752Y233493D01*
X423705Y233408D01*
X423654Y233325D01*
X423601Y233244D01*
X423544Y233165D01*
X423485Y233088D01*
X423422Y233013D01*
X423357Y232942D01*
X423289Y232872D01*
X423218Y232806D01*
X423145Y232742D01*
X423070Y232681D01*
X422992Y232623D01*
X422911Y232568D01*
X422829Y232516D01*
X422745Y232468D01*
X422659Y232422D01*
X422572Y232380D01*
X422482Y232342D01*
X422392Y232307D01*
X422300Y232276D01*
X422207Y232248D01*
X422113Y232223D01*
X422018Y232203D01*
X421922Y232186D01*
X421826Y232173D01*
X421729Y232164D01*
X421632Y232158D01*
X421535Y232156D01*
X419165Y233849D02*
X419062Y234066D01*
X418965Y234285D01*
X418873Y234507D01*
X418786Y234731D01*
X418705Y234956D01*
X418629Y235184D01*
X418558Y235413D01*
X418493Y235644D01*
X418434Y235876D01*
X418380Y236110D01*
X418332Y236345D01*
X418289Y236581D01*
X418252Y236818D01*
X418220Y237056D01*
X418195Y237294D01*
X418175Y237533D01*
X418160Y237772D01*
X418152Y238012D01*
X418149Y238252D01*
X419164Y233849D02*
X419198Y233758D01*
X419235Y233668D01*
X419275Y233580D01*
X419318Y233493D01*
X419365Y233408D01*
X419416Y233325D01*
X419469Y233244D01*
X419526Y233165D01*
X419585Y233088D01*
X419648Y233013D01*
X419713Y232942D01*
X419781Y232872D01*
X419852Y232806D01*
X419925Y232742D01*
X420000Y232681D01*
X420078Y232623D01*
X420159Y232568D01*
X420241Y232516D01*
X420325Y232468D01*
X420411Y232422D01*
X420498Y232380D01*
X420588Y232342D01*
X420678Y232307D01*
X420770Y232276D01*
X420863Y232248D01*
X420957Y232223D01*
X421052Y232203D01*
X421148Y232186D01*
X421244Y232173D01*
X421341Y232164D01*
X421438Y232158D01*
X421535Y232156D01*
X424244Y234865D02*
X418826Y241639D01*
X446447Y264329D02*
X449834Y264329D01*
X446447Y264330D02*
X446331Y264328D01*
X446216Y264322D01*
X446101Y264312D01*
X445986Y264298D01*
X445872Y264281D01*
X445758Y264259D01*
X445645Y264234D01*
X445533Y264204D01*
X445422Y264171D01*
X445313Y264134D01*
X445204Y264094D01*
X445098Y264050D01*
X444992Y264002D01*
X444889Y263950D01*
X444787Y263895D01*
X444687Y263837D01*
X444589Y263775D01*
X444494Y263710D01*
X444400Y263642D01*
X444310Y263570D01*
X444221Y263496D01*
X444135Y263418D01*
X444052Y263338D01*
X443972Y263255D01*
X443894Y263169D01*
X443820Y263080D01*
X443748Y262990D01*
X443680Y262896D01*
X443615Y262801D01*
X443553Y262703D01*
X443495Y262603D01*
X443440Y262501D01*
X443388Y262398D01*
X443340Y262292D01*
X443296Y262186D01*
X443256Y262077D01*
X443219Y261968D01*
X443186Y261857D01*
X443156Y261745D01*
X443131Y261632D01*
X443109Y261518D01*
X443092Y261404D01*
X443078Y261289D01*
X443068Y261174D01*
X443062Y261059D01*
X443060Y260943D01*
X443062Y260827D01*
X443068Y260712D01*
X443078Y260597D01*
X443092Y260482D01*
X443109Y260368D01*
X443131Y260254D01*
X443156Y260141D01*
X443186Y260029D01*
X443219Y259918D01*
X443256Y259809D01*
X443296Y259700D01*
X443340Y259594D01*
X443388Y259488D01*
X443440Y259385D01*
X443495Y259283D01*
X443553Y259183D01*
X443615Y259085D01*
X443680Y258990D01*
X443748Y258896D01*
X443820Y258806D01*
X443894Y258717D01*
X443972Y258631D01*
X444052Y258548D01*
X444135Y258468D01*
X444221Y258390D01*
X444310Y258316D01*
X444400Y258244D01*
X444494Y258176D01*
X444589Y258111D01*
X444687Y258049D01*
X444787Y257991D01*
X444889Y257936D01*
X444992Y257884D01*
X445098Y257836D01*
X445204Y257792D01*
X445313Y257752D01*
X445422Y257715D01*
X445533Y257682D01*
X445645Y257652D01*
X445758Y257627D01*
X445872Y257605D01*
X445986Y257588D01*
X446101Y257574D01*
X446216Y257564D01*
X446331Y257558D01*
X446447Y257556D01*
X449834Y257556D01*
X449834Y269748D01*
X446447Y269748D01*
X446344Y269746D01*
X446242Y269740D01*
X446140Y269731D01*
X446038Y269717D01*
X445937Y269700D01*
X445837Y269678D01*
X445738Y269653D01*
X445639Y269625D01*
X445542Y269592D01*
X445446Y269556D01*
X445351Y269517D01*
X445258Y269473D01*
X445167Y269427D01*
X445078Y269376D01*
X444990Y269323D01*
X444905Y269266D01*
X444822Y269206D01*
X444741Y269143D01*
X444662Y269077D01*
X444587Y269008D01*
X444513Y268936D01*
X444443Y268862D01*
X444375Y268785D01*
X444311Y268705D01*
X444249Y268623D01*
X444191Y268539D01*
X444136Y268452D01*
X444084Y268364D01*
X444036Y268273D01*
X443991Y268181D01*
X443949Y268088D01*
X443911Y267992D01*
X443877Y267896D01*
X443846Y267798D01*
X443820Y267699D01*
X443796Y267599D01*
X443777Y267498D01*
X443762Y267397D01*
X443750Y267295D01*
X443742Y267193D01*
X443738Y267090D01*
X443738Y266988D01*
X443742Y266885D01*
X443750Y266783D01*
X443762Y266681D01*
X443777Y266580D01*
X443796Y266479D01*
X443820Y266379D01*
X443846Y266280D01*
X443877Y266182D01*
X443911Y266086D01*
X443949Y265990D01*
X443991Y265897D01*
X444036Y265805D01*
X444084Y265714D01*
X444136Y265626D01*
X444191Y265539D01*
X444249Y265455D01*
X444311Y265373D01*
X444375Y265293D01*
X444443Y265216D01*
X444513Y265142D01*
X444587Y265070D01*
X444662Y265001D01*
X444741Y264935D01*
X444822Y264872D01*
X444905Y264812D01*
X444990Y264755D01*
X445078Y264702D01*
X445167Y264651D01*
X445258Y264605D01*
X445351Y264561D01*
X445446Y264522D01*
X445542Y264486D01*
X445639Y264453D01*
X445738Y264425D01*
X445837Y264400D01*
X445937Y264378D01*
X446038Y264361D01*
X446140Y264347D01*
X446242Y264338D01*
X446344Y264332D01*
X446447Y264330D01*
X437723Y267039D02*
X434337Y269748D01*
X434337Y257556D01*
X437723Y257556D02*
X430950Y257556D01*
X424922Y267039D02*
X421535Y269748D01*
X421535Y257556D01*
X424922Y257556D02*
X418148Y257556D01*
X446447Y289729D02*
X449834Y289729D01*
X446447Y289730D02*
X446331Y289728D01*
X446216Y289722D01*
X446101Y289712D01*
X445986Y289698D01*
X445872Y289681D01*
X445758Y289659D01*
X445645Y289634D01*
X445533Y289604D01*
X445422Y289571D01*
X445313Y289534D01*
X445204Y289494D01*
X445098Y289450D01*
X444992Y289402D01*
X444889Y289350D01*
X444787Y289295D01*
X444687Y289237D01*
X444589Y289175D01*
X444494Y289110D01*
X444400Y289042D01*
X444310Y288970D01*
X444221Y288896D01*
X444135Y288818D01*
X444052Y288738D01*
X443972Y288655D01*
X443894Y288569D01*
X443820Y288480D01*
X443748Y288390D01*
X443680Y288296D01*
X443615Y288201D01*
X443553Y288103D01*
X443495Y288003D01*
X443440Y287901D01*
X443388Y287798D01*
X443340Y287692D01*
X443296Y287586D01*
X443256Y287477D01*
X443219Y287368D01*
X443186Y287257D01*
X443156Y287145D01*
X443131Y287032D01*
X443109Y286918D01*
X443092Y286804D01*
X443078Y286689D01*
X443068Y286574D01*
X443062Y286459D01*
X443060Y286343D01*
X443062Y286227D01*
X443068Y286112D01*
X443078Y285997D01*
X443092Y285882D01*
X443109Y285768D01*
X443131Y285654D01*
X443156Y285541D01*
X443186Y285429D01*
X443219Y285318D01*
X443256Y285209D01*
X443296Y285100D01*
X443340Y284994D01*
X443388Y284888D01*
X443440Y284785D01*
X443495Y284683D01*
X443553Y284583D01*
X443615Y284485D01*
X443680Y284390D01*
X443748Y284296D01*
X443820Y284206D01*
X443894Y284117D01*
X443972Y284031D01*
X444052Y283948D01*
X444135Y283868D01*
X444221Y283790D01*
X444310Y283716D01*
X444400Y283644D01*
X444494Y283576D01*
X444589Y283511D01*
X444687Y283449D01*
X444787Y283391D01*
X444889Y283336D01*
X444992Y283284D01*
X445098Y283236D01*
X445204Y283192D01*
X445313Y283152D01*
X445422Y283115D01*
X445533Y283082D01*
X445645Y283052D01*
X445758Y283027D01*
X445872Y283005D01*
X445986Y282988D01*
X446101Y282974D01*
X446216Y282964D01*
X446331Y282958D01*
X446447Y282956D01*
X449834Y282956D01*
X449834Y295148D01*
X446447Y295148D01*
X446344Y295146D01*
X446242Y295140D01*
X446140Y295131D01*
X446038Y295117D01*
X445937Y295100D01*
X445837Y295078D01*
X445738Y295053D01*
X445639Y295025D01*
X445542Y294992D01*
X445446Y294956D01*
X445351Y294917D01*
X445258Y294873D01*
X445167Y294827D01*
X445078Y294776D01*
X444990Y294723D01*
X444905Y294666D01*
X444822Y294606D01*
X444741Y294543D01*
X444662Y294477D01*
X444587Y294408D01*
X444513Y294336D01*
X444443Y294262D01*
X444375Y294185D01*
X444311Y294105D01*
X444249Y294023D01*
X444191Y293939D01*
X444136Y293852D01*
X444084Y293764D01*
X444036Y293673D01*
X443991Y293581D01*
X443949Y293488D01*
X443911Y293392D01*
X443877Y293296D01*
X443846Y293198D01*
X443820Y293099D01*
X443796Y292999D01*
X443777Y292898D01*
X443762Y292797D01*
X443750Y292695D01*
X443742Y292593D01*
X443738Y292490D01*
X443738Y292388D01*
X443742Y292285D01*
X443750Y292183D01*
X443762Y292081D01*
X443777Y291980D01*
X443796Y291879D01*
X443820Y291779D01*
X443846Y291680D01*
X443877Y291582D01*
X443911Y291486D01*
X443949Y291390D01*
X443991Y291297D01*
X444036Y291205D01*
X444084Y291114D01*
X444136Y291026D01*
X444191Y290939D01*
X444249Y290855D01*
X444311Y290773D01*
X444375Y290693D01*
X444443Y290616D01*
X444513Y290542D01*
X444587Y290470D01*
X444662Y290401D01*
X444741Y290335D01*
X444822Y290272D01*
X444905Y290212D01*
X444990Y290155D01*
X445078Y290102D01*
X445167Y290051D01*
X445258Y290005D01*
X445351Y289961D01*
X445446Y289922D01*
X445542Y289886D01*
X445639Y289853D01*
X445738Y289825D01*
X445837Y289800D01*
X445937Y289778D01*
X446038Y289761D01*
X446140Y289747D01*
X446242Y289738D01*
X446344Y289732D01*
X446447Y289730D01*
X437723Y292439D02*
X434337Y295148D01*
X434337Y282956D01*
X437723Y282956D02*
X430950Y282956D01*
X421196Y295148D02*
X421087Y295146D01*
X420979Y295140D01*
X420870Y295131D01*
X420762Y295117D01*
X420655Y295100D01*
X420548Y295078D01*
X420442Y295053D01*
X420337Y295025D01*
X420233Y294992D01*
X420131Y294956D01*
X420030Y294916D01*
X419930Y294873D01*
X419832Y294826D01*
X419735Y294775D01*
X419641Y294721D01*
X419548Y294664D01*
X419458Y294604D01*
X419369Y294540D01*
X419283Y294473D01*
X419200Y294404D01*
X419119Y294331D01*
X419041Y294255D01*
X418965Y294177D01*
X418892Y294096D01*
X418823Y294013D01*
X418756Y293927D01*
X418692Y293838D01*
X418632Y293748D01*
X418575Y293655D01*
X418521Y293561D01*
X418470Y293464D01*
X418423Y293366D01*
X418380Y293266D01*
X418340Y293165D01*
X418304Y293063D01*
X418271Y292959D01*
X418243Y292854D01*
X418218Y292748D01*
X418196Y292641D01*
X418179Y292534D01*
X418165Y292426D01*
X418156Y292317D01*
X418150Y292209D01*
X418148Y292100D01*
X421196Y295148D02*
X421319Y295146D01*
X421442Y295140D01*
X421565Y295131D01*
X421687Y295117D01*
X421809Y295100D01*
X421930Y295079D01*
X422051Y295054D01*
X422171Y295025D01*
X422289Y294992D01*
X422407Y294956D01*
X422523Y294916D01*
X422639Y294873D01*
X422752Y294825D01*
X422865Y294775D01*
X422975Y294721D01*
X423084Y294663D01*
X423191Y294602D01*
X423296Y294537D01*
X423399Y294470D01*
X423499Y294399D01*
X423598Y294325D01*
X423694Y294248D01*
X423787Y294168D01*
X423878Y294085D01*
X423967Y293999D01*
X424052Y293911D01*
X424135Y293820D01*
X424215Y293726D01*
X424292Y293630D01*
X424366Y293531D01*
X424436Y293431D01*
X424504Y293328D01*
X424568Y293223D01*
X424629Y293116D01*
X424687Y293007D01*
X424741Y292896D01*
X424791Y292784D01*
X424838Y292670D01*
X424882Y292555D01*
X424921Y292439D01*
X419164Y289729D02*
X419085Y289807D01*
X419009Y289887D01*
X418936Y289969D01*
X418866Y290055D01*
X418798Y290142D01*
X418733Y290232D01*
X418672Y290323D01*
X418614Y290417D01*
X418558Y290513D01*
X418507Y290610D01*
X418458Y290710D01*
X418413Y290810D01*
X418371Y290913D01*
X418333Y291016D01*
X418298Y291121D01*
X418267Y291227D01*
X418239Y291334D01*
X418215Y291442D01*
X418194Y291550D01*
X418178Y291659D01*
X418165Y291769D01*
X418155Y291879D01*
X418150Y291990D01*
X418148Y292100D01*
X419164Y289729D02*
X424922Y282956D01*
X418148Y282956D01*
X446447Y315129D02*
X449834Y315129D01*
X446447Y315130D02*
X446331Y315128D01*
X446216Y315122D01*
X446101Y315112D01*
X445986Y315098D01*
X445872Y315081D01*
X445758Y315059D01*
X445645Y315034D01*
X445533Y315004D01*
X445422Y314971D01*
X445313Y314934D01*
X445204Y314894D01*
X445098Y314850D01*
X444992Y314802D01*
X444889Y314750D01*
X444787Y314695D01*
X444687Y314637D01*
X444589Y314575D01*
X444494Y314510D01*
X444400Y314442D01*
X444310Y314370D01*
X444221Y314296D01*
X444135Y314218D01*
X444052Y314138D01*
X443972Y314055D01*
X443894Y313969D01*
X443820Y313880D01*
X443748Y313790D01*
X443680Y313696D01*
X443615Y313601D01*
X443553Y313503D01*
X443495Y313403D01*
X443440Y313301D01*
X443388Y313198D01*
X443340Y313092D01*
X443296Y312986D01*
X443256Y312877D01*
X443219Y312768D01*
X443186Y312657D01*
X443156Y312545D01*
X443131Y312432D01*
X443109Y312318D01*
X443092Y312204D01*
X443078Y312089D01*
X443068Y311974D01*
X443062Y311859D01*
X443060Y311743D01*
X443062Y311627D01*
X443068Y311512D01*
X443078Y311397D01*
X443092Y311282D01*
X443109Y311168D01*
X443131Y311054D01*
X443156Y310941D01*
X443186Y310829D01*
X443219Y310718D01*
X443256Y310609D01*
X443296Y310500D01*
X443340Y310394D01*
X443388Y310288D01*
X443440Y310185D01*
X443495Y310083D01*
X443553Y309983D01*
X443615Y309885D01*
X443680Y309790D01*
X443748Y309696D01*
X443820Y309606D01*
X443894Y309517D01*
X443972Y309431D01*
X444052Y309348D01*
X444135Y309268D01*
X444221Y309190D01*
X444310Y309116D01*
X444400Y309044D01*
X444494Y308976D01*
X444589Y308911D01*
X444687Y308849D01*
X444787Y308791D01*
X444889Y308736D01*
X444992Y308684D01*
X445098Y308636D01*
X445204Y308592D01*
X445313Y308552D01*
X445422Y308515D01*
X445533Y308482D01*
X445645Y308452D01*
X445758Y308427D01*
X445872Y308405D01*
X445986Y308388D01*
X446101Y308374D01*
X446216Y308364D01*
X446331Y308358D01*
X446447Y308356D01*
X449834Y308356D01*
X449834Y320548D01*
X446447Y320548D01*
X446344Y320546D01*
X446242Y320540D01*
X446140Y320531D01*
X446038Y320517D01*
X445937Y320500D01*
X445837Y320478D01*
X445738Y320453D01*
X445639Y320425D01*
X445542Y320392D01*
X445446Y320356D01*
X445351Y320317D01*
X445258Y320273D01*
X445167Y320227D01*
X445078Y320176D01*
X444990Y320123D01*
X444905Y320066D01*
X444822Y320006D01*
X444741Y319943D01*
X444662Y319877D01*
X444587Y319808D01*
X444513Y319736D01*
X444443Y319662D01*
X444375Y319585D01*
X444311Y319505D01*
X444249Y319423D01*
X444191Y319339D01*
X444136Y319252D01*
X444084Y319164D01*
X444036Y319073D01*
X443991Y318981D01*
X443949Y318888D01*
X443911Y318792D01*
X443877Y318696D01*
X443846Y318598D01*
X443820Y318499D01*
X443796Y318399D01*
X443777Y318298D01*
X443762Y318197D01*
X443750Y318095D01*
X443742Y317993D01*
X443738Y317890D01*
X443738Y317788D01*
X443742Y317685D01*
X443750Y317583D01*
X443762Y317481D01*
X443777Y317380D01*
X443796Y317279D01*
X443820Y317179D01*
X443846Y317080D01*
X443877Y316982D01*
X443911Y316886D01*
X443949Y316790D01*
X443991Y316697D01*
X444036Y316605D01*
X444084Y316514D01*
X444136Y316426D01*
X444191Y316339D01*
X444249Y316255D01*
X444311Y316173D01*
X444375Y316093D01*
X444443Y316016D01*
X444513Y315942D01*
X444587Y315870D01*
X444662Y315801D01*
X444741Y315735D01*
X444822Y315672D01*
X444905Y315612D01*
X444990Y315555D01*
X445078Y315502D01*
X445167Y315451D01*
X445258Y315405D01*
X445351Y315361D01*
X445446Y315322D01*
X445542Y315286D01*
X445639Y315253D01*
X445738Y315225D01*
X445837Y315200D01*
X445937Y315178D01*
X446038Y315161D01*
X446140Y315147D01*
X446242Y315138D01*
X446344Y315132D01*
X446447Y315130D01*
X437723Y317839D02*
X434337Y320548D01*
X434337Y308356D01*
X437723Y308356D02*
X430950Y308356D01*
X424922Y308356D02*
X421535Y308356D01*
X421419Y308358D01*
X421304Y308364D01*
X421189Y308374D01*
X421074Y308388D01*
X420960Y308405D01*
X420846Y308427D01*
X420733Y308452D01*
X420621Y308482D01*
X420510Y308515D01*
X420401Y308552D01*
X420292Y308592D01*
X420186Y308636D01*
X420080Y308684D01*
X419977Y308736D01*
X419875Y308791D01*
X419775Y308849D01*
X419677Y308911D01*
X419582Y308976D01*
X419488Y309044D01*
X419398Y309116D01*
X419309Y309190D01*
X419223Y309268D01*
X419140Y309348D01*
X419060Y309431D01*
X418982Y309517D01*
X418908Y309606D01*
X418836Y309696D01*
X418768Y309790D01*
X418703Y309885D01*
X418641Y309983D01*
X418583Y310083D01*
X418528Y310185D01*
X418476Y310288D01*
X418428Y310394D01*
X418384Y310500D01*
X418344Y310609D01*
X418307Y310718D01*
X418274Y310829D01*
X418244Y310941D01*
X418219Y311054D01*
X418197Y311168D01*
X418180Y311282D01*
X418166Y311397D01*
X418156Y311512D01*
X418150Y311627D01*
X418148Y311743D01*
X418150Y311859D01*
X418156Y311974D01*
X418166Y312089D01*
X418180Y312204D01*
X418197Y312318D01*
X418219Y312432D01*
X418244Y312545D01*
X418274Y312657D01*
X418307Y312768D01*
X418344Y312877D01*
X418384Y312986D01*
X418428Y313092D01*
X418476Y313198D01*
X418528Y313301D01*
X418583Y313403D01*
X418641Y313503D01*
X418703Y313601D01*
X418768Y313696D01*
X418836Y313790D01*
X418908Y313880D01*
X418982Y313969D01*
X419060Y314055D01*
X419140Y314138D01*
X419223Y314218D01*
X419309Y314296D01*
X419398Y314370D01*
X419488Y314442D01*
X419582Y314510D01*
X419677Y314575D01*
X419775Y314637D01*
X419875Y314695D01*
X419977Y314750D01*
X420080Y314802D01*
X420186Y314850D01*
X420292Y314894D01*
X420401Y314934D01*
X420510Y314971D01*
X420621Y315004D01*
X420733Y315034D01*
X420846Y315059D01*
X420960Y315081D01*
X421074Y315098D01*
X421189Y315112D01*
X421304Y315122D01*
X421419Y315128D01*
X421535Y315130D01*
X420858Y320548D02*
X424922Y320548D01*
X420858Y320548D02*
X420755Y320546D01*
X420653Y320540D01*
X420551Y320531D01*
X420449Y320517D01*
X420348Y320500D01*
X420248Y320478D01*
X420149Y320453D01*
X420050Y320425D01*
X419953Y320392D01*
X419857Y320356D01*
X419762Y320317D01*
X419669Y320273D01*
X419578Y320227D01*
X419489Y320176D01*
X419401Y320123D01*
X419316Y320066D01*
X419233Y320006D01*
X419152Y319943D01*
X419073Y319877D01*
X418998Y319808D01*
X418924Y319736D01*
X418854Y319662D01*
X418786Y319585D01*
X418722Y319505D01*
X418660Y319423D01*
X418602Y319339D01*
X418547Y319252D01*
X418495Y319164D01*
X418447Y319073D01*
X418402Y318981D01*
X418360Y318888D01*
X418322Y318792D01*
X418288Y318696D01*
X418257Y318598D01*
X418231Y318499D01*
X418207Y318399D01*
X418188Y318298D01*
X418173Y318197D01*
X418161Y318095D01*
X418153Y317993D01*
X418149Y317890D01*
X418149Y317788D01*
X418153Y317685D01*
X418161Y317583D01*
X418173Y317481D01*
X418188Y317380D01*
X418207Y317279D01*
X418231Y317179D01*
X418257Y317080D01*
X418288Y316982D01*
X418322Y316886D01*
X418360Y316790D01*
X418402Y316697D01*
X418447Y316605D01*
X418495Y316514D01*
X418547Y316426D01*
X418602Y316339D01*
X418660Y316255D01*
X418722Y316173D01*
X418786Y316093D01*
X418854Y316016D01*
X418924Y315942D01*
X418998Y315870D01*
X419073Y315801D01*
X419152Y315735D01*
X419233Y315672D01*
X419316Y315612D01*
X419401Y315555D01*
X419489Y315502D01*
X419578Y315451D01*
X419669Y315405D01*
X419762Y315361D01*
X419857Y315322D01*
X419953Y315286D01*
X420050Y315253D01*
X420149Y315225D01*
X420248Y315200D01*
X420348Y315178D01*
X420449Y315161D01*
X420551Y315147D01*
X420653Y315138D01*
X420755Y315132D01*
X420858Y315130D01*
X420858Y315129D02*
X423567Y315129D01*
X446447Y340529D02*
X449834Y340529D01*
X446447Y340530D02*
X446331Y340528D01*
X446216Y340522D01*
X446101Y340512D01*
X445986Y340498D01*
X445872Y340481D01*
X445758Y340459D01*
X445645Y340434D01*
X445533Y340404D01*
X445422Y340371D01*
X445313Y340334D01*
X445204Y340294D01*
X445098Y340250D01*
X444992Y340202D01*
X444889Y340150D01*
X444787Y340095D01*
X444687Y340037D01*
X444589Y339975D01*
X444494Y339910D01*
X444400Y339842D01*
X444310Y339770D01*
X444221Y339696D01*
X444135Y339618D01*
X444052Y339538D01*
X443972Y339455D01*
X443894Y339369D01*
X443820Y339280D01*
X443748Y339190D01*
X443680Y339096D01*
X443615Y339001D01*
X443553Y338903D01*
X443495Y338803D01*
X443440Y338701D01*
X443388Y338598D01*
X443340Y338492D01*
X443296Y338386D01*
X443256Y338277D01*
X443219Y338168D01*
X443186Y338057D01*
X443156Y337945D01*
X443131Y337832D01*
X443109Y337718D01*
X443092Y337604D01*
X443078Y337489D01*
X443068Y337374D01*
X443062Y337259D01*
X443060Y337143D01*
X443062Y337027D01*
X443068Y336912D01*
X443078Y336797D01*
X443092Y336682D01*
X443109Y336568D01*
X443131Y336454D01*
X443156Y336341D01*
X443186Y336229D01*
X443219Y336118D01*
X443256Y336009D01*
X443296Y335900D01*
X443340Y335794D01*
X443388Y335688D01*
X443440Y335585D01*
X443495Y335483D01*
X443553Y335383D01*
X443615Y335285D01*
X443680Y335190D01*
X443748Y335096D01*
X443820Y335006D01*
X443894Y334917D01*
X443972Y334831D01*
X444052Y334748D01*
X444135Y334668D01*
X444221Y334590D01*
X444310Y334516D01*
X444400Y334444D01*
X444494Y334376D01*
X444589Y334311D01*
X444687Y334249D01*
X444787Y334191D01*
X444889Y334136D01*
X444992Y334084D01*
X445098Y334036D01*
X445204Y333992D01*
X445313Y333952D01*
X445422Y333915D01*
X445533Y333882D01*
X445645Y333852D01*
X445758Y333827D01*
X445872Y333805D01*
X445986Y333788D01*
X446101Y333774D01*
X446216Y333764D01*
X446331Y333758D01*
X446447Y333756D01*
X449834Y333756D01*
X449834Y345948D01*
X446447Y345948D01*
X446344Y345946D01*
X446242Y345940D01*
X446140Y345931D01*
X446038Y345917D01*
X445937Y345900D01*
X445837Y345878D01*
X445738Y345853D01*
X445639Y345825D01*
X445542Y345792D01*
X445446Y345756D01*
X445351Y345717D01*
X445258Y345673D01*
X445167Y345627D01*
X445078Y345576D01*
X444990Y345523D01*
X444905Y345466D01*
X444822Y345406D01*
X444741Y345343D01*
X444662Y345277D01*
X444587Y345208D01*
X444513Y345136D01*
X444443Y345062D01*
X444375Y344985D01*
X444311Y344905D01*
X444249Y344823D01*
X444191Y344739D01*
X444136Y344652D01*
X444084Y344564D01*
X444036Y344473D01*
X443991Y344381D01*
X443949Y344288D01*
X443911Y344192D01*
X443877Y344096D01*
X443846Y343998D01*
X443820Y343899D01*
X443796Y343799D01*
X443777Y343698D01*
X443762Y343597D01*
X443750Y343495D01*
X443742Y343393D01*
X443738Y343290D01*
X443738Y343188D01*
X443742Y343085D01*
X443750Y342983D01*
X443762Y342881D01*
X443777Y342780D01*
X443796Y342679D01*
X443820Y342579D01*
X443846Y342480D01*
X443877Y342382D01*
X443911Y342286D01*
X443949Y342190D01*
X443991Y342097D01*
X444036Y342005D01*
X444084Y341914D01*
X444136Y341826D01*
X444191Y341739D01*
X444249Y341655D01*
X444311Y341573D01*
X444375Y341493D01*
X444443Y341416D01*
X444513Y341342D01*
X444587Y341270D01*
X444662Y341201D01*
X444741Y341135D01*
X444822Y341072D01*
X444905Y341012D01*
X444990Y340955D01*
X445078Y340902D01*
X445167Y340851D01*
X445258Y340805D01*
X445351Y340761D01*
X445446Y340722D01*
X445542Y340686D01*
X445639Y340653D01*
X445738Y340625D01*
X445837Y340600D01*
X445937Y340578D01*
X446038Y340561D01*
X446140Y340547D01*
X446242Y340538D01*
X446344Y340532D01*
X446447Y340530D01*
X437723Y343239D02*
X434337Y345948D01*
X434337Y333756D01*
X437723Y333756D02*
X430950Y333756D01*
X424922Y336465D02*
X422212Y345948D01*
X424922Y336465D02*
X418148Y336465D01*
X420180Y333756D02*
X420180Y339175D01*
X446447Y365929D02*
X449834Y365929D01*
X446447Y365930D02*
X446331Y365928D01*
X446216Y365922D01*
X446101Y365912D01*
X445986Y365898D01*
X445872Y365881D01*
X445758Y365859D01*
X445645Y365834D01*
X445533Y365804D01*
X445422Y365771D01*
X445313Y365734D01*
X445204Y365694D01*
X445098Y365650D01*
X444992Y365602D01*
X444889Y365550D01*
X444787Y365495D01*
X444687Y365437D01*
X444589Y365375D01*
X444494Y365310D01*
X444400Y365242D01*
X444310Y365170D01*
X444221Y365096D01*
X444135Y365018D01*
X444052Y364938D01*
X443972Y364855D01*
X443894Y364769D01*
X443820Y364680D01*
X443748Y364590D01*
X443680Y364496D01*
X443615Y364401D01*
X443553Y364303D01*
X443495Y364203D01*
X443440Y364101D01*
X443388Y363998D01*
X443340Y363892D01*
X443296Y363786D01*
X443256Y363677D01*
X443219Y363568D01*
X443186Y363457D01*
X443156Y363345D01*
X443131Y363232D01*
X443109Y363118D01*
X443092Y363004D01*
X443078Y362889D01*
X443068Y362774D01*
X443062Y362659D01*
X443060Y362543D01*
X443062Y362427D01*
X443068Y362312D01*
X443078Y362197D01*
X443092Y362082D01*
X443109Y361968D01*
X443131Y361854D01*
X443156Y361741D01*
X443186Y361629D01*
X443219Y361518D01*
X443256Y361409D01*
X443296Y361300D01*
X443340Y361194D01*
X443388Y361088D01*
X443440Y360985D01*
X443495Y360883D01*
X443553Y360783D01*
X443615Y360685D01*
X443680Y360590D01*
X443748Y360496D01*
X443820Y360406D01*
X443894Y360317D01*
X443972Y360231D01*
X444052Y360148D01*
X444135Y360068D01*
X444221Y359990D01*
X444310Y359916D01*
X444400Y359844D01*
X444494Y359776D01*
X444589Y359711D01*
X444687Y359649D01*
X444787Y359591D01*
X444889Y359536D01*
X444992Y359484D01*
X445098Y359436D01*
X445204Y359392D01*
X445313Y359352D01*
X445422Y359315D01*
X445533Y359282D01*
X445645Y359252D01*
X445758Y359227D01*
X445872Y359205D01*
X445986Y359188D01*
X446101Y359174D01*
X446216Y359164D01*
X446331Y359158D01*
X446447Y359156D01*
X449834Y359156D01*
X449834Y371348D01*
X446447Y371348D01*
X446344Y371346D01*
X446242Y371340D01*
X446140Y371331D01*
X446038Y371317D01*
X445937Y371300D01*
X445837Y371278D01*
X445738Y371253D01*
X445639Y371225D01*
X445542Y371192D01*
X445446Y371156D01*
X445351Y371117D01*
X445258Y371073D01*
X445167Y371027D01*
X445078Y370976D01*
X444990Y370923D01*
X444905Y370866D01*
X444822Y370806D01*
X444741Y370743D01*
X444662Y370677D01*
X444587Y370608D01*
X444513Y370536D01*
X444443Y370462D01*
X444375Y370385D01*
X444311Y370305D01*
X444249Y370223D01*
X444191Y370139D01*
X444136Y370052D01*
X444084Y369964D01*
X444036Y369873D01*
X443991Y369781D01*
X443949Y369688D01*
X443911Y369592D01*
X443877Y369496D01*
X443846Y369398D01*
X443820Y369299D01*
X443796Y369199D01*
X443777Y369098D01*
X443762Y368997D01*
X443750Y368895D01*
X443742Y368793D01*
X443738Y368690D01*
X443738Y368588D01*
X443742Y368485D01*
X443750Y368383D01*
X443762Y368281D01*
X443777Y368180D01*
X443796Y368079D01*
X443820Y367979D01*
X443846Y367880D01*
X443877Y367782D01*
X443911Y367686D01*
X443949Y367590D01*
X443991Y367497D01*
X444036Y367405D01*
X444084Y367314D01*
X444136Y367226D01*
X444191Y367139D01*
X444249Y367055D01*
X444311Y366973D01*
X444375Y366893D01*
X444443Y366816D01*
X444513Y366742D01*
X444587Y366670D01*
X444662Y366601D01*
X444741Y366535D01*
X444822Y366472D01*
X444905Y366412D01*
X444990Y366355D01*
X445078Y366302D01*
X445167Y366251D01*
X445258Y366205D01*
X445351Y366161D01*
X445446Y366122D01*
X445542Y366086D01*
X445639Y366053D01*
X445738Y366025D01*
X445837Y366000D01*
X445937Y365978D01*
X446038Y365961D01*
X446140Y365947D01*
X446242Y365938D01*
X446344Y365932D01*
X446447Y365930D01*
X437723Y368639D02*
X434337Y371348D01*
X434337Y359156D01*
X437723Y359156D02*
X430950Y359156D01*
X424922Y359156D02*
X420858Y359156D01*
X420757Y359158D01*
X420656Y359164D01*
X420555Y359173D01*
X420454Y359186D01*
X420354Y359203D01*
X420255Y359224D01*
X420157Y359248D01*
X420060Y359276D01*
X419963Y359308D01*
X419868Y359343D01*
X419775Y359382D01*
X419683Y359424D01*
X419592Y359470D01*
X419504Y359519D01*
X419417Y359571D01*
X419332Y359627D01*
X419249Y359685D01*
X419169Y359747D01*
X419091Y359812D01*
X419015Y359879D01*
X418942Y359949D01*
X418872Y360022D01*
X418805Y360098D01*
X418740Y360176D01*
X418678Y360256D01*
X418620Y360339D01*
X418564Y360424D01*
X418512Y360511D01*
X418463Y360599D01*
X418417Y360690D01*
X418375Y360782D01*
X418336Y360875D01*
X418301Y360970D01*
X418269Y361067D01*
X418241Y361164D01*
X418217Y361262D01*
X418196Y361361D01*
X418179Y361461D01*
X418166Y361562D01*
X418157Y361663D01*
X418151Y361764D01*
X418149Y361865D01*
X418148Y361865D02*
X418148Y363220D01*
X418149Y363220D02*
X418151Y363321D01*
X418157Y363422D01*
X418166Y363523D01*
X418179Y363624D01*
X418196Y363724D01*
X418217Y363823D01*
X418241Y363921D01*
X418269Y364018D01*
X418301Y364115D01*
X418336Y364210D01*
X418375Y364303D01*
X418417Y364395D01*
X418463Y364486D01*
X418512Y364575D01*
X418564Y364661D01*
X418620Y364746D01*
X418678Y364829D01*
X418740Y364909D01*
X418805Y364987D01*
X418872Y365063D01*
X418942Y365136D01*
X419015Y365206D01*
X419091Y365273D01*
X419169Y365338D01*
X419249Y365400D01*
X419332Y365458D01*
X419417Y365514D01*
X419504Y365566D01*
X419592Y365615D01*
X419683Y365661D01*
X419775Y365703D01*
X419868Y365742D01*
X419963Y365777D01*
X420060Y365809D01*
X420157Y365837D01*
X420255Y365861D01*
X420354Y365882D01*
X420454Y365899D01*
X420555Y365912D01*
X420656Y365921D01*
X420757Y365927D01*
X420858Y365929D01*
X424922Y365929D01*
X424922Y371348D01*
X418148Y371348D01*
X324443Y439589D02*
X322411Y439589D01*
X322411Y432816D01*
X326475Y432816D01*
X326576Y432818D01*
X326677Y432824D01*
X326778Y432833D01*
X326879Y432846D01*
X326979Y432863D01*
X327078Y432884D01*
X327176Y432908D01*
X327273Y432936D01*
X327370Y432968D01*
X327465Y433003D01*
X327558Y433042D01*
X327650Y433084D01*
X327741Y433130D01*
X327830Y433179D01*
X327916Y433231D01*
X328001Y433287D01*
X328084Y433345D01*
X328164Y433407D01*
X328242Y433472D01*
X328318Y433539D01*
X328391Y433609D01*
X328461Y433682D01*
X328528Y433758D01*
X328593Y433836D01*
X328655Y433916D01*
X328713Y433999D01*
X328769Y434084D01*
X328821Y434171D01*
X328870Y434259D01*
X328916Y434350D01*
X328958Y434442D01*
X328997Y434535D01*
X329032Y434630D01*
X329064Y434727D01*
X329092Y434824D01*
X329116Y434922D01*
X329137Y435021D01*
X329154Y435121D01*
X329167Y435222D01*
X329176Y435323D01*
X329182Y435424D01*
X329184Y435525D01*
X329184Y442299D01*
X329182Y442400D01*
X329176Y442501D01*
X329167Y442602D01*
X329154Y442703D01*
X329137Y442803D01*
X329116Y442902D01*
X329092Y443000D01*
X329064Y443097D01*
X329032Y443194D01*
X328997Y443289D01*
X328958Y443382D01*
X328916Y443474D01*
X328870Y443565D01*
X328821Y443654D01*
X328769Y443740D01*
X328713Y443825D01*
X328655Y443908D01*
X328593Y443988D01*
X328528Y444066D01*
X328461Y444142D01*
X328391Y444215D01*
X328318Y444285D01*
X328242Y444352D01*
X328164Y444417D01*
X328084Y444479D01*
X328001Y444537D01*
X327916Y444593D01*
X327830Y444645D01*
X327741Y444694D01*
X327650Y444740D01*
X327558Y444782D01*
X327465Y444821D01*
X327370Y444856D01*
X327273Y444888D01*
X327176Y444916D01*
X327078Y444940D01*
X326979Y444961D01*
X326879Y444978D01*
X326778Y444991D01*
X326677Y445000D01*
X326576Y445006D01*
X326475Y445008D01*
X322411Y445008D01*
X316410Y440944D02*
X316410Y432816D01*
X316748Y444331D02*
X316748Y445008D01*
X316071Y445008D01*
X316071Y444331D01*
X316748Y444331D01*
X310946Y445008D02*
X310946Y434848D01*
X310944Y434759D01*
X310938Y434671D01*
X310929Y434583D01*
X310915Y434495D01*
X310898Y434408D01*
X310877Y434322D01*
X310852Y434237D01*
X310823Y434153D01*
X310791Y434070D01*
X310756Y433989D01*
X310716Y433910D01*
X310674Y433832D01*
X310628Y433756D01*
X310579Y433682D01*
X310526Y433611D01*
X310471Y433542D01*
X310412Y433475D01*
X310351Y433411D01*
X310287Y433350D01*
X310220Y433291D01*
X310151Y433236D01*
X310080Y433183D01*
X310006Y433134D01*
X309930Y433088D01*
X309852Y433046D01*
X309773Y433006D01*
X309692Y432971D01*
X309609Y432939D01*
X309525Y432910D01*
X309440Y432885D01*
X309354Y432864D01*
X309267Y432847D01*
X309179Y432833D01*
X309091Y432824D01*
X309003Y432818D01*
X308914Y432816D01*
X303665Y432816D02*
X303665Y445008D01*
X303665Y432816D02*
X300278Y432816D01*
X300189Y432818D01*
X300101Y432824D01*
X300013Y432833D01*
X299925Y432847D01*
X299838Y432864D01*
X299752Y432885D01*
X299667Y432910D01*
X299583Y432939D01*
X299500Y432971D01*
X299419Y433006D01*
X299340Y433046D01*
X299262Y433088D01*
X299186Y433134D01*
X299112Y433183D01*
X299041Y433236D01*
X298972Y433291D01*
X298905Y433350D01*
X298841Y433411D01*
X298780Y433475D01*
X298721Y433542D01*
X298666Y433611D01*
X298613Y433682D01*
X298564Y433756D01*
X298518Y433832D01*
X298476Y433910D01*
X298436Y433989D01*
X298401Y434070D01*
X298369Y434153D01*
X298340Y434237D01*
X298315Y434322D01*
X298294Y434408D01*
X298277Y434495D01*
X298263Y434583D01*
X298254Y434671D01*
X298248Y434759D01*
X298246Y434848D01*
X298246Y438912D01*
X298248Y439001D01*
X298254Y439089D01*
X298263Y439177D01*
X298277Y439265D01*
X298294Y439352D01*
X298315Y439438D01*
X298340Y439523D01*
X298369Y439607D01*
X298401Y439690D01*
X298436Y439771D01*
X298476Y439850D01*
X298518Y439928D01*
X298564Y440004D01*
X298613Y440078D01*
X298666Y440149D01*
X298721Y440218D01*
X298780Y440285D01*
X298841Y440349D01*
X298905Y440410D01*
X298972Y440469D01*
X299041Y440524D01*
X299112Y440577D01*
X299186Y440626D01*
X299262Y440672D01*
X299340Y440714D01*
X299419Y440754D01*
X299500Y440789D01*
X299583Y440821D01*
X299667Y440850D01*
X299752Y440875D01*
X299838Y440896D01*
X299925Y440913D01*
X300013Y440927D01*
X300101Y440936D01*
X300189Y440942D01*
X300278Y440944D01*
X303665Y440944D01*
X290630Y432816D02*
X287244Y432816D01*
X290630Y432816D02*
X290719Y432818D01*
X290807Y432824D01*
X290895Y432833D01*
X290983Y432847D01*
X291070Y432864D01*
X291156Y432885D01*
X291241Y432910D01*
X291325Y432939D01*
X291408Y432971D01*
X291489Y433006D01*
X291568Y433046D01*
X291646Y433088D01*
X291722Y433134D01*
X291796Y433183D01*
X291867Y433236D01*
X291936Y433291D01*
X292003Y433350D01*
X292067Y433411D01*
X292128Y433475D01*
X292187Y433542D01*
X292242Y433611D01*
X292295Y433682D01*
X292344Y433756D01*
X292390Y433832D01*
X292432Y433910D01*
X292472Y433989D01*
X292507Y434070D01*
X292539Y434153D01*
X292568Y434237D01*
X292593Y434322D01*
X292614Y434408D01*
X292631Y434495D01*
X292645Y434583D01*
X292654Y434671D01*
X292660Y434759D01*
X292662Y434848D01*
X292662Y438235D01*
X292660Y438338D01*
X292654Y438440D01*
X292645Y438542D01*
X292631Y438644D01*
X292614Y438745D01*
X292592Y438845D01*
X292567Y438944D01*
X292539Y439043D01*
X292506Y439140D01*
X292470Y439236D01*
X292431Y439331D01*
X292387Y439424D01*
X292341Y439515D01*
X292290Y439604D01*
X292237Y439692D01*
X292180Y439777D01*
X292120Y439860D01*
X292057Y439941D01*
X291991Y440020D01*
X291922Y440095D01*
X291850Y440169D01*
X291776Y440239D01*
X291699Y440307D01*
X291619Y440371D01*
X291537Y440433D01*
X291453Y440491D01*
X291366Y440546D01*
X291278Y440598D01*
X291187Y440646D01*
X291095Y440691D01*
X291002Y440733D01*
X290906Y440771D01*
X290810Y440805D01*
X290712Y440836D01*
X290613Y440862D01*
X290513Y440886D01*
X290412Y440905D01*
X290311Y440920D01*
X290209Y440932D01*
X290107Y440940D01*
X290004Y440944D01*
X289902Y440944D01*
X289799Y440940D01*
X289697Y440932D01*
X289595Y440920D01*
X289494Y440905D01*
X289393Y440886D01*
X289293Y440862D01*
X289194Y440836D01*
X289096Y440805D01*
X289000Y440771D01*
X288904Y440733D01*
X288811Y440691D01*
X288719Y440646D01*
X288628Y440598D01*
X288540Y440546D01*
X288453Y440491D01*
X288369Y440433D01*
X288287Y440371D01*
X288207Y440307D01*
X288130Y440239D01*
X288056Y440169D01*
X287984Y440095D01*
X287915Y440020D01*
X287849Y439941D01*
X287786Y439860D01*
X287726Y439777D01*
X287669Y439692D01*
X287616Y439604D01*
X287565Y439515D01*
X287519Y439424D01*
X287475Y439331D01*
X287436Y439236D01*
X287400Y439140D01*
X287367Y439043D01*
X287339Y438944D01*
X287314Y438845D01*
X287292Y438745D01*
X287275Y438644D01*
X287261Y438542D01*
X287252Y438440D01*
X287246Y438338D01*
X287244Y438235D01*
X287244Y436880D01*
X292662Y436880D01*
X281037Y432816D02*
X281037Y440944D01*
X276973Y440944D01*
X276973Y439589D01*
X273780Y440944D02*
X269716Y440944D01*
X272425Y445008D02*
X272425Y434848D01*
X272423Y434759D01*
X272417Y434671D01*
X272408Y434583D01*
X272394Y434495D01*
X272377Y434408D01*
X272356Y434322D01*
X272331Y434237D01*
X272302Y434153D01*
X272270Y434070D01*
X272235Y433989D01*
X272195Y433910D01*
X272153Y433832D01*
X272107Y433756D01*
X272058Y433682D01*
X272005Y433611D01*
X271950Y433542D01*
X271891Y433475D01*
X271830Y433411D01*
X271766Y433350D01*
X271699Y433291D01*
X271630Y433236D01*
X271559Y433183D01*
X271485Y433134D01*
X271409Y433088D01*
X271331Y433046D01*
X271252Y433006D01*
X271171Y432971D01*
X271088Y432939D01*
X271004Y432910D01*
X270919Y432885D01*
X270833Y432864D01*
X270746Y432847D01*
X270658Y432833D01*
X270570Y432824D01*
X270482Y432818D01*
X270393Y432816D01*
X269716Y432816D01*
X264499Y435525D02*
X264499Y438235D01*
X264498Y438235D02*
X264496Y438338D01*
X264490Y438440D01*
X264481Y438542D01*
X264467Y438644D01*
X264450Y438745D01*
X264428Y438845D01*
X264403Y438944D01*
X264375Y439043D01*
X264342Y439140D01*
X264306Y439236D01*
X264267Y439331D01*
X264223Y439424D01*
X264177Y439515D01*
X264126Y439604D01*
X264073Y439692D01*
X264016Y439777D01*
X263956Y439860D01*
X263893Y439941D01*
X263827Y440020D01*
X263758Y440095D01*
X263686Y440169D01*
X263612Y440239D01*
X263535Y440307D01*
X263455Y440371D01*
X263373Y440433D01*
X263289Y440491D01*
X263202Y440546D01*
X263114Y440598D01*
X263023Y440646D01*
X262931Y440691D01*
X262838Y440733D01*
X262742Y440771D01*
X262646Y440805D01*
X262548Y440836D01*
X262449Y440862D01*
X262349Y440886D01*
X262248Y440905D01*
X262147Y440920D01*
X262045Y440932D01*
X261943Y440940D01*
X261840Y440944D01*
X261738Y440944D01*
X261635Y440940D01*
X261533Y440932D01*
X261431Y440920D01*
X261330Y440905D01*
X261229Y440886D01*
X261129Y440862D01*
X261030Y440836D01*
X260932Y440805D01*
X260836Y440771D01*
X260740Y440733D01*
X260647Y440691D01*
X260555Y440646D01*
X260464Y440598D01*
X260376Y440546D01*
X260289Y440491D01*
X260205Y440433D01*
X260123Y440371D01*
X260043Y440307D01*
X259966Y440239D01*
X259892Y440169D01*
X259820Y440095D01*
X259751Y440020D01*
X259685Y439941D01*
X259622Y439860D01*
X259562Y439777D01*
X259505Y439692D01*
X259452Y439604D01*
X259401Y439515D01*
X259355Y439424D01*
X259311Y439331D01*
X259272Y439236D01*
X259236Y439140D01*
X259203Y439043D01*
X259175Y438944D01*
X259150Y438845D01*
X259128Y438745D01*
X259111Y438644D01*
X259097Y438542D01*
X259088Y438440D01*
X259082Y438338D01*
X259080Y438235D01*
X259080Y435525D01*
X259082Y435422D01*
X259088Y435320D01*
X259097Y435218D01*
X259111Y435116D01*
X259128Y435015D01*
X259150Y434915D01*
X259175Y434816D01*
X259203Y434717D01*
X259236Y434620D01*
X259272Y434524D01*
X259311Y434429D01*
X259355Y434336D01*
X259401Y434245D01*
X259452Y434156D01*
X259505Y434068D01*
X259562Y433983D01*
X259622Y433900D01*
X259685Y433819D01*
X259751Y433740D01*
X259820Y433665D01*
X259892Y433591D01*
X259966Y433521D01*
X260043Y433453D01*
X260123Y433389D01*
X260205Y433327D01*
X260289Y433269D01*
X260376Y433214D01*
X260464Y433162D01*
X260555Y433114D01*
X260647Y433069D01*
X260740Y433027D01*
X260836Y432989D01*
X260932Y432955D01*
X261030Y432924D01*
X261129Y432898D01*
X261229Y432874D01*
X261330Y432855D01*
X261431Y432840D01*
X261533Y432828D01*
X261635Y432820D01*
X261738Y432816D01*
X261840Y432816D01*
X261943Y432820D01*
X262045Y432828D01*
X262147Y432840D01*
X262248Y432855D01*
X262349Y432874D01*
X262449Y432898D01*
X262548Y432924D01*
X262646Y432955D01*
X262742Y432989D01*
X262838Y433027D01*
X262931Y433069D01*
X263023Y433114D01*
X263114Y433162D01*
X263202Y433214D01*
X263289Y433269D01*
X263373Y433327D01*
X263455Y433389D01*
X263535Y433453D01*
X263612Y433521D01*
X263686Y433591D01*
X263758Y433665D01*
X263827Y433740D01*
X263893Y433819D01*
X263956Y433900D01*
X264016Y433983D01*
X264073Y434068D01*
X264126Y434156D01*
X264177Y434245D01*
X264223Y434336D01*
X264267Y434429D01*
X264306Y434524D01*
X264342Y434620D01*
X264375Y434717D01*
X264403Y434816D01*
X264428Y434915D01*
X264450Y435015D01*
X264467Y435116D01*
X264481Y435218D01*
X264490Y435320D01*
X264496Y435422D01*
X264498Y435525D01*
X241232Y439589D02*
X239200Y439589D01*
X239200Y432816D01*
X243264Y432816D01*
X243365Y432818D01*
X243466Y432824D01*
X243567Y432833D01*
X243668Y432846D01*
X243768Y432863D01*
X243867Y432884D01*
X243965Y432908D01*
X244062Y432936D01*
X244159Y432968D01*
X244254Y433003D01*
X244347Y433042D01*
X244439Y433084D01*
X244530Y433130D01*
X244619Y433179D01*
X244705Y433231D01*
X244790Y433287D01*
X244873Y433345D01*
X244953Y433407D01*
X245031Y433472D01*
X245107Y433539D01*
X245180Y433609D01*
X245250Y433682D01*
X245317Y433758D01*
X245382Y433836D01*
X245444Y433916D01*
X245502Y433999D01*
X245558Y434084D01*
X245610Y434171D01*
X245659Y434259D01*
X245705Y434350D01*
X245747Y434442D01*
X245786Y434535D01*
X245821Y434630D01*
X245853Y434727D01*
X245881Y434824D01*
X245905Y434922D01*
X245926Y435021D01*
X245943Y435121D01*
X245956Y435222D01*
X245965Y435323D01*
X245971Y435424D01*
X245973Y435525D01*
X245974Y435525D02*
X245974Y442299D01*
X245973Y442299D02*
X245971Y442400D01*
X245965Y442501D01*
X245956Y442602D01*
X245943Y442703D01*
X245926Y442803D01*
X245905Y442902D01*
X245881Y443000D01*
X245853Y443097D01*
X245821Y443194D01*
X245786Y443289D01*
X245747Y443382D01*
X245705Y443474D01*
X245659Y443565D01*
X245610Y443654D01*
X245558Y443740D01*
X245502Y443825D01*
X245444Y443908D01*
X245382Y443988D01*
X245317Y444066D01*
X245250Y444142D01*
X245180Y444215D01*
X245107Y444285D01*
X245031Y444352D01*
X244953Y444417D01*
X244873Y444479D01*
X244790Y444537D01*
X244705Y444593D01*
X244619Y444645D01*
X244530Y444694D01*
X244439Y444740D01*
X244347Y444782D01*
X244254Y444821D01*
X244159Y444856D01*
X244062Y444888D01*
X243965Y444916D01*
X243867Y444940D01*
X243768Y444961D01*
X243668Y444978D01*
X243567Y444991D01*
X243466Y445000D01*
X243365Y445006D01*
X243264Y445008D01*
X239200Y445008D01*
X232495Y440944D02*
X232495Y434848D01*
X232493Y434759D01*
X232487Y434671D01*
X232478Y434583D01*
X232464Y434495D01*
X232447Y434408D01*
X232426Y434322D01*
X232401Y434237D01*
X232372Y434153D01*
X232340Y434070D01*
X232305Y433989D01*
X232265Y433910D01*
X232223Y433832D01*
X232177Y433756D01*
X232128Y433682D01*
X232075Y433611D01*
X232020Y433542D01*
X231961Y433475D01*
X231900Y433411D01*
X231836Y433350D01*
X231769Y433291D01*
X231700Y433236D01*
X231629Y433183D01*
X231555Y433134D01*
X231479Y433088D01*
X231401Y433046D01*
X231322Y433006D01*
X231241Y432971D01*
X231158Y432939D01*
X231074Y432910D01*
X230989Y432885D01*
X230903Y432864D01*
X230816Y432847D01*
X230728Y432833D01*
X230640Y432824D01*
X230552Y432818D01*
X230463Y432816D01*
X227076Y432816D01*
X227076Y440944D01*
X218695Y437557D02*
X215647Y437557D01*
X218695Y437558D02*
X218792Y437556D01*
X218888Y437550D01*
X218984Y437540D01*
X219080Y437526D01*
X219175Y437509D01*
X219270Y437487D01*
X219363Y437462D01*
X219455Y437433D01*
X219546Y437400D01*
X219636Y437363D01*
X219724Y437323D01*
X219810Y437279D01*
X219894Y437232D01*
X219977Y437182D01*
X220057Y437128D01*
X220135Y437070D01*
X220211Y437010D01*
X220284Y436947D01*
X220354Y436881D01*
X220422Y436811D01*
X220487Y436740D01*
X220549Y436665D01*
X220607Y436588D01*
X220663Y436509D01*
X220715Y436428D01*
X220764Y436344D01*
X220810Y436259D01*
X220852Y436172D01*
X220890Y436083D01*
X220925Y435993D01*
X220956Y435901D01*
X220983Y435808D01*
X221007Y435715D01*
X221026Y435620D01*
X221042Y435524D01*
X221054Y435428D01*
X221062Y435332D01*
X221066Y435235D01*
X221066Y435139D01*
X221062Y435042D01*
X221054Y434946D01*
X221042Y434850D01*
X221026Y434754D01*
X221007Y434659D01*
X220983Y434566D01*
X220956Y434473D01*
X220925Y434381D01*
X220890Y434291D01*
X220852Y434202D01*
X220810Y434115D01*
X220764Y434030D01*
X220715Y433946D01*
X220663Y433865D01*
X220607Y433786D01*
X220549Y433709D01*
X220487Y433634D01*
X220422Y433563D01*
X220354Y433493D01*
X220284Y433427D01*
X220211Y433364D01*
X220135Y433304D01*
X220057Y433246D01*
X219977Y433192D01*
X219894Y433142D01*
X219810Y433095D01*
X219724Y433051D01*
X219636Y433011D01*
X219546Y432974D01*
X219455Y432941D01*
X219363Y432912D01*
X219270Y432887D01*
X219175Y432865D01*
X219080Y432848D01*
X218984Y432834D01*
X218888Y432824D01*
X218792Y432818D01*
X218695Y432816D01*
X215647Y432816D01*
X215647Y438912D01*
X215649Y439001D01*
X215655Y439089D01*
X215664Y439177D01*
X215678Y439265D01*
X215695Y439352D01*
X215716Y439438D01*
X215741Y439523D01*
X215770Y439607D01*
X215802Y439690D01*
X215837Y439771D01*
X215877Y439850D01*
X215919Y439928D01*
X215965Y440004D01*
X216014Y440078D01*
X216067Y440149D01*
X216122Y440218D01*
X216181Y440285D01*
X216242Y440349D01*
X216306Y440410D01*
X216373Y440469D01*
X216442Y440524D01*
X216513Y440577D01*
X216587Y440626D01*
X216663Y440672D01*
X216741Y440714D01*
X216820Y440754D01*
X216901Y440789D01*
X216984Y440821D01*
X217068Y440850D01*
X217153Y440875D01*
X217239Y440896D01*
X217326Y440913D01*
X217414Y440927D01*
X217502Y440936D01*
X217590Y440942D01*
X217679Y440944D01*
X220388Y440944D01*
X204125Y445008D02*
X204125Y432816D01*
X207512Y432816D01*
X207601Y432818D01*
X207689Y432824D01*
X207777Y432833D01*
X207865Y432847D01*
X207952Y432864D01*
X208038Y432885D01*
X208123Y432910D01*
X208207Y432939D01*
X208290Y432971D01*
X208371Y433006D01*
X208450Y433046D01*
X208528Y433088D01*
X208604Y433134D01*
X208678Y433183D01*
X208749Y433236D01*
X208818Y433291D01*
X208885Y433350D01*
X208949Y433411D01*
X209010Y433475D01*
X209069Y433542D01*
X209124Y433611D01*
X209177Y433682D01*
X209226Y433756D01*
X209272Y433832D01*
X209314Y433910D01*
X209354Y433989D01*
X209389Y434070D01*
X209421Y434153D01*
X209450Y434237D01*
X209475Y434322D01*
X209496Y434408D01*
X209513Y434495D01*
X209527Y434583D01*
X209536Y434671D01*
X209542Y434759D01*
X209544Y434848D01*
X209544Y438912D01*
X209542Y439001D01*
X209536Y439089D01*
X209527Y439177D01*
X209513Y439265D01*
X209496Y439352D01*
X209475Y439438D01*
X209450Y439523D01*
X209421Y439607D01*
X209389Y439690D01*
X209354Y439771D01*
X209314Y439850D01*
X209272Y439928D01*
X209226Y440004D01*
X209177Y440078D01*
X209124Y440149D01*
X209069Y440218D01*
X209010Y440285D01*
X208949Y440349D01*
X208885Y440410D01*
X208818Y440469D01*
X208749Y440524D01*
X208678Y440577D01*
X208604Y440626D01*
X208528Y440672D01*
X208450Y440714D01*
X208371Y440754D01*
X208290Y440789D01*
X208207Y440821D01*
X208123Y440850D01*
X208038Y440875D01*
X207952Y440896D01*
X207865Y440913D01*
X207777Y440927D01*
X207689Y440936D01*
X207601Y440942D01*
X207512Y440944D01*
X204125Y440944D01*
X198208Y440944D02*
X198208Y432816D01*
X198547Y444331D02*
X198547Y445008D01*
X197870Y445008D01*
X197870Y444331D01*
X198547Y444331D01*
X190531Y437557D02*
X187483Y437557D01*
X190531Y437558D02*
X190628Y437556D01*
X190724Y437550D01*
X190820Y437540D01*
X190916Y437526D01*
X191011Y437509D01*
X191106Y437487D01*
X191199Y437462D01*
X191291Y437433D01*
X191382Y437400D01*
X191472Y437363D01*
X191560Y437323D01*
X191646Y437279D01*
X191730Y437232D01*
X191813Y437182D01*
X191893Y437128D01*
X191971Y437070D01*
X192047Y437010D01*
X192120Y436947D01*
X192190Y436881D01*
X192258Y436811D01*
X192323Y436740D01*
X192385Y436665D01*
X192443Y436588D01*
X192499Y436509D01*
X192551Y436428D01*
X192600Y436344D01*
X192646Y436259D01*
X192688Y436172D01*
X192726Y436083D01*
X192761Y435993D01*
X192792Y435901D01*
X192819Y435808D01*
X192843Y435715D01*
X192862Y435620D01*
X192878Y435524D01*
X192890Y435428D01*
X192898Y435332D01*
X192902Y435235D01*
X192902Y435139D01*
X192898Y435042D01*
X192890Y434946D01*
X192878Y434850D01*
X192862Y434754D01*
X192843Y434659D01*
X192819Y434566D01*
X192792Y434473D01*
X192761Y434381D01*
X192726Y434291D01*
X192688Y434202D01*
X192646Y434115D01*
X192600Y434030D01*
X192551Y433946D01*
X192499Y433865D01*
X192443Y433786D01*
X192385Y433709D01*
X192323Y433634D01*
X192258Y433563D01*
X192190Y433493D01*
X192120Y433427D01*
X192047Y433364D01*
X191971Y433304D01*
X191893Y433246D01*
X191813Y433192D01*
X191730Y433142D01*
X191646Y433095D01*
X191560Y433051D01*
X191472Y433011D01*
X191382Y432974D01*
X191291Y432941D01*
X191199Y432912D01*
X191106Y432887D01*
X191011Y432865D01*
X190916Y432848D01*
X190820Y432834D01*
X190724Y432824D01*
X190628Y432818D01*
X190531Y432816D01*
X187483Y432816D01*
X187483Y438912D01*
X187485Y439001D01*
X187491Y439089D01*
X187500Y439177D01*
X187514Y439265D01*
X187531Y439352D01*
X187552Y439438D01*
X187577Y439523D01*
X187606Y439607D01*
X187638Y439690D01*
X187673Y439771D01*
X187713Y439850D01*
X187755Y439928D01*
X187801Y440004D01*
X187850Y440078D01*
X187903Y440149D01*
X187958Y440218D01*
X188017Y440285D01*
X188078Y440349D01*
X188142Y440410D01*
X188209Y440469D01*
X188278Y440524D01*
X188349Y440577D01*
X188423Y440626D01*
X188499Y440672D01*
X188577Y440714D01*
X188656Y440754D01*
X188737Y440789D01*
X188820Y440821D01*
X188904Y440850D01*
X188989Y440875D01*
X189075Y440896D01*
X189162Y440913D01*
X189250Y440927D01*
X189338Y440936D01*
X189426Y440942D01*
X189515Y440944D01*
X192224Y440944D01*
X180862Y440944D02*
X180862Y432816D01*
X180862Y440944D02*
X177475Y440944D01*
X177386Y440942D01*
X177298Y440936D01*
X177210Y440927D01*
X177122Y440913D01*
X177035Y440896D01*
X176949Y440875D01*
X176864Y440850D01*
X176780Y440821D01*
X176697Y440789D01*
X176616Y440754D01*
X176537Y440714D01*
X176459Y440672D01*
X176383Y440626D01*
X176309Y440577D01*
X176238Y440524D01*
X176169Y440469D01*
X176102Y440410D01*
X176038Y440349D01*
X175977Y440285D01*
X175918Y440218D01*
X175863Y440149D01*
X175810Y440078D01*
X175761Y440004D01*
X175715Y439928D01*
X175673Y439850D01*
X175633Y439771D01*
X175598Y439690D01*
X175566Y439607D01*
X175537Y439523D01*
X175512Y439438D01*
X175491Y439352D01*
X175474Y439265D01*
X175460Y439177D01*
X175451Y439089D01*
X175445Y439001D01*
X175443Y438912D01*
X175443Y432816D01*
X167062Y437557D02*
X164014Y437557D01*
X167062Y437558D02*
X167159Y437556D01*
X167255Y437550D01*
X167351Y437540D01*
X167447Y437526D01*
X167542Y437509D01*
X167637Y437487D01*
X167730Y437462D01*
X167822Y437433D01*
X167913Y437400D01*
X168003Y437363D01*
X168091Y437323D01*
X168177Y437279D01*
X168261Y437232D01*
X168344Y437182D01*
X168424Y437128D01*
X168502Y437070D01*
X168578Y437010D01*
X168651Y436947D01*
X168721Y436881D01*
X168789Y436811D01*
X168854Y436740D01*
X168916Y436665D01*
X168974Y436588D01*
X169030Y436509D01*
X169082Y436428D01*
X169131Y436344D01*
X169177Y436259D01*
X169219Y436172D01*
X169257Y436083D01*
X169292Y435993D01*
X169323Y435901D01*
X169350Y435808D01*
X169374Y435715D01*
X169393Y435620D01*
X169409Y435524D01*
X169421Y435428D01*
X169429Y435332D01*
X169433Y435235D01*
X169433Y435139D01*
X169429Y435042D01*
X169421Y434946D01*
X169409Y434850D01*
X169393Y434754D01*
X169374Y434659D01*
X169350Y434566D01*
X169323Y434473D01*
X169292Y434381D01*
X169257Y434291D01*
X169219Y434202D01*
X169177Y434115D01*
X169131Y434030D01*
X169082Y433946D01*
X169030Y433865D01*
X168974Y433786D01*
X168916Y433709D01*
X168854Y433634D01*
X168789Y433563D01*
X168721Y433493D01*
X168651Y433427D01*
X168578Y433364D01*
X168502Y433304D01*
X168424Y433246D01*
X168344Y433192D01*
X168261Y433142D01*
X168177Y433095D01*
X168091Y433051D01*
X168003Y433011D01*
X167913Y432974D01*
X167822Y432941D01*
X167730Y432912D01*
X167637Y432887D01*
X167542Y432865D01*
X167447Y432848D01*
X167351Y432834D01*
X167255Y432824D01*
X167159Y432818D01*
X167062Y432816D01*
X164014Y432816D01*
X164014Y438912D01*
X164016Y439001D01*
X164022Y439089D01*
X164031Y439177D01*
X164045Y439265D01*
X164062Y439352D01*
X164083Y439438D01*
X164108Y439523D01*
X164137Y439607D01*
X164169Y439690D01*
X164204Y439771D01*
X164244Y439850D01*
X164286Y439928D01*
X164332Y440004D01*
X164381Y440078D01*
X164434Y440149D01*
X164489Y440218D01*
X164548Y440285D01*
X164609Y440349D01*
X164673Y440410D01*
X164740Y440469D01*
X164809Y440524D01*
X164880Y440577D01*
X164954Y440626D01*
X165030Y440672D01*
X165108Y440714D01*
X165187Y440754D01*
X165268Y440789D01*
X165351Y440821D01*
X165435Y440850D01*
X165520Y440875D01*
X165606Y440896D01*
X165693Y440913D01*
X165781Y440927D01*
X165869Y440936D01*
X165957Y440942D01*
X166046Y440944D01*
X168755Y440944D01*
M02*
