G04 EAGLE Gerber RS-274X export*
G75*
%MOMM*%
%FSLAX34Y34*%
%LPD*%
%INSoldermask Top*%
%IPPOS*%
%AMOC8*
5,1,8,0,0,1.08239X$1,22.5*%
G01*
%ADD10P,1.759533X8X292.500000*%
%ADD11P,1.759533X8X22.500000*%
%ADD12P,1.759533X8X112.500000*%
%ADD13C,1.625600*%
%ADD14C,2.082800*%
%ADD15C,1.712800*%


D10*
X325120Y419100D03*
X325120Y393700D03*
D11*
X317500Y217170D03*
X342900Y217170D03*
X161290Y114300D03*
X186690Y114300D03*
D10*
X393700Y482600D03*
X393700Y457200D03*
X110490Y480060D03*
X110490Y454660D03*
D12*
X350520Y358140D03*
X350520Y434340D03*
X129540Y349250D03*
X129540Y425450D03*
D10*
X375920Y434340D03*
X375920Y358140D03*
X95250Y425450D03*
X95250Y349250D03*
D13*
X208788Y419100D02*
X223012Y419100D01*
X223012Y393700D02*
X208788Y393700D01*
X208788Y368300D02*
X223012Y368300D01*
X223012Y342900D02*
X208788Y342900D01*
X208788Y317500D02*
X223012Y317500D01*
X223012Y292100D02*
X208788Y292100D01*
X208788Y266700D02*
X223012Y266700D01*
X223012Y241300D02*
X208788Y241300D01*
X208788Y215900D02*
X223012Y215900D01*
X223012Y190500D02*
X208788Y190500D01*
X208788Y165100D02*
X223012Y165100D01*
X223012Y139700D02*
X208788Y139700D01*
X208788Y114300D02*
X223012Y114300D01*
X223012Y88900D02*
X208788Y88900D01*
X284988Y88900D02*
X299212Y88900D01*
X299212Y114300D02*
X284988Y114300D01*
X284988Y139700D02*
X299212Y139700D01*
X299212Y165100D02*
X284988Y165100D01*
X284988Y190500D02*
X299212Y190500D01*
X299212Y215900D02*
X284988Y215900D01*
X284988Y241300D02*
X299212Y241300D01*
X299212Y266700D02*
X284988Y266700D01*
X284988Y292100D02*
X299212Y292100D01*
X299212Y317500D02*
X284988Y317500D01*
X284988Y342900D02*
X299212Y342900D01*
X299212Y368300D02*
X284988Y368300D01*
X284988Y393700D02*
X299212Y393700D01*
X299212Y419100D02*
X284988Y419100D01*
D14*
X393700Y101600D03*
X393700Y78740D03*
X469900Y266700D03*
X469900Y292100D03*
X469900Y317500D03*
X469900Y342900D03*
X469900Y368300D03*
X469900Y138430D03*
X469900Y163830D03*
X469900Y189230D03*
X469900Y214630D03*
X469900Y240030D03*
X25400Y139700D03*
X25400Y165100D03*
X25400Y190500D03*
X25400Y215900D03*
X25400Y241300D03*
X25400Y266700D03*
X25400Y292100D03*
X25400Y317500D03*
X25400Y342900D03*
X25400Y368300D03*
X25400Y88900D03*
X25400Y63500D03*
X25400Y38100D03*
X156210Y22860D03*
X156210Y48260D03*
D15*
X208680Y50790D03*
X233680Y50790D03*
X258680Y50790D03*
X258680Y17790D03*
X233680Y17790D03*
X208680Y17790D03*
D14*
X125730Y22860D03*
X125730Y48260D03*
X125730Y73660D03*
X125730Y99060D03*
X420370Y21590D03*
X394970Y21590D03*
X369570Y21590D03*
X344170Y21590D03*
X318770Y21590D03*
X293370Y21590D03*
X200660Y467360D03*
X226060Y467360D03*
X251460Y467360D03*
X276860Y467360D03*
X302260Y467360D03*
X450850Y20320D03*
X450850Y45720D03*
X450850Y71120D03*
X450850Y96520D03*
X480060Y469900D03*
X429260Y469900D03*
X22860Y459740D03*
X73660Y459740D03*
M02*
